<svg width="135" height="187" viewBox="0 0 135 187" fill="none" xmlns="http://www.w3.org/2000/svg">
<g clip-path="url(#clip0_16_29327)">
<path d="M134.669 0H0.666504V187H134.669V0Z" fill="#452424"/>
<mask id="mask0_16_29327" style="mask-type:luminance" maskUnits="userSpaceOnUse" x="0" y="0" width="135" height="187">
<path d="M134.669 0H0.666504V187H134.669V0Z" fill="white"/>
</mask>
<g mask="url(#mask0_16_29327)">
<path d="M48.4165 22.5959C47.9165 23.3459 42.6665 184.596 42.6665 184.596L44.9165 184.096L49.9165 23.3459" fill="#FBB03B"/>
<path d="M23.2504 -12.4031C22.2504 5.59694 48.5834 21.2639 48.5834 21.2639C44.2504 24.9299 42.9164 27.2639 42.9164 27.2639C42.9164 27.2639 50.1664 27.0959 57.1664 27.0959C55.6664 24.3459 51.5834 21.2639 51.5834 21.2639C64.2504 16.9299 74.9164 -1.73606 74.2504 -11.0701C53.2504 -13.4041 23.2504 -12.4031 23.2504 -12.4031Z" fill="#FA679B"/>
<path d="M142.916 13.596C124.166 -6.65405 77.5842 20.264 90.2502 61.264C102.916 102.264 130.916 97.9299 130.916 97.9299L124.25 107.93L135.916 108.596L142.916 13.596Z" fill="#9AE6D7"/>
<path d="M14.4163 120.93C13.0833 143.93 16.7503 186.596 16.7503 186.596L18.4163 185.596L15.7503 120.264" fill="#FA679B"/>
<path d="M-17.3627 42.3499C-1.69569 7.34992 44.0843 16.5959 47.7503 58.5959C51.4163 100.596 27.0843 112.93 16.7503 117.264C20.4163 121.596 21.0833 124.596 21.0833 124.596L7.75031 125.264L13.0833 117.264C-6.61268 111.6 -32.3627 85.0159 -17.3627 42.3499Z" fill="#FBB03B"/>
<path d="M-9.33355 191.763C-32.6665 161.763 21.6665 112.096 49.6665 161.43C59.0005 177.43 49.3335 198.096 49.3335 198.096" fill="#9AE6D7"/>
<path d="M67.6195 149.68C25.1685 148.346 4.51953 103.267 23.3875 60.5999C42.2535 17.9339 109.221 23.2659 115.388 76.5999C121.556 129.934 95.1965 148.68 67.6195 149.68Z" fill="#FFFAED"/>
<path d="M45.5543 87.9378C45.3406 87.9378 45.1269 87.9073 44.9132 87.8463C44.7148 87.8005 44.6156 87.6555 44.6156 87.4112C44.6156 87.1823 44.6919 87.0297 44.8445 86.9533C44.9972 86.877 45.1422 86.8389 45.2795 86.8389C45.4169 86.8389 45.5619 86.8236 45.7145 86.7931C45.8672 86.7778 45.9969 86.6939 46.1038 86.5412C46.2259 86.3886 46.2869 86.1367 46.2869 85.7857V77.8409C46.0427 77.8409 45.7985 77.8409 45.5543 77.8409C45.3253 77.8409 45.0887 77.8333 44.8445 77.818C44.6461 77.818 44.44 77.818 44.2263 77.818C44.0126 77.818 43.799 77.8104 43.5853 77.7951H42.3947C41.6163 77.7951 40.8378 77.8028 40.0594 77.818C39.2809 77.818 38.5025 77.8257 37.724 77.8409V85.5109H39.922C40.212 85.5109 40.4181 85.5643 40.5402 85.6712C40.6623 85.778 40.7233 85.9078 40.7233 86.0604C40.7233 86.3199 40.6623 86.4878 40.5402 86.5641C40.4333 86.6404 40.3036 86.6786 40.1509 86.6786H35.0681C34.8544 86.6786 34.6408 86.6404 34.4271 86.5641C34.2286 86.4878 34.1294 86.3199 34.1294 86.0604C34.1294 85.8467 34.2057 85.717 34.3584 85.6712C34.511 85.6101 34.656 85.5796 34.7934 85.5796C34.9613 85.5796 35.1368 85.5643 35.32 85.5338C35.5032 85.5033 35.6634 85.4193 35.8008 85.282C35.9382 85.1293 36.0069 84.8775 36.0069 84.5264C36.0069 83.9464 36.0069 83.3664 36.0069 82.7864C36.0221 82.2063 36.0374 81.6339 36.0526 81.0692C36.0679 80.5044 36.0755 79.9244 36.0755 79.3291C36.0908 78.7339 36.0984 78.1233 36.0984 77.4975C36.0984 76.8717 36.0908 76.2306 36.0755 75.5743C36.0755 74.9027 36.0679 74.2158 36.0526 73.5137C36.0374 72.8115 36.0221 72.1323 36.0069 71.476C36.0069 70.8196 36.0069 70.1786 36.0069 69.5528C36.0069 69.3849 35.9229 69.2627 35.755 69.1864C35.6024 69.1101 35.4192 69.0643 35.2055 69.0491C34.9918 69.0338 34.801 69.0262 34.6331 69.0262C34.4652 69.0262 34.2821 68.988 34.0836 68.9117C33.8852 68.8354 33.786 68.6827 33.786 68.4538C33.786 68.179 33.8928 68.0188 34.1065 67.973C34.3202 67.9119 34.4958 67.8814 34.6331 67.8814H39.0291C39.5022 67.8814 39.838 67.9195 40.0365 67.9959C40.2196 68.0874 40.3112 68.2401 40.3112 68.4538C40.3112 68.698 40.1967 68.8583 39.9678 68.9346C39.7388 68.9956 39.5328 69.0262 39.3496 69.0262C39.2122 69.0262 39.0138 69.0338 38.7543 69.0491C38.4948 69.0643 38.2582 69.1177 38.0446 69.2093C37.8309 69.2856 37.724 69.4154 37.724 69.5985V76.284C38.1209 76.2993 38.5101 76.3146 38.8917 76.3298C39.2885 76.3298 39.6778 76.3298 40.0594 76.3298H42.3947C43.7532 76.3298 44.7529 76.3222 45.394 76.3069C46.0351 76.2917 46.3098 76.284 46.2182 76.284V69.8733C46.2182 69.6138 46.0809 69.4612 45.8061 69.4154C45.5314 69.3696 45.2872 69.3467 45.0735 69.3467C44.9056 69.3467 44.7224 69.3085 44.524 69.2322C44.3256 69.1406 44.2263 68.988 44.2263 68.7743C44.2263 68.5454 44.3332 68.3927 44.5469 68.3164C44.7606 68.2401 44.9361 68.2019 45.0735 68.2019H49.4694C49.9426 68.2019 50.2784 68.2401 50.4768 68.3164C50.66 68.3775 50.7516 68.5301 50.7516 68.7743C50.7516 69.0338 50.6371 69.1941 50.4081 69.2551C50.1792 69.3162 49.9731 69.3467 49.7899 69.3467C49.6526 69.3467 49.4313 69.3543 49.126 69.3696C48.836 69.3849 48.5612 69.4383 48.3017 69.5299C48.0575 69.6062 47.9354 69.7359 47.9354 69.9191C47.9354 70.6059 47.9278 71.392 47.9125 72.2773C47.9125 73.1473 47.9049 74.0403 47.8896 74.9561C47.8896 75.8566 47.8896 76.7038 47.8896 77.4975C47.8896 78.9018 47.9049 80.2526 47.9354 81.55C47.9812 82.8321 48.0194 83.9388 48.0499 84.8698C48.0957 85.8009 48.1186 86.4344 48.1186 86.7702H50.3165C50.4844 86.7702 50.66 86.8083 50.8431 86.8846C51.0263 86.9762 51.1179 87.1518 51.1179 87.4112C51.1179 87.6249 51.0568 87.7623 50.9347 87.8234C50.8279 87.8997 50.6981 87.9378 50.5455 87.9378H45.5543ZM55.1462 86.9304C54.0778 86.9304 53.223 86.6862 52.5819 86.1978C51.9561 85.7093 51.6432 85.053 51.6432 84.2288C51.6432 83.3435 51.9867 82.6032 52.6735 82.0079C53.3757 81.4126 54.3067 81.115 55.4668 81.115C56.6573 81.115 57.7258 81.466 58.6721 82.1682V81.55C58.6721 81.4737 58.6721 81.3897 58.6721 81.2981C58.6721 81.2066 58.6798 81.1226 58.695 81.0463V80.7029C58.695 79.6955 58.4814 78.9094 58.054 78.3446C57.6418 77.7646 56.9779 77.4746 56.0621 77.4746C55.7721 77.4746 55.4286 77.5204 55.0318 77.612C54.6502 77.6883 54.3144 77.818 54.0244 78.0012C53.7496 78.1691 53.6122 78.3828 53.6122 78.6423C53.6122 78.7644 53.6504 78.8483 53.7267 78.8941C53.803 78.9246 53.9175 78.9552 54.0702 78.9857C54.177 79.001 54.2991 79.062 54.4365 79.1689C54.5739 79.2757 54.6425 79.4512 54.6425 79.6955C54.6425 79.9549 54.551 80.161 54.3678 80.3136C54.1846 80.451 53.9404 80.5197 53.6351 80.5197C53.162 80.5197 52.8262 80.3518 52.6277 80.016C52.4293 79.6802 52.3301 79.3139 52.3301 78.917C52.3301 78.0928 52.6812 77.4212 53.3833 76.9022C54.0854 76.368 55.0394 76.1009 56.2452 76.1009C58.9469 76.1009 60.2977 77.5891 60.2977 80.5655C60.2977 80.5808 60.2901 80.7868 60.2748 81.1837C60.2748 81.5653 60.2672 82.0079 60.2519 82.5116C60.2367 83.0153 60.229 83.4656 60.229 83.8624C60.229 84.5951 60.2596 85.053 60.3206 85.2362C60.3969 85.4499 60.5343 85.5567 60.7327 85.5567C60.9006 85.5567 61.0075 85.5033 61.0533 85.3964C61.1143 85.2896 61.1601 85.137 61.1907 84.9385C61.2059 84.8469 61.2593 84.7401 61.3509 84.618C61.4425 84.4959 61.5951 84.4348 61.8088 84.4348C62.0073 84.4348 62.137 84.5111 62.1981 84.6638C62.2591 84.8164 62.2896 84.992 62.2896 85.1904C62.2896 85.8009 62.1065 86.2436 61.7401 86.5183C61.3891 86.7931 60.9846 86.9304 60.5267 86.9304C60.1146 86.9304 59.7406 86.8312 59.4048 86.6328C59.0843 86.4191 58.8553 86.068 58.7179 85.5796C58.2295 86.0223 57.6876 86.3581 57.0924 86.587C56.5123 86.816 55.8636 86.9304 55.1462 86.9304ZM55.6728 85.5567C56.4818 85.5567 57.1839 85.4041 57.7792 85.0988C58.3745 84.7935 58.6721 84.4196 58.6721 83.9769C58.6721 83.5343 58.4127 83.1756 57.8937 82.9008C57.3747 82.6261 56.7566 82.4887 56.0392 82.4887C55.276 82.4887 54.6196 82.649 54.0702 82.9695C53.5359 83.2901 53.2688 83.7022 53.2688 84.2059C53.2688 84.6638 53.5054 85.0072 53.9786 85.2362C54.4517 85.4499 55.0165 85.5567 55.6728 85.5567ZM62.8568 91.3035C62.7653 91.3035 62.6355 91.2806 62.4676 91.2348C62.2997 91.189 62.2158 91.044 62.2158 90.7998C62.2158 90.5708 62.3302 90.3877 62.5592 90.2503C62.7881 90.1282 63.1011 90.0442 63.4979 89.9984C63.7727 89.9679 63.9558 89.9221 64.0474 89.8611C64.1542 89.8 64.2077 89.6779 64.2077 89.4947C64.2229 89.3116 64.2306 89.0292 64.2306 88.6476C64.2306 88.0218 64.2382 87.2662 64.2535 86.3809C64.284 85.4804 64.2993 84.6333 64.2993 83.8395C64.2993 83.0306 64.2916 82.3513 64.2764 81.8018C64.2764 81.2524 64.2687 80.7792 64.2535 80.3823C64.2382 79.9855 64.2229 79.6115 64.2077 79.2604C64.2077 78.9094 64.2077 78.5202 64.2077 78.0928C64.2077 77.8486 64.1542 77.7036 64.0474 77.6578C63.9558 77.612 63.7498 77.5891 63.4292 77.5891H62.4676C62.3608 77.5891 62.2158 77.5814 62.0326 77.5662C61.8494 77.5357 61.6892 77.4899 61.5518 77.4288C61.3992 77.3525 61.3228 77.2456 61.3228 77.1083C61.3228 76.803 61.6892 76.6122 62.4218 76.5359C63.1545 76.4443 64.1008 76.3985 65.2609 76.3985C65.4746 76.3985 65.6196 76.4519 65.6959 76.5588C65.7875 76.6504 65.8333 76.8717 65.8333 77.2227V78.7567C66.2301 77.8257 66.7872 77.1159 67.5046 76.6275C68.222 76.139 68.9623 75.8948 69.7255 75.8948C70.5803 75.8948 71.2824 76.0627 71.8319 76.3985C72.3814 76.7343 72.8087 77.177 73.114 77.7264C73.4193 78.2607 73.633 78.8407 73.7551 79.4665C73.8772 80.0771 73.9383 80.6647 73.9383 81.2295C73.9383 82.3284 73.7704 83.2443 73.4346 83.9769C73.0988 84.7096 72.6714 85.2972 72.1524 85.7399C71.6487 86.1673 71.1297 86.4725 70.5955 86.6557C70.0765 86.8389 69.6186 86.9304 69.2218 86.9304C68.5349 86.9304 67.9625 86.8312 67.5046 86.6328C67.062 86.4344 66.7033 86.1978 66.4285 85.923C66.1691 85.633 65.9706 85.3659 65.8333 85.1217V89.9755H67.3215C67.7183 89.9755 68.0465 90.0442 68.306 90.1816C68.5654 90.319 68.6952 90.5174 68.6952 90.7769C68.6952 90.9906 68.6112 91.1279 68.4433 91.189C68.2754 91.2653 68.1304 91.3035 68.0083 91.3035H62.8568ZM69.1531 85.5567C69.4431 85.5567 69.7636 85.488 70.1147 85.3506C70.4658 85.2133 70.8016 84.9843 71.1221 84.6638C71.4579 84.3432 71.725 83.9006 71.9235 83.3358C72.1371 82.7711 72.244 82.0537 72.244 81.1837C72.244 80.8173 72.2135 80.4129 72.1524 79.9702C72.0914 79.5123 71.9692 79.0849 71.7861 78.6881C71.6029 78.2759 71.3358 77.9401 70.9847 77.6807C70.6489 77.4212 70.1987 77.2914 69.6339 77.2914C69.0691 77.2914 68.4891 77.4593 67.8938 77.7951C67.3138 78.1157 66.8178 78.6041 66.4056 79.2604C66.0088 79.9015 65.8104 80.7029 65.8104 81.6645C65.8104 82.3513 65.9019 82.9924 66.0851 83.5877C66.2835 84.1677 66.627 84.6409 67.1154 85.0072C67.6038 85.3735 68.2831 85.5567 69.1531 85.5567ZM75.7132 91.3035C75.6216 91.3035 75.4919 91.2806 75.324 91.2348C75.1561 91.189 75.0721 91.044 75.0721 90.7998C75.0721 90.5708 75.1866 90.3877 75.4156 90.2503C75.6445 90.1282 75.9574 90.0442 76.3543 89.9984C76.629 89.9679 76.8122 89.9221 76.9038 89.8611C77.0106 89.8 77.064 89.6779 77.064 89.4947C77.0793 89.3116 77.0869 89.0292 77.0869 88.6476C77.0869 88.0218 77.0946 87.2662 77.1098 86.3809C77.1403 85.4804 77.1556 84.6333 77.1556 83.8395C77.1556 83.0306 77.148 82.3513 77.1327 81.8018C77.1327 81.2524 77.1251 80.7792 77.1098 80.3823C77.0946 79.9855 77.0793 79.6115 77.064 79.2604C77.064 78.9094 77.064 78.5202 77.064 78.0928C77.064 77.8486 77.0106 77.7036 76.9038 77.6578C76.8122 77.612 76.6061 77.5891 76.2856 77.5891H75.324C75.2171 77.5891 75.0721 77.5814 74.889 77.5662C74.7058 77.5357 74.5455 77.4899 74.4082 77.4288C74.2555 77.3525 74.1792 77.2456 74.1792 77.1083C74.1792 76.803 74.5455 76.6122 75.2782 76.5359C76.0108 76.4443 76.9572 76.3985 78.1172 76.3985C78.3309 76.3985 78.4759 76.4519 78.5522 76.5588C78.6438 76.6504 78.6896 76.8717 78.6896 77.2227V78.7567C79.0865 77.8257 79.6436 77.1159 80.361 76.6275C81.0784 76.139 81.8187 75.8948 82.5818 75.8948C83.4366 75.8948 84.1387 76.0627 84.6882 76.3985C85.2377 76.7343 85.6651 77.177 85.9704 77.7264C86.2757 78.2607 86.4893 78.8407 86.6115 79.4665C86.7336 80.0771 86.7946 80.6647 86.7946 81.2295C86.7946 82.3284 86.6267 83.2443 86.2909 83.9769C85.9551 84.7096 85.5277 85.2972 85.0088 85.7399C84.5051 86.1673 83.9861 86.4725 83.4519 86.6557C82.9329 86.8389 82.475 86.9304 82.0781 86.9304C81.3913 86.9304 80.8189 86.8312 80.361 86.6328C79.9183 86.4344 79.5596 86.1978 79.2849 85.923C79.0254 85.633 78.827 85.3659 78.6896 85.1217V89.9755H80.1778C80.5747 89.9755 80.9028 90.0442 81.1623 90.1816C81.4218 90.319 81.5515 90.5174 81.5515 90.7769C81.5515 90.9906 81.4676 91.1279 81.2997 91.189C81.1318 91.2653 80.9868 91.3035 80.8647 91.3035H75.7132ZM82.0095 85.5567C82.2995 85.5567 82.62 85.488 82.9711 85.3506C83.3221 85.2133 83.6579 84.9843 83.9785 84.6638C84.3143 84.3432 84.5814 83.9006 84.7798 83.3358C84.9935 82.7711 85.1004 82.0537 85.1004 81.1837C85.1004 80.8173 85.0698 80.4129 85.0088 79.9702C84.9477 79.5123 84.8256 79.0849 84.6424 78.6881C84.4593 78.2759 84.1922 77.9401 83.8411 77.6807C83.5053 77.4212 83.055 77.2914 82.4903 77.2914C81.9255 77.2914 81.3455 77.4593 80.7502 77.7951C80.1702 78.1157 79.6741 78.6041 79.262 79.2604C78.8651 79.9015 78.6667 80.7029 78.6667 81.6645C78.6667 82.3513 78.7583 82.9924 78.9415 83.5877C79.1399 84.1677 79.4833 84.6409 79.9718 85.0072C80.4602 85.3735 81.1394 85.5567 82.0095 85.5567ZM91.5944 90.8685C91.1823 90.8685 90.7855 90.7845 90.4039 90.6166C90.0376 90.4487 89.7323 90.1892 89.4881 89.8382C89.2438 89.5024 89.1217 89.0902 89.1217 88.6018C89.1217 87.976 89.2973 87.4876 89.6483 87.1365C89.9994 86.8007 90.3886 86.6328 90.816 86.6328C91.0144 86.6328 91.1976 86.6862 91.3655 86.7931C91.5487 86.9152 91.6402 87.0907 91.6402 87.3197C91.6402 87.6097 91.541 87.8081 91.3426 87.9149C91.1442 88.0218 90.9457 88.0752 90.7473 88.0752C90.6099 88.0905 90.5031 88.1515 90.4268 88.2584C90.3657 88.3805 90.3352 88.495 90.3352 88.6018C90.3352 88.8613 90.4726 89.0902 90.7473 89.2887C91.0373 89.5024 91.4037 89.6092 91.8463 89.6092C92.1058 89.6092 92.3653 89.5405 92.6247 89.4032C92.8842 89.281 93.1132 89.1284 93.3116 88.9452C93.5558 88.7316 93.7695 88.4568 93.9527 88.121C94.1511 87.7852 94.3495 87.396 94.548 86.9533L90.0833 78.8254C89.9307 78.5507 89.7781 78.3828 89.6254 78.3217C89.4728 78.2454 89.2133 78.2073 88.847 78.2073C88.557 78.192 88.2975 78.1767 88.0685 78.1615C87.8548 78.1462 87.6717 78.1233 87.519 78.0928C87.2138 78.047 87.0611 77.8943 87.0611 77.6349C87.0611 77.3601 87.1985 77.1693 87.4733 77.0625C87.7633 76.9404 88.0914 76.8793 88.4578 76.8793H91.915C92.3118 76.8793 92.5637 76.9404 92.6705 77.0625C92.7926 77.1693 92.8537 77.3143 92.8537 77.4975C92.8537 77.6654 92.8003 77.818 92.6934 77.9554C92.5866 78.0928 92.3805 78.1615 92.0753 78.1615C91.9989 78.1615 91.9302 78.1767 91.8692 78.2073C91.8234 78.2225 91.8005 78.3065 91.8005 78.4591C91.8005 78.5049 91.8158 78.6041 91.8463 78.7567C91.8768 78.8941 91.9302 79.0391 92.0066 79.1918L95.1661 85.1217L96.8833 79.8099C97.0054 79.4436 97.0665 79.1536 97.0665 78.9399C97.0665 78.8025 97.0207 78.7033 96.9291 78.6423C96.8223 78.5812 96.5857 78.5507 96.2193 78.5507C95.853 78.5507 95.5859 78.4896 95.418 78.3675C95.2654 78.2301 95.189 78.0775 95.189 77.9096C95.189 77.6501 95.2348 77.4822 95.3264 77.4059C95.4333 77.3143 95.6622 77.2685 96.0133 77.2685H99.8597C100.196 77.2685 100.486 77.3143 100.73 77.4059C100.989 77.4975 101.119 77.6654 101.119 77.9096C101.119 78.1691 100.982 78.337 100.707 78.4133C100.447 78.4896 100.165 78.5354 99.8597 78.5507C99.4934 78.5659 99.2492 78.6041 99.1271 78.6652C99.005 78.711 98.8981 78.856 98.8065 79.1002L96.4712 85.6712C96.1812 86.4954 95.8912 87.2128 95.6012 87.8234C95.3264 88.4339 95.0059 88.9529 94.6395 89.3803C93.7848 90.3724 92.7698 90.8685 91.5944 90.8685Z" fill="#FA679B"/>
<path d="M29.4914 111.363V96.9622H34.5259C35.5291 96.9622 36.3564 97.1356 37.008 97.4825C37.6596 97.8247 38.1448 98.2864 38.4635 98.8677C38.7823 99.4443 38.9417 100.084 38.9417 100.787C38.9417 101.406 38.8315 101.917 38.6112 102.32C38.3956 102.723 38.1096 103.042 37.7534 103.276C37.4018 103.511 37.0197 103.684 36.6072 103.797V103.937C37.0479 103.966 37.4909 104.12 37.9362 104.401C38.3815 104.683 38.7542 105.086 39.0542 105.611C39.3542 106.136 39.5042 106.778 39.5042 107.538C39.5042 108.259 39.3401 108.909 39.012 109.485C38.6839 110.062 38.1659 110.519 37.458 110.856C36.7502 111.194 35.8291 111.363 34.6947 111.363H29.4914ZM31.2352 109.816H34.6947C35.8338 109.816 36.6424 109.595 37.1205 109.155C37.6034 108.709 37.8448 108.17 37.8448 107.538C37.8448 107.05 37.7206 106.6 37.4721 106.187C37.2237 105.77 36.8697 105.437 36.4104 105.189C35.951 104.936 35.4072 104.809 34.779 104.809H31.2352V109.816ZM31.2352 103.291H34.4697C34.9947 103.291 35.4681 103.187 35.89 102.981C36.3166 102.775 36.6541 102.484 36.9026 102.109C37.1557 101.734 37.2823 101.294 37.2823 100.787C37.2823 100.154 37.0619 99.6177 36.6213 99.1771C36.1807 98.7318 35.4822 98.5091 34.5259 98.5091H31.2352V103.291ZM42.1445 111.363V100.562H43.804V111.363H42.1445ZM42.9883 98.7622C42.6649 98.7622 42.3859 98.6521 42.1516 98.4318C41.9219 98.2114 41.807 97.9466 41.807 97.6372C41.807 97.3278 41.9219 97.063 42.1516 96.8426C42.3859 96.6223 42.6649 96.5122 42.9883 96.5122C43.3118 96.5122 43.5883 96.6223 43.818 96.8426C44.0524 97.063 44.1696 97.3278 44.1696 97.6372C44.1696 97.9466 44.0524 98.2114 43.818 98.4318C43.5883 98.6521 43.3118 98.7622 42.9883 98.7622ZM46.8433 111.363V100.562H48.4465V102.194H48.559C48.7559 101.659 49.1122 101.226 49.6278 100.893C50.1434 100.56 50.7247 100.394 51.3716 100.394C51.4935 100.394 51.6458 100.396 51.8287 100.401C52.0115 100.405 52.1498 100.412 52.2435 100.422V102.109C52.1873 102.095 52.0583 102.074 51.8568 102.046C51.6599 102.013 51.4513 101.997 51.231 101.997C50.706 101.997 50.2372 102.107 49.8247 102.327C49.4169 102.543 49.0934 102.843 48.8543 103.227C48.6199 103.607 48.5028 104.041 48.5028 104.528V111.363H46.8433ZM59.5844 100.562V101.969H53.9873V100.562H59.5844ZM55.6186 97.9747H57.2781V108.269C57.2781 108.738 57.346 109.089 57.482 109.324C57.6226 109.553 57.8007 109.708 58.0164 109.788C58.2367 109.863 58.4687 109.9 58.7125 109.9C58.8953 109.9 59.0453 109.891 59.1625 109.872C59.2797 109.849 59.3734 109.83 59.4438 109.816L59.7813 111.306C59.6688 111.349 59.5117 111.391 59.3102 111.433C59.1086 111.48 58.8531 111.503 58.5437 111.503C58.075 111.503 57.6156 111.403 57.1655 111.201C56.7202 110.999 56.3499 110.692 56.0546 110.28C55.7639 109.867 55.6186 109.347 55.6186 108.719V97.9747ZM63.972 104.866V111.363H62.3126V96.9622H63.972V102.25H64.1127C64.3658 101.692 64.7455 101.249 65.2518 100.921C65.7627 100.588 66.4424 100.422 67.2909 100.422C68.0269 100.422 68.6714 100.569 69.2246 100.865C69.7777 101.155 70.2066 101.603 70.5113 102.208C70.8207 102.808 70.9754 103.572 70.9754 104.5V111.363H69.316V104.612C69.316 103.755 69.0933 103.091 68.648 102.623C68.2073 102.149 67.5956 101.912 66.8128 101.912C66.269 101.912 65.7815 102.027 65.3502 102.257C64.9236 102.487 64.5861 102.822 64.3377 103.262C64.0939 103.703 63.972 104.237 63.972 104.866ZM78.0895 111.588C77.1895 111.588 76.3949 111.36 75.7058 110.906C75.0167 110.446 74.4777 109.799 74.0886 108.965C73.6995 108.126 73.505 107.134 73.505 105.991C73.505 104.856 73.6995 103.872 74.0886 103.037C74.4777 102.203 75.0191 101.558 75.7129 101.104C76.4066 100.649 77.2082 100.422 78.1176 100.422C78.8208 100.422 79.3763 100.539 79.7841 100.773C80.1966 101.003 80.5107 101.265 80.7263 101.561C80.9466 101.851 81.1177 102.09 81.2396 102.278H81.3802V96.9622H83.0397V111.363H81.4365V109.703H81.2396C81.1177 109.9 80.9443 110.149 80.7193 110.449C80.4943 110.744 80.1732 111.009 79.756 111.243C79.3388 111.473 78.7833 111.588 78.0895 111.588ZM78.3145 110.097C78.9802 110.097 79.5427 109.924 80.0021 109.577C80.4615 109.225 80.8107 108.74 81.0498 108.121C81.2888 107.498 81.4084 106.778 81.4084 105.962C81.4084 105.156 81.2912 104.451 81.0568 103.846C80.8224 103.237 80.4755 102.763 80.0161 102.426C79.5567 102.083 78.9895 101.912 78.3145 101.912C77.6114 101.912 77.0254 102.093 76.5566 102.454C76.0926 102.81 75.7433 103.295 75.5089 103.909C75.2793 104.519 75.1644 105.203 75.1644 105.962C75.1644 106.731 75.2816 107.43 75.516 108.058C75.7551 108.681 76.1066 109.178 76.5707 109.549C77.0395 109.914 77.6207 110.097 78.3145 110.097ZM89.4875 111.616C88.8031 111.616 88.182 111.487 87.6242 111.229C87.0664 110.967 86.6234 110.589 86.2953 110.097C85.9671 109.6 85.803 109 85.803 108.297C85.803 107.678 85.9249 107.177 86.1687 106.792C86.4124 106.403 86.7382 106.098 87.1461 105.878C87.5539 105.658 88.0039 105.494 88.4961 105.386C88.993 105.273 89.4922 105.184 89.9938 105.119C90.6501 105.034 91.1821 104.971 91.59 104.929C92.0025 104.882 92.3025 104.805 92.49 104.697C92.6822 104.589 92.7783 104.401 92.7783 104.134V104.078C92.7783 103.384 92.5884 102.845 92.2087 102.461C91.8337 102.076 91.2642 101.884 90.5001 101.884C89.7079 101.884 89.0868 102.058 88.6367 102.405C88.1867 102.751 87.8703 103.122 87.6875 103.516L86.1124 102.953C86.3937 102.297 86.7687 101.786 87.2375 101.42C87.7109 101.05 88.2266 100.792 88.7844 100.647C89.3469 100.497 89.9001 100.422 90.4438 100.422C90.7907 100.422 91.1892 100.464 91.6392 100.548C92.0939 100.628 92.5322 100.794 92.9541 101.047C93.3806 101.301 93.7346 101.683 94.0158 102.194C94.2971 102.705 94.4377 103.389 94.4377 104.247V111.363H92.7783V109.9H92.6939C92.5814 110.135 92.3939 110.385 92.1314 110.652C91.8689 110.92 91.5196 111.147 91.0837 111.335C90.6477 111.522 90.1157 111.616 89.4875 111.616ZM89.7407 110.125C90.397 110.125 90.9501 109.996 91.4001 109.738C91.8548 109.481 92.197 109.148 92.4267 108.74C92.6611 108.332 92.7783 107.903 92.7783 107.453V105.934C92.708 106.019 92.5533 106.096 92.3142 106.166C92.0798 106.232 91.8079 106.291 91.4986 106.342C91.1939 106.389 90.8962 106.431 90.6056 106.469C90.3196 106.502 90.0876 106.53 89.9094 106.553C89.4782 106.609 89.075 106.701 88.7 106.827C88.3297 106.949 88.0297 107.134 87.8 107.383C87.575 107.627 87.4625 107.959 87.4625 108.381C87.4625 108.958 87.6758 109.394 88.1023 109.689C88.5336 109.98 89.0797 110.125 89.7407 110.125ZM98.1486 115.413C97.8673 115.413 97.6165 115.389 97.3962 115.342C97.1759 115.3 97.0235 115.258 96.9392 115.216L97.3611 113.753C97.7642 113.857 98.1205 113.894 98.4298 113.866C98.7392 113.838 99.0135 113.699 99.2525 113.451C99.4963 113.207 99.719 112.811 99.9205 112.263L100.23 111.419L96.236 100.562H98.0361L101.017 109.169H101.13L104.111 100.562H105.911L101.327 112.938C101.121 113.496 100.865 113.957 100.56 114.323C100.256 114.693 99.9018 114.967 99.4986 115.146C99.1002 115.324 98.6502 115.413 98.1486 115.413ZM110.295 96.9622L110.155 107.313H108.524L108.383 96.9622H110.295ZM109.339 111.475C108.992 111.475 108.695 111.351 108.446 111.103C108.198 110.854 108.074 110.556 108.074 110.21C108.074 109.863 108.198 109.565 108.446 109.317C108.695 109.068 108.992 108.944 109.339 108.944C109.686 108.944 109.984 109.068 110.232 109.317C110.481 109.565 110.605 109.863 110.605 110.21C110.605 110.439 110.546 110.65 110.429 110.842C110.317 111.035 110.164 111.189 109.972 111.306C109.785 111.419 109.574 111.475 109.339 111.475Z" fill="#452424"/>
<path d="M66.4165 154.846L67.6375 191.85C67.6375 191.85 70.8875 189.6 70.6375 188.85C70.3875 188.1 68.1665 152.846 68.1665 152.846L66.4165 154.846Z" fill="#FA679B"/>
<path d="M66.1665 148.596L59.5005 158.346L76.8335 157.68L69.1665 148.096L66.1665 148.596Z" fill="#FFFAED"/>
<path d="M85.3873 190.35C59.3873 157.1 117.387 90.599 149.387 148.6C158.721 163.933 143.666 188.347 143.666 188.347" fill="#FA679B"/>
</g>
</g>
<defs>
<clipPath id="clip0_16_29327">
<rect x="0.666504" width="134.002" height="187" rx="8" fill="white"/>
</clipPath>
</defs>
</svg>
