<svg width="135" height="188" viewBox="0 0 135 188" fill="none" xmlns="http://www.w3.org/2000/svg">
<g clip-path="url(#clip0_16_29329)">
<path d="M134.227 0.0999756H0.227051V187.099H134.227V0.0999756Z" fill="#FA679B"/>
<path d="M21.6142 78.664C2.94725 65.664 19.6973 45.663 32.6973 47.997C22.0303 27.664 51.2813 20.331 57.2813 30.664C62.6143 2.66398 93.9473 14.998 90.9473 29.664C108.447 22.247 116.947 41.331 110.281 54.331C127.947 49.997 134.697 77.997 119.947 82.247C140.281 92.914 126.197 112.747 115.947 112.33C130.614 121.664 115.614 139.33 108.614 139.997C117.947 154.997 98.1973 166.747 89.2813 154.664C82.6143 176.664 55.6143 168.33 56.6143 150.997C34.4473 164.497 10.4472 140.247 30.6142 118.664C17.9472 121.33 1.61425 89.997 21.6142 78.664Z" fill="#FFFAED"/>
<path d="M29.4967 88.951V68.664L31.9237 68.2832V77.3172L42.61 75.6403V66.6063L45.0369 66.2255V86.5124L42.61 86.8932V77.8196L31.9237 79.4965V88.5701L29.4967 88.951ZM54.0057 85.4616C53.0532 85.6111 52.1888 85.5652 51.4125 85.3238C50.6361 85.0758 50.0196 84.6409 49.5629 84.0192C49.1062 83.3908 48.8779 82.5814 48.8779 81.5908C48.8779 80.7191 49.0475 79.9859 49.3868 79.3911C49.726 78.7898 50.1794 78.2894 50.747 77.8899C51.3146 77.4905 51.9409 77.1611 52.6259 76.9017C53.3175 76.6347 54.0123 76.4002 54.7103 76.1982C55.6237 75.936 56.3642 75.7306 56.9317 75.5821C57.5059 75.426 57.9234 75.2515 58.1844 75.0587C58.4518 74.8648 58.5856 74.5797 58.5856 74.2033V74.124C58.5856 73.1467 58.3214 72.4287 57.7929 71.9701C57.271 71.5105 56.4783 71.3641 55.4149 71.531C54.3124 71.704 53.4479 72.084 52.8216 72.6709C52.1953 73.2579 51.755 73.8487 51.5005 74.4434L49.3085 73.9949C49.6999 73.0089 50.2218 72.2072 50.8742 71.5897C51.5331 70.9646 52.2508 70.4888 53.0271 70.1623C53.81 69.8281 54.5799 69.6016 55.3366 69.4829C55.8194 69.4071 56.3739 69.3795 57.0003 69.4001C57.6331 69.4131 58.2431 69.5518 58.8302 69.8163C59.4239 70.0797 59.9165 70.5406 60.3079 71.199C60.6994 71.8574 60.8951 72.7909 60.8951 73.9994V84.024L58.5856 84.3864V82.326L58.4681 82.3444C58.3116 82.6992 58.0506 83.0934 57.6853 83.5272C57.3199 83.9609 56.8339 84.3575 56.2272 84.7168C55.6204 85.0762 54.88 85.3245 54.0057 85.4616ZM54.358 83.3063C55.2714 83.163 56.0412 82.8606 56.6675 82.3991C57.3004 81.9366 57.7766 81.393 58.0963 80.7683C58.4225 80.1426 58.5856 79.5128 58.5856 78.8788V76.7392C58.4877 76.8734 58.2724 77.0161 57.9397 77.1674C57.6135 77.311 57.2351 77.453 56.8045 77.5932C56.3805 77.7257 55.9662 77.8502 55.5617 77.9665C55.1637 78.0752 54.8408 78.1655 54.5929 78.2374C53.9927 78.4108 53.4316 78.6276 52.9097 78.8878C52.3943 79.1404 51.9768 79.4668 51.6571 79.8669C51.344 80.2595 51.1874 80.7529 51.1874 81.3473C51.1874 82.1595 51.4842 82.7271 52.0779 83.05C52.6781 83.3652 53.4382 83.4507 54.358 83.3063ZM65.1104 89.0682V68.1473L67.3416 67.7972V70.2142L67.6156 70.1712C67.7852 69.8804 68.0201 69.5068 68.3202 69.0502C68.6268 68.5861 69.0639 68.1477 69.6315 67.735C70.2056 67.3148 70.982 67.0278 71.9606 66.8743C73.2262 66.6757 74.3418 66.8209 75.3074 67.31C76.2729 67.799 77.0264 68.5888 77.5679 69.6793C78.1094 70.7698 78.3802 72.1141 78.3802 73.7123C78.3802 75.3236 78.1094 76.7628 77.5679 78.0298C77.0264 79.2903 76.2762 80.3193 75.3172 81.117C74.3581 81.9081 73.2523 82.4019 71.9997 82.5984C71.0342 82.7499 70.2611 82.7095 69.6804 82.477C69.0998 82.2379 68.6529 81.9349 68.3398 81.568C68.0266 81.1945 67.7852 80.8824 67.6156 80.6316L67.4199 80.6624V88.7058L65.1104 89.0682ZM67.3807 75.3987C67.3807 76.5477 67.5471 77.5353 67.8798 78.3614C68.2125 79.1809 68.6986 79.7881 69.3379 80.1831C69.9773 80.5714 70.7602 80.6929 71.6866 80.5476C72.6521 80.396 73.4578 80.0121 74.1037 79.3956C74.7561 78.7715 75.2454 77.9948 75.5716 77.0653C75.9043 76.1281 76.0707 75.1181 76.0707 74.035C76.0707 72.9652 75.9076 72.0267 75.5814 71.2193C75.2617 70.4044 74.7757 69.7972 74.1233 69.3977C73.4774 68.9905 72.6652 68.8637 71.6866 69.0173C70.7471 69.1647 69.9577 69.5296 69.3184 70.112C68.679 70.6878 68.1962 71.4306 67.87 72.3402C67.5438 73.2433 67.3807 74.2628 67.3807 75.3987ZM81.9031 86.4331V65.5122L84.1343 65.1621V67.5791L84.4083 67.5361C84.578 67.2453 84.8128 66.8717 85.1129 66.4151C85.4196 65.951 85.8567 65.5126 86.4243 65.0999C86.9984 64.6797 87.7747 64.3927 88.7533 64.2392C90.019 64.0406 91.1346 64.1858 92.1001 64.6749C93.0657 65.1639 93.8192 65.9537 94.3607 67.0442C94.9022 68.1347 95.1729 69.479 95.1729 71.0772C95.1729 72.6885 94.9022 74.1277 94.3607 75.3947C93.8192 76.6552 93.0689 77.6842 92.1099 78.4819C91.1509 79.273 90.0451 79.7668 88.7925 79.9633C87.8269 80.1148 87.0538 80.0744 86.4732 79.8419C85.8925 79.6028 85.4457 79.2998 85.1325 78.9329C84.8194 78.5594 84.578 78.2473 84.4083 77.9965L84.2126 78.0273V86.0707L81.9031 86.4331ZM84.1735 72.7636C84.1735 73.9126 84.3398 74.9002 84.6726 75.7263C85.0053 76.5458 85.4913 77.153 86.1307 77.548C86.77 77.9363 87.5529 78.0578 88.4793 77.9125C89.4449 77.7609 90.2506 77.377 90.8964 76.7605C91.5488 76.1364 92.0381 75.3597 92.3643 74.4302C92.6971 73.493 92.8634 72.483 92.8634 71.3999C92.8634 70.3301 92.7003 69.3916 92.3741 68.5842C92.0545 67.7693 91.5684 67.1621 90.916 66.7626C90.2701 66.3554 89.4579 66.2286 88.4793 66.3822C87.5399 66.5296 86.7505 66.8945 86.1111 67.4769C85.4717 68.0527 84.989 68.7955 84.6628 69.7051C84.3366 70.6082 84.1735 71.6277 84.1735 72.7636ZM99.6451 83.6491C99.2537 83.7105 98.9046 83.7322 98.598 83.7143C98.2914 83.703 98.0794 83.6768 97.9619 83.6358L98.5491 81.4833C99.1101 81.5405 99.606 81.5156 100.037 81.4084C100.467 81.3012 100.849 81.0465 101.182 80.6443C101.521 80.2476 101.831 79.641 102.111 78.8243L102.542 77.5681L96.9833 63.1458L99.4885 62.7527L103.638 74.2263L103.794 74.2017L107.944 61.426L110.449 61.0329L104.068 79.4682C103.781 80.2991 103.426 81.0053 103.002 81.587C102.578 82.1752 102.085 82.6388 101.524 82.9778C100.969 83.3158 100.343 83.5395 99.6451 83.6491Z" fill="#FBB03B"/>
<path d="M14.3737 113.173V92.8859L21.3805 91.7864C22.7766 91.5674 23.9281 91.631 24.8349 91.9774C25.7418 92.3172 26.417 92.8617 26.8606 93.611C27.3042 94.3536 27.5261 95.2202 27.5261 96.2108C27.5261 97.0825 27.3727 97.8264 27.0661 98.4424C26.766 99.0575 26.3681 99.569 25.8722 99.977C25.3829 100.384 24.8512 100.712 24.2771 100.96V101.158C24.8904 101.102 25.5069 101.223 26.1267 101.522C26.7464 101.821 27.2651 102.307 27.6826 102.982C28.1002 103.656 28.3089 104.528 28.3089 105.597C28.3089 106.614 28.0806 107.565 27.6239 108.449C27.1672 109.333 26.4463 110.09 25.4612 110.72C24.4761 111.35 23.1941 111.789 21.6153 112.037L14.3737 113.173ZM16.8006 110.613L21.6153 109.857C23.2007 109.609 24.326 109.122 24.9915 108.396C25.6635 107.664 25.9994 106.851 25.9994 105.96C25.9994 105.273 25.8266 104.666 25.4808 104.139C25.135 103.606 24.6425 103.214 24.0031 102.965C23.3638 102.708 22.607 102.649 21.7328 102.786L16.8006 103.56V110.613ZM16.8006 101.42L21.3022 100.714C22.0329 100.599 22.6918 100.351 23.2789 99.9678C23.8726 99.5841 24.3424 99.101 24.6881 98.5184C25.0404 97.9348 25.2166 97.2864 25.2166 96.5732C25.2166 95.6817 24.9099 94.9737 24.2967 94.4491C23.6834 93.918 22.7114 93.7569 21.3805 93.9657L16.8006 94.6844V101.42ZM31.9836 110.41V95.1944L34.2931 94.832V110.047L31.9836 110.41ZM33.1579 92.4742C32.7077 92.5449 32.3196 92.4506 31.9934 92.1914C31.6737 91.9312 31.5138 91.5831 31.5138 91.1473C31.5138 90.7114 31.6737 90.3132 31.9934 89.9527C32.3196 89.5911 32.7077 89.375 33.1579 89.3044C33.608 89.2337 33.993 89.3285 34.3126 89.5888C34.6388 89.8479 34.8019 90.1955 34.8019 90.6313C34.8019 91.0672 34.6388 91.4659 34.3126 91.8274C33.993 92.188 33.608 92.4036 33.1579 92.4742ZM38.5231 109.383V94.1682L40.7543 93.8181V96.1162L40.9108 96.0916C41.1848 95.2958 41.6807 94.6071 42.3983 94.0257C43.1159 93.4442 43.9249 93.0828 44.8252 92.9415C44.9949 92.9149 45.2069 92.8849 45.4613 92.8516C45.7158 92.8183 45.9082 92.798 46.0387 92.7907V95.1681C45.9604 95.1606 45.781 95.159 45.5005 95.1634C45.2265 95.1602 44.9361 95.1826 44.6295 95.2307C43.8988 95.3454 43.2464 95.603 42.6723 96.0034C42.1047 96.3963 41.6546 96.8896 41.3218 97.4833C40.9956 98.0694 40.8325 98.7058 40.8325 99.3926V109.021L38.5231 109.383ZM56.2553 91.3857V93.3668L48.4656 94.5892V92.608L56.2553 91.3857ZM50.736 88.6064L53.0455 88.244V102.746C53.0455 103.406 53.1401 103.887 53.3292 104.187C53.525 104.48 53.7729 104.659 54.073 104.724C54.3796 104.782 54.7025 104.784 55.0418 104.731C55.2962 104.691 55.505 104.645 55.6681 104.593C55.8312 104.534 55.9617 104.488 56.0595 104.452L56.5293 106.479C56.3727 106.563 56.1541 106.656 55.8736 106.76C55.5931 106.87 55.2375 106.959 54.8069 107.026C54.1545 107.129 53.5152 107.087 52.8889 106.901C52.2691 106.715 51.7537 106.363 51.3427 105.846C50.9382 105.329 50.736 104.627 50.736 103.742V88.6064ZM62.3617 96.4898V105.643L60.0522 106.005V85.7181L62.3617 85.3557V92.8048L62.5574 92.7741C62.9097 91.933 63.4382 91.226 64.1428 90.6532C64.8539 90.0727 65.7999 89.6898 66.9807 89.5045C68.005 89.3438 68.902 89.4111 69.6718 89.7063C70.4417 89.9949 71.0386 90.5319 71.4627 91.3173C71.8933 92.095 72.1085 93.1377 72.1085 94.4452V104.113L69.7991 104.476V94.9661C69.7991 93.7576 69.4892 92.8718 68.8694 92.3087C68.2561 91.7379 67.4048 91.538 66.3152 91.709C65.5585 91.8277 64.88 92.096 64.2798 92.5138C63.6861 92.9305 63.2164 93.4764 62.8706 94.1514C62.5313 94.8254 62.3617 95.6049 62.3617 96.4898ZM82.0095 102.877C80.7569 103.073 79.6511 102.926 78.6921 102.436C77.733 101.94 76.9828 101.146 76.4413 100.055C75.8998 98.9583 75.6291 97.6041 75.6291 95.9928C75.6291 94.3947 75.8998 92.9654 76.4413 91.7049C76.9828 90.4445 77.7363 89.4182 78.7019 88.6261C79.6674 87.834 80.783 87.3387 82.0487 87.1401C83.0273 86.9865 83.8004 87.0303 84.3679 87.2714C84.942 87.5049 85.3792 87.8062 85.6793 88.1751C85.9859 88.5364 86.224 88.8359 86.3936 89.0734L86.5894 89.0427V81.554L88.8988 81.1916V101.478L86.6676 101.829V99.4909L86.3936 99.5339C86.224 99.8378 85.9826 100.226 85.6695 100.697C85.3563 101.163 84.9094 101.606 84.3288 102.027C83.7482 102.442 82.9751 102.725 82.0095 102.877ZM82.3227 100.727C83.2491 100.582 84.032 100.215 84.6713 99.6258C85.3107 99.0302 85.7967 98.2704 86.1294 97.3465C86.4621 96.416 86.6285 95.3762 86.6285 94.2272C86.6285 93.0913 86.4654 92.123 86.1392 91.3223C85.813 90.515 85.3302 89.9238 84.6909 89.5486C84.0515 89.1669 83.2621 89.0497 82.3227 89.1971C81.3441 89.3507 80.5286 89.7329 79.8762 90.3438C79.2303 90.947 78.7443 91.7068 78.4181 92.623C78.0984 93.5317 77.9385 94.5209 77.9385 95.5908C77.9385 96.6738 78.1016 97.6322 78.4278 98.4659C78.7606 99.292 79.2499 99.9152 79.8957 100.336C80.5481 100.748 81.3571 100.879 82.3227 100.727ZM97.8726 100.427C96.9201 100.576 96.0557 100.53 95.2793 100.289C94.503 100.041 93.8864 99.6062 93.4298 98.9845C92.9731 98.3561 92.7447 97.5467 92.7447 96.5561C92.7447 95.6844 92.9144 94.9512 93.2536 94.3564C93.5929 93.7551 94.0463 93.2547 94.6139 92.8552C95.1814 92.4558 95.8078 92.1264 96.4928 91.867C97.1843 91.6 97.8791 91.3655 98.5772 91.1635C99.4905 90.9013 100.231 90.696 100.799 90.5475C101.373 90.3913 101.79 90.2168 102.051 90.024C102.319 89.8301 102.452 89.545 102.452 89.1686V89.0893C102.452 88.112 102.188 87.394 101.66 86.9354C101.138 86.4758 100.345 86.3294 99.2818 86.4963C98.1792 86.6693 97.3148 87.0493 96.6885 87.6362C96.0622 88.2232 95.6218 88.814 95.3674 89.4087L93.1753 88.9602C93.5668 87.9742 94.0887 87.1725 94.7411 86.555C95.4 85.9299 96.1176 85.4541 96.894 85.1276C97.6769 84.7934 98.4467 84.5669 99.2035 84.4482C99.6863 84.3724 100.241 84.3448 100.867 84.3654C101.5 84.3784 102.11 84.5171 102.697 84.7816C103.291 85.045 103.783 85.5059 104.175 86.1643C104.566 86.8227 104.762 87.7562 104.762 88.9647V98.9893L102.452 99.3517V97.2913L102.335 97.3097C102.178 97.6645 101.917 98.0587 101.552 98.4925C101.187 98.9262 100.701 99.3228 100.094 99.6821C99.4873 100.041 98.7468 100.29 97.8726 100.427ZM98.2249 98.2717C99.1382 98.1283 99.9081 97.8259 100.534 97.3644C101.167 96.9019 101.643 96.3583 101.963 95.7336C102.289 95.1079 102.452 94.4781 102.452 93.8441V91.7045C102.355 91.8387 102.139 91.9814 101.807 92.1327C101.48 92.2763 101.102 92.4183 100.671 92.5585C100.247 92.691 99.8331 92.8155 99.4286 92.9318C99.0306 93.0405 98.7077 93.1308 98.4598 93.2027C97.8595 93.3761 97.2985 93.5929 96.7766 93.8531C96.2612 94.1057 95.8436 94.4321 95.524 94.8322C95.2108 95.2248 95.0542 95.7182 95.0542 96.3126C95.0542 97.1248 95.3511 97.6924 95.9448 98.0153C96.545 98.3305 97.305 98.416 98.2249 98.2717ZM109.926 103.885C109.535 103.946 109.186 103.968 108.879 103.95C108.573 103.938 108.361 103.912 108.243 103.871L108.83 101.719C109.392 101.776 109.887 101.751 110.318 101.644C110.748 101.537 111.13 101.282 111.463 100.88C111.802 100.483 112.112 99.8765 112.393 99.0598L112.823 97.8036L107.265 83.3813L109.77 82.9882L113.919 94.4617L114.076 94.4372L118.225 81.6615L120.73 81.2684L114.35 99.7037C114.063 100.535 113.707 101.241 113.283 101.822C112.859 102.411 112.366 102.874 111.805 103.213C111.251 103.551 110.625 103.775 109.926 103.885ZM126.832 75.2392L126.636 89.8511L124.366 90.2074L124.17 75.6569L126.832 75.2392ZM125.501 95.8934C125.018 95.9692 124.604 95.8592 124.258 95.5635C123.912 95.2677 123.739 94.8755 123.739 94.3868C123.739 93.8981 123.912 93.4517 124.258 93.0474C124.604 92.6431 125.018 92.4031 125.501 92.3274C125.984 92.2516 126.398 92.3616 126.744 92.6574C127.089 92.9531 127.262 93.3453 127.262 93.834C127.262 94.1576 127.181 94.4676 127.018 94.7639C126.861 95.0592 126.649 95.3104 126.382 95.5175C126.121 95.7169 125.827 95.8423 125.501 95.8934Z" fill="#452424"/>
<path d="M20.8789 14.018C16.9449 14.955 18.8189 20.202 22.3789 19.078C26.5349 17.765 24.4189 13.175 20.8789 14.018Z" fill="#FFFAED"/>
<path d="M41.5291 138.314C37.9231 139.173 39.64 143.981 42.902 142.951C46.712 141.749 44.7731 137.542 41.5291 138.314Z" fill="#FBB03B"/>
<path d="M76.2791 27.314C72.6731 28.173 74.39 32.981 77.652 31.951C81.462 30.748 79.5231 26.542 76.2791 27.314Z" fill="#FA679B"/>
<path d="M120.779 158.064C117.173 158.923 118.89 163.731 122.152 162.701C125.962 161.499 124.023 157.292 120.779 158.064Z" fill="#FBB03B"/>
<path d="M12.701 148.852C12.037 146.241 8.56196 147.544 9.34796 149.902C10.265 152.656 13.299 151.2 12.701 148.852Z" fill="#FFFAED"/>
<path d="M22.5291 165.064C18.9231 165.923 20.64 170.731 23.902 169.701C27.712 168.499 25.7731 164.292 22.5291 165.064Z" fill="#452424"/>
<path d="M55.5291 171.814C51.9231 172.673 53.64 177.481 56.902 176.451C60.712 175.249 58.7731 171.042 55.5291 171.814Z" fill="#9AE6D7"/>
<path d="M81.0291 146.064C77.4231 146.923 79.14 151.731 82.402 150.701C86.212 149.499 84.2731 145.292 81.0291 146.064Z" fill="#FA679B"/>
<path d="M109.529 123.814C105.923 124.673 107.64 129.481 110.902 128.451C114.712 127.249 112.773 123.042 109.529 123.814Z" fill="#FBB03B"/>
<path d="M100.396 38.887C96.1319 39.902 98.1629 45.588 102.02 44.369C106.523 42.947 104.231 37.974 100.396 38.887Z" fill="#9AE6D7"/>
<path d="M122.646 28.137C118.382 29.152 120.413 34.838 124.27 33.619C128.773 32.197 126.481 27.224 122.646 28.137Z" fill="#FBB03B"/>
<path d="M38.5948 35.7779C35.3168 36.5579 36.8778 40.9289 39.8428 39.9929C43.3048 38.8989 41.5428 35.0759 38.5948 35.7779Z" fill="#452424"/>
<path d="M7.17716 77.378C4.30916 78.061 5.67515 81.886 8.27015 81.067C11.3002 80.109 9.75716 76.764 7.17716 77.378Z" fill="#452424"/>
<path d="M10.4292 36.0279C7.15022 36.8079 8.71223 41.1789 11.6772 40.2429C15.1382 39.1489 13.3772 35.3259 10.4292 36.0279Z" fill="#FBB03B"/>
<path d="M125.595 136.028C122.317 136.808 123.878 141.179 126.843 140.243C130.305 139.149 128.543 135.326 125.595 136.028Z" fill="#452424"/>
<path d="M105.923 10.389C103.824 13.026 107.749 15.503 109.505 12.937C111.554 9.94003 107.81 8.01903 105.923 10.389Z" fill="#452424"/>
<path d="M98.1729 171.639C96.0739 174.276 99.9989 176.753 101.755 174.187C103.804 171.19 100.06 169.269 98.1729 171.639Z" fill="#452424"/>
<path d="M12.8959 124.887C8.63192 125.902 10.6629 131.588 14.5199 130.369C19.0229 128.947 16.7309 123.974 12.8959 124.887Z" fill="#9AE6D7"/>
<path d="M51.4468 9.99702C47.4858 9.06502 46.9468 13.997 50.1968 14.497C53.4468 14.997 55.6968 10.997 51.4468 9.99702Z" fill="#9AE6D7"/>
</g>
<defs>
<clipPath id="clip0_16_29329">
<rect x="0.227051" y="0.0999756" width="134" height="186.999" rx="8" fill="white"/>
</clipPath>
</defs>
</svg>
