<svg width="135" height="188" viewBox="0 0 135 188" fill="none" xmlns="http://www.w3.org/2000/svg">
<g clip-path="url(#clip0_16_29328)">
<path d="M134.667 0.899902H0.666504V187.9H134.667V0.899902Z" fill="#452424"/>
<mask id="mask0_16_29328" style="mask-type:luminance" maskUnits="userSpaceOnUse" x="0" y="0" width="135" height="188">
<path d="M134.667 0.899902H0.666504V187.9H134.667V0.899902Z" fill="white"/>
</mask>
<g mask="url(#mask0_16_29328)">
<path d="M17.2398 38.4215C16.9986 38.4215 16.7574 38.387 16.5161 38.3181C16.2921 38.2664 16.1801 38.1027 16.1801 37.827C16.1801 37.5685 16.2663 37.3962 16.4386 37.31C16.6109 37.2239 16.7746 37.1808 16.9297 37.1808C17.0848 37.1808 17.2485 37.1636 17.4208 37.1291C17.5931 37.1119 17.7396 37.0171 17.8602 36.8448C17.998 36.6725 18.067 36.3882 18.067 35.9918V27.0228C17.7913 27.0228 17.5156 27.0228 17.2398 27.0228C16.9814 27.0228 16.7143 27.0142 16.4386 26.997C16.2146 26.997 15.9819 26.997 15.7407 26.997C15.4995 26.997 15.2582 26.9884 15.017 26.9711H13.6729C12.7941 26.9711 11.9153 26.9797 11.0365 26.997C10.1577 26.997 9.27888 27.0056 8.40007 27.0228V35.6817H10.8814C11.2088 35.6817 11.4414 35.742 11.5793 35.8626C11.7171 35.9832 11.7861 36.1297 11.7861 36.302C11.7861 36.5949 11.7171 36.7845 11.5793 36.8706C11.4587 36.9568 11.3122 36.9999 11.1399 36.9999H5.40178C5.16054 36.9999 4.9193 36.9568 4.67806 36.8706C4.45405 36.7845 4.34204 36.5949 4.34204 36.302C4.34204 36.0608 4.4282 35.9143 4.60052 35.8626C4.77283 35.7937 4.93653 35.7592 5.09162 35.7592C5.28116 35.7592 5.47932 35.742 5.6861 35.7075C5.89288 35.673 6.07381 35.5783 6.2289 35.4232C6.38398 35.2509 6.46152 34.9666 6.46152 34.5702C6.46152 33.9154 6.46152 33.2606 6.46152 32.6058C6.47875 31.951 6.49599 31.3049 6.51322 30.6673C6.53045 30.0297 6.53906 29.3749 6.53906 28.7029C6.5563 28.0309 6.56491 27.3416 6.56491 26.6351C6.56491 25.9286 6.5563 25.2049 6.53906 24.4639C6.53906 23.7057 6.53045 22.9303 6.51322 22.1377C6.49599 21.345 6.47875 20.5782 6.46152 19.8373C6.46152 19.0963 6.46152 18.3726 6.46152 17.6661C6.46152 17.4765 6.36675 17.3387 6.1772 17.2525C6.00489 17.1664 5.79811 17.1147 5.55687 17.0975C5.31562 17.0802 5.10023 17.0716 4.91068 17.0716C4.72114 17.0716 4.51436 17.0285 4.29035 16.9424C4.06634 16.8562 3.95433 16.6839 3.95433 16.4254C3.95433 16.1153 4.07495 15.9343 4.3162 15.8826C4.55744 15.8137 4.7556 15.7792 4.91068 15.7792H9.87337C10.4075 15.7792 10.7866 15.8223 11.0106 15.9085C11.2174 16.0119 11.3208 16.1842 11.3208 16.4254C11.3208 16.7011 11.1916 16.8821 10.9331 16.9682C10.6746 17.0371 10.442 17.0716 10.2352 17.0716C10.0801 17.0716 9.85613 17.0802 9.5632 17.0975C9.27026 17.1147 9.00317 17.175 8.76193 17.2784C8.52069 17.3645 8.40007 17.511 8.40007 17.7178V25.2652C8.84809 25.2824 9.28749 25.2997 9.71828 25.3169C10.1663 25.3169 10.6057 25.3169 11.0365 25.3169H13.6729C15.2065 25.3169 16.3352 25.3083 17.0589 25.2911C17.7826 25.2738 18.0928 25.2652 17.9894 25.2652V18.028C17.9894 17.735 17.8343 17.5627 17.5242 17.511C17.214 17.4593 16.9383 17.4335 16.6971 17.4335C16.5075 17.4335 16.3007 17.3904 16.0767 17.3042C15.8527 17.2008 15.7407 17.0285 15.7407 16.7873C15.7407 16.5288 15.8613 16.3565 16.1026 16.2703C16.3438 16.1842 16.542 16.1411 16.6971 16.1411H21.6597C22.1939 16.1411 22.573 16.1842 22.797 16.2703C23.0038 16.3393 23.1072 16.5116 23.1072 16.7873C23.1072 17.0802 22.9779 17.2612 22.7195 17.3301C22.461 17.399 22.2284 17.4335 22.0216 17.4335C21.8665 17.4335 21.6167 17.4421 21.272 17.4593C20.9446 17.4765 20.6345 17.5369 20.3415 17.6403C20.0658 17.7264 19.928 17.8729 19.928 18.0797C19.928 18.8551 19.9193 19.7425 19.9021 20.7419C19.9021 21.7241 19.8935 22.7322 19.8763 23.7661C19.8763 24.7827 19.8763 25.7391 19.8763 26.6351C19.8763 28.2204 19.8935 29.7454 19.928 31.2101C19.9797 32.6575 20.0227 33.9068 20.0572 34.9579C20.1089 36.0091 20.1347 36.7242 20.1347 37.1033H22.6161C22.8056 37.1033 23.0038 37.1463 23.2106 37.2325C23.4174 37.3359 23.5207 37.5341 23.5207 37.827C23.5207 38.0682 23.4518 38.2233 23.314 38.2922C23.1933 38.3784 23.0469 38.4215 22.8746 38.4215H17.2398ZM28.0685 37.2842C26.8622 37.2842 25.8973 37.0085 25.1736 36.4571C24.4671 35.9057 24.1138 35.1647 24.1138 34.2342C24.1138 33.2348 24.5015 32.3991 25.2769 31.727C26.0696 31.055 27.1207 30.719 28.4303 30.719C29.7744 30.719 30.9806 31.1153 32.0489 31.908V31.2101C32.0489 31.1239 32.0489 31.0292 32.0489 30.9258C32.0489 30.8224 32.0576 30.7276 32.0748 30.6414V30.2537C32.0748 29.1165 31.8335 28.229 31.3511 27.5915C30.8858 26.9367 30.1362 26.6093 29.1023 26.6093C28.7749 26.6093 28.3872 26.661 27.9392 26.7643C27.5084 26.8505 27.1293 26.997 26.8019 27.2038C26.4918 27.3933 26.3367 27.6345 26.3367 27.9275C26.3367 28.0653 26.3798 28.1601 26.4659 28.2118C26.5521 28.2463 26.6813 28.2807 26.8536 28.3152C26.9742 28.3324 27.1121 28.4013 27.2672 28.522C27.4223 28.6426 27.4998 28.8407 27.4998 29.1165C27.4998 29.4094 27.3964 29.642 27.1896 29.8143C26.9829 29.9694 26.7072 30.047 26.3625 30.047C25.8284 30.047 25.4493 29.8574 25.2252 29.4783C25.0012 29.0992 24.8892 28.6857 24.8892 28.2376C24.8892 27.3071 25.2856 26.549 26.0782 25.9631C26.8709 25.36 27.9478 25.0584 29.3091 25.0584C32.3591 25.0584 33.8841 26.7385 33.8841 30.0986C33.8841 30.1159 33.8755 30.3485 33.8582 30.7965C33.8582 31.2273 33.8496 31.727 33.8324 32.2957C33.8152 32.8643 33.8066 33.3726 33.8066 33.8207C33.8066 34.6478 33.841 35.1647 33.9099 35.3715C33.9961 35.6127 34.1512 35.7334 34.3752 35.7334C34.5647 35.7334 34.6854 35.673 34.7371 35.5524C34.806 35.4318 34.8577 35.2595 34.8921 35.0355C34.9094 34.9321 34.9697 34.8115 35.0731 34.6736C35.1765 34.5358 35.3488 34.4668 35.59 34.4668C35.814 34.4668 35.9605 34.553 36.0294 34.7253C36.0983 34.8976 36.1328 35.0958 36.1328 35.3198C36.1328 36.0091 35.926 36.5088 35.5125 36.8189C35.1161 37.1291 34.6595 37.2842 34.1426 37.2842C33.6773 37.2842 33.2551 37.1722 32.876 36.9482C32.5142 36.7069 32.2557 36.3106 32.1006 35.7592C31.5492 36.2589 30.9375 36.638 30.2655 36.8965C29.6107 37.155 28.8783 37.2842 28.0685 37.2842ZM28.6629 35.7334C29.5762 35.7334 30.3689 35.561 31.0409 35.2164C31.7129 34.8718 32.0489 34.4496 32.0489 33.9499C32.0489 33.4502 31.756 33.0452 31.1701 32.7351C30.5843 32.4249 29.8864 32.2698 29.0765 32.2698C28.2149 32.2698 27.474 32.4508 26.8536 32.8126C26.2505 33.1745 25.949 33.6397 25.949 34.2084C25.949 34.7253 26.2161 35.113 26.7502 35.3715C27.2844 35.6127 27.922 35.7334 28.6629 35.7334ZM36.7731 42.221C36.6697 42.221 36.5233 42.1952 36.3337 42.1435C36.1442 42.0918 36.0494 41.9281 36.0494 41.6524C36.0494 41.3939 36.1786 41.1871 36.4371 41.0321C36.6956 40.8942 37.0488 40.7994 37.4969 40.7477C37.807 40.7133 38.0138 40.6616 38.1172 40.5927C38.2378 40.5237 38.2981 40.3859 38.2981 40.1791C38.3154 39.9723 38.324 39.6535 38.324 39.2227C38.324 38.5163 38.3326 37.6633 38.3498 36.6639C38.3843 35.6472 38.4015 34.6909 38.4015 33.7948C38.4015 32.8815 38.3929 32.1147 38.3757 31.4944C38.3757 30.8741 38.3671 30.3399 38.3498 29.8919C38.3326 29.4439 38.3154 29.0217 38.2981 28.6254C38.2981 28.229 38.2981 27.7896 38.2981 27.3071C38.2981 27.0314 38.2378 26.8677 38.1172 26.816C38.0138 26.7643 37.7812 26.7385 37.4193 26.7385H36.3337C36.2131 26.7385 36.0494 26.7299 35.8426 26.7127C35.6359 26.6782 35.4549 26.6265 35.2998 26.5576C35.1275 26.4714 35.0414 26.3508 35.0414 26.1957C35.0414 25.8511 35.4549 25.6357 36.282 25.5495C37.1091 25.4461 38.1775 25.3944 39.4871 25.3944C39.7283 25.3944 39.892 25.4547 39.9782 25.5754C40.0816 25.6788 40.1333 25.9286 40.1333 26.3249V28.0567C40.5813 27.0056 41.2103 26.2043 42.0201 25.6529C42.83 25.1015 43.6657 24.8258 44.5273 24.8258C45.4923 24.8258 46.2849 25.0153 46.9053 25.3944C47.5256 25.7735 48.0081 26.2732 48.3527 26.8936C48.6974 27.4967 48.9386 28.1515 49.0764 28.858C49.2143 29.5472 49.2832 30.2107 49.2832 30.8482C49.2832 32.0889 49.0937 33.1228 48.7146 33.9499C48.3355 34.777 47.853 35.4404 47.2671 35.9401C46.6985 36.4226 46.1126 36.7673 45.5095 36.974C44.9237 37.1808 44.4067 37.2842 43.9587 37.2842C43.1833 37.2842 42.5371 37.1722 42.0201 36.9482C41.5204 36.7242 41.1155 36.4571 40.8053 36.1469C40.5124 35.8195 40.2884 35.518 40.1333 35.2423V40.7219H41.8134C42.2614 40.7219 42.6319 40.7994 42.9248 40.9545C43.2177 41.1096 43.3642 41.3336 43.3642 41.6265C43.3642 41.8678 43.2694 42.0229 43.0799 42.0918C42.8903 42.178 42.7266 42.221 42.5888 42.221H36.7731ZM43.8811 35.7334C44.2085 35.7334 44.5704 35.6558 44.9667 35.5007C45.3631 35.3457 45.7421 35.0872 46.104 34.7253C46.4831 34.3635 46.7847 33.8637 47.0087 33.2262C47.2499 32.5886 47.3705 31.7787 47.3705 30.7965C47.3705 30.383 47.3361 29.9263 47.2671 29.4266C47.1982 28.9097 47.0604 28.4272 46.8536 27.9792C46.6468 27.5139 46.3453 27.1348 45.9489 26.8419C45.5698 26.549 45.0615 26.4025 44.4239 26.4025C43.7864 26.4025 43.1316 26.592 42.4595 26.9711C41.8047 27.333 41.2447 27.8844 40.7795 28.6254C40.3314 29.3491 40.1074 30.2537 40.1074 31.3393C40.1074 32.1147 40.2108 32.8385 40.4176 33.5105C40.6416 34.1653 41.0293 34.6995 41.5807 35.113C42.1321 35.5266 42.8989 35.7334 43.8811 35.7334ZM51.287 42.221C51.1836 42.221 51.0371 42.1952 50.8476 42.1435C50.6581 42.0918 50.5633 41.9281 50.5633 41.6524C50.5633 41.3939 50.6925 41.1871 50.951 41.0321C51.2095 40.8942 51.5627 40.7994 52.0107 40.7477C52.3209 40.7133 52.5277 40.6616 52.6311 40.5927C52.7517 40.5237 52.812 40.3859 52.812 40.1791C52.8292 39.9723 52.8378 39.6535 52.8378 39.2227C52.8378 38.5163 52.8465 37.6633 52.8637 36.6639C52.8981 35.6472 52.9154 34.6909 52.9154 33.7948C52.9154 32.8815 52.9068 32.1147 52.8895 31.4944C52.8895 30.8741 52.8809 30.3399 52.8637 29.8919C52.8465 29.4439 52.8292 29.0217 52.812 28.6254C52.812 28.229 52.812 27.7896 52.812 27.3071C52.812 27.0314 52.7517 26.8677 52.6311 26.816C52.5277 26.7643 52.295 26.7385 51.9332 26.7385H50.8476C50.727 26.7385 50.5633 26.7299 50.3565 26.7127C50.1497 26.6782 49.9688 26.6265 49.8137 26.5576C49.6414 26.4714 49.5552 26.3508 49.5552 26.1957C49.5552 25.8511 49.9688 25.6357 50.7959 25.5495C51.623 25.4461 52.6914 25.3944 54.001 25.3944C54.2422 25.3944 54.4059 25.4547 54.4921 25.5754C54.5955 25.6788 54.6471 25.9286 54.6471 26.3249V28.0567C55.0952 27.0056 55.7241 26.2043 56.534 25.6529C57.3439 25.1015 58.1796 24.8258 59.0412 24.8258C60.0062 24.8258 60.7988 25.0153 61.4191 25.3944C62.0395 25.7735 62.522 26.2732 62.8666 26.8936C63.2112 27.4967 63.4525 28.1515 63.5903 28.858C63.7282 29.5472 63.7971 30.2107 63.7971 30.8482C63.7971 32.0889 63.6075 33.1228 63.2285 33.9499C62.8494 34.777 62.3669 35.4404 61.781 35.9401C61.2124 36.4226 60.6265 36.7673 60.0234 36.974C59.4375 37.1808 58.9206 37.2842 58.4726 37.2842C57.6971 37.2842 57.0509 37.1722 56.534 36.9482C56.0343 36.7242 55.6293 36.4571 55.3192 36.1469C55.0262 35.8195 54.8022 35.518 54.6471 35.2423V40.7219H56.3272C56.7752 40.7219 57.1457 40.7994 57.4387 40.9545C57.7316 41.1096 57.8781 41.3336 57.8781 41.6265C57.8781 41.8678 57.7833 42.0229 57.5937 42.0918C57.4042 42.178 57.2405 42.221 57.1026 42.221H51.287ZM58.395 35.7334C58.7224 35.7334 59.0843 35.6558 59.4806 35.5007C59.8769 35.3457 60.256 35.0872 60.6179 34.7253C60.997 34.3635 61.2985 33.8637 61.5225 33.2262C61.7638 32.5886 61.8844 31.7787 61.8844 30.7965C61.8844 30.383 61.8499 29.9263 61.781 29.4266C61.7121 28.9097 61.5742 28.4272 61.3674 27.9792C61.1607 27.5139 60.8591 27.1348 60.4628 26.8419C60.0837 26.549 59.5754 26.4025 58.9378 26.4025C58.3002 26.4025 57.6454 26.592 56.9734 26.9711C56.3186 27.333 55.7586 27.8844 55.2933 28.6254C54.8453 29.3491 54.6213 30.2537 54.6213 31.3393C54.6213 32.1147 54.7247 32.8385 54.9315 33.5105C55.1555 34.1653 55.5432 34.6995 56.0946 35.113C56.646 35.5266 57.4128 35.7334 58.395 35.7334ZM69.2157 41.7299C68.7505 41.7299 68.3025 41.6352 67.8717 41.4456C67.4581 41.2561 67.1135 40.9631 66.8378 40.5668C66.5621 40.1877 66.4242 39.7225 66.4242 39.1711C66.4242 38.4646 66.6224 37.9131 67.0187 37.5168C67.415 37.1377 67.8544 36.9482 68.3369 36.9482C68.5609 36.9482 68.7677 37.0085 68.9573 37.1291C69.164 37.267 69.2674 37.4651 69.2674 37.7236C69.2674 38.051 69.1554 38.275 68.9314 38.3956C68.7074 38.5163 68.4834 38.5766 68.2594 38.5766C68.1043 38.5938 67.9837 38.6627 67.8975 38.7833C67.8286 38.9212 67.7941 39.0504 67.7941 39.1711C67.7941 39.464 67.9492 39.7225 68.2594 39.9465C68.5868 40.1877 69.0003 40.3083 69.5001 40.3083C69.793 40.3083 70.0859 40.2308 70.3789 40.0757C70.6718 39.9379 70.9303 39.7655 71.1543 39.5588C71.43 39.3175 71.6712 39.0074 71.878 38.6283C72.102 38.2492 72.326 37.8098 72.55 37.31L67.5098 28.1343C67.3375 27.8241 67.1652 27.6345 66.9929 27.5656C66.8206 27.4795 66.5276 27.4364 66.1141 27.4364C65.7867 27.4191 65.4937 27.4019 65.2353 27.3847C64.994 27.3675 64.7872 27.3416 64.6149 27.3071C64.2703 27.2554 64.098 27.0831 64.098 26.7902C64.098 26.48 64.2531 26.2646 64.5632 26.144C64.8906 26.0062 65.2611 25.9372 65.6747 25.9372H69.5776C70.0256 25.9372 70.3099 26.0062 70.4306 26.144C70.5684 26.2646 70.6373 26.4283 70.6373 26.6351C70.6373 26.8247 70.577 26.997 70.4564 27.1521C70.3358 27.3071 70.1032 27.3847 69.7585 27.3847C69.6724 27.3847 69.5948 27.4019 69.5259 27.4364C69.4742 27.4536 69.4484 27.5484 69.4484 27.7207C69.4484 27.7724 69.4656 27.8844 69.5001 28.0567C69.5345 28.2118 69.5948 28.3755 69.681 28.5478L73.2479 35.2423L75.1865 29.2457C75.3243 28.8321 75.3932 28.5047 75.3932 28.2635C75.3932 28.1084 75.3415 27.9964 75.2382 27.9275C75.1175 27.8585 74.8504 27.8241 74.4369 27.8241C74.0233 27.8241 73.7218 27.7552 73.5322 27.6173C73.3599 27.4622 73.2738 27.2899 73.2738 27.1004C73.2738 26.8074 73.3255 26.6179 73.4288 26.5317C73.5495 26.4283 73.8079 26.3766 74.2043 26.3766H78.5466C78.9257 26.3766 79.2531 26.4283 79.5288 26.5317C79.8217 26.6351 79.9682 26.8247 79.9682 27.1004C79.9682 27.3933 79.8131 27.5828 79.503 27.669C79.21 27.7552 78.8912 27.8069 78.5466 27.8241C78.1331 27.8413 77.8574 27.8844 77.7195 27.9533C77.5816 28.005 77.461 28.1687 77.3576 28.4444L74.7212 35.8626C74.3938 36.7931 74.0664 37.603 73.739 38.2922C73.4288 38.9815 73.067 39.5674 72.6534 40.0499C71.6885 41.1699 70.5426 41.7299 69.2157 41.7299Z" fill="#FFFAED"/>
<path d="M10.4749 122.339C9.49271 122.339 8.76898 121.986 8.30373 121.279C8.06249 120.918 7.89017 120.521 7.78678 120.09C7.70063 119.642 7.64893 119.212 7.6317 118.798C7.6317 118.384 7.6317 118.048 7.6317 117.79V111.613C7.45938 111.613 7.27845 111.613 7.08891 111.613C6.91659 111.613 6.72704 111.621 6.52027 111.638C6.31349 111.656 6.11532 111.664 5.92578 111.664C5.75346 111.664 5.58976 111.664 5.43468 111.664C5.33129 111.664 5.18482 111.613 4.99528 111.509C4.7885 111.406 4.68511 111.199 4.68511 110.889C4.68511 110.648 4.77127 110.475 4.94358 110.372C5.1159 110.251 5.32267 110.174 5.56392 110.139L6.88213 110.01C7.22676 109.976 7.43354 109.898 7.50246 109.777C7.57139 109.639 7.60585 109.424 7.60585 109.131C7.60585 108.769 7.60585 108.382 7.60585 107.968C7.62308 107.537 7.67478 107.15 7.76094 106.805C7.82986 106.478 7.96771 106.271 8.17449 106.185C8.32958 106.116 8.46743 106.081 8.58805 106.081C8.81206 106.081 9.01022 106.141 9.18254 106.262C9.35485 106.365 9.44101 106.676 9.44101 107.193V109.958C9.59609 109.958 9.83734 109.958 10.1647 109.958C10.5094 109.941 10.8712 109.924 11.2503 109.907C11.6466 109.889 11.9999 109.881 12.3101 109.881C12.6202 109.863 12.8356 109.855 12.9562 109.855C13.163 109.855 13.3698 109.915 13.5766 110.036C13.7834 110.139 13.8867 110.329 13.8867 110.604C13.8867 110.846 13.8092 111.027 13.6541 111.147C13.499 111.251 13.344 111.32 13.1889 111.354C12.8787 111.388 12.5685 111.414 12.2584 111.432C11.9482 111.449 11.6294 111.466 11.302 111.483C10.6644 111.5 10.0441 111.526 9.44101 111.561V118.126C9.44101 118.505 9.47547 118.901 9.5444 119.315C9.61333 119.729 9.74256 120.082 9.93211 120.375C10.1389 120.65 10.4404 120.788 10.8368 120.788C11.3537 120.788 11.7156 120.633 11.9224 120.323C12.1464 119.996 12.3101 119.694 12.4135 119.418C12.5168 119.125 12.6202 118.858 12.7236 118.617C12.827 118.376 13.0855 118.255 13.499 118.255C13.7575 118.255 13.9298 118.367 14.016 118.591C14.1021 118.798 14.1452 118.945 14.1452 119.031C14.1452 119.272 14.0763 119.582 13.9384 119.961C13.8006 120.323 13.5852 120.685 13.2923 121.047C12.9993 121.409 12.6202 121.719 12.155 121.977C11.6897 122.219 11.1297 122.339 10.4749 122.339ZM21.1078 122.339C19.9533 122.339 18.928 122.081 18.032 121.564C17.136 121.03 16.4295 120.297 15.9125 119.367C15.4128 118.419 15.163 117.333 15.163 116.11C15.163 114.921 15.4128 113.861 15.9125 112.931C16.4122 111.983 17.1274 111.233 18.0579 110.682C19.0056 110.131 20.1256 109.855 21.418 109.855C22.6931 109.855 23.7701 110.139 24.6489 110.708C25.5277 111.276 26.1911 112.035 26.6392 112.982C27.1044 113.913 27.337 114.93 27.337 116.032C27.337 117.084 27.1475 118.005 26.7684 118.798C26.4065 119.591 25.924 120.254 25.3209 120.788C24.7178 121.305 24.0458 121.693 23.3049 121.951C22.5811 122.21 21.8488 122.339 21.1078 122.339ZM21.1595 120.762C21.6076 120.762 22.0728 120.676 22.5553 120.504C23.055 120.314 23.5203 120.03 23.951 119.651C24.3991 119.255 24.7609 118.755 25.0366 118.152C25.3123 117.549 25.4502 116.825 25.4502 115.981C25.4502 115.067 25.2779 114.275 24.9332 113.603C24.5886 112.913 24.1061 112.379 23.4858 112C22.8827 111.604 22.1848 111.406 21.3922 111.406C20.6167 111.406 19.9016 111.595 19.2468 111.974C18.6093 112.336 18.0923 112.87 17.696 113.577C17.2997 114.266 17.1015 115.102 17.1015 116.084C17.1015 117.152 17.3083 118.031 17.7218 118.721C18.1526 119.41 18.6782 119.927 19.2985 120.271C19.9361 120.599 20.5564 120.762 21.1595 120.762Z" fill="#FFFAED"/>
<path d="M9.88042 145.118C9.41516 145.118 8.96714 145.024 8.53636 144.834C8.1228 144.644 7.77817 144.352 7.50246 143.955C7.22676 143.576 7.08891 143.111 7.08891 142.559C7.08891 141.853 7.28707 141.302 7.68339 140.905C8.07972 140.526 8.51912 140.337 9.00161 140.337C9.22562 140.337 9.4324 140.397 9.62194 140.518C9.82872 140.655 9.93211 140.854 9.93211 141.112C9.93211 141.439 9.8201 141.663 9.59609 141.784C9.37208 141.905 9.14807 141.965 8.92406 141.965C8.76898 141.982 8.64836 142.051 8.5622 142.172C8.49328 142.31 8.45881 142.439 8.45881 142.559C8.45881 142.852 8.6139 143.111 8.92406 143.335C9.25146 143.576 9.66502 143.697 10.1647 143.697C10.4577 143.697 10.7506 143.619 11.0435 143.464C11.3365 143.326 11.595 143.154 11.819 142.947C12.0947 142.706 12.3359 142.396 12.5427 142.017C12.7667 141.638 12.9907 141.198 13.2147 140.698L8.17449 131.523C8.00218 131.213 7.82986 131.023 7.65755 130.954C7.48523 130.868 7.1923 130.825 6.77874 130.825C6.45134 130.808 6.1584 130.79 5.89993 130.773C5.65869 130.756 5.45191 130.73 5.2796 130.696C4.93496 130.644 4.76265 130.472 4.76265 130.179C4.76265 129.868 4.91773 129.653 5.2279 129.532C5.5553 129.395 5.92578 129.326 6.33933 129.326H10.2423C10.6903 129.326 10.9746 129.395 11.0952 129.532C11.2331 129.653 11.302 129.817 11.302 130.024C11.302 130.213 11.2417 130.385 11.1211 130.54C11.0005 130.696 10.7678 130.773 10.4232 130.773C10.3371 130.773 10.2595 130.79 10.1906 130.825C10.1389 130.842 10.113 130.937 10.113 131.109C10.113 131.161 10.1303 131.273 10.1647 131.445C10.1992 131.6 10.2595 131.764 10.3457 131.936L13.9126 138.631L15.8511 132.634C15.989 132.221 16.0579 131.893 16.0579 131.652C16.0579 131.497 16.0062 131.385 15.9028 131.316C15.7822 131.247 15.5151 131.213 15.1016 131.213C14.688 131.213 14.3865 131.144 14.1969 131.006C14.0246 130.851 13.9384 130.678 13.9384 130.489C13.9384 130.196 13.9901 130.006 14.0935 129.92C14.2141 129.817 14.4726 129.765 14.8689 129.765H19.2113C19.5904 129.765 19.9178 129.817 20.1935 129.92C20.4864 130.024 20.6329 130.213 20.6329 130.489C20.6329 130.782 20.4778 130.971 20.1676 131.057C19.8747 131.144 19.5559 131.195 19.2113 131.213C18.7977 131.23 18.522 131.273 18.3842 131.342C18.2463 131.393 18.1257 131.557 18.0223 131.833L15.3859 139.251C15.0585 140.182 14.7311 140.991 14.4037 141.681C14.0935 142.37 13.7317 142.956 13.3181 143.438C12.3531 144.558 11.2072 145.118 9.88042 145.118ZM27.393 140.673C26.2385 140.673 25.2132 140.414 24.3171 139.897C23.4211 139.363 22.7146 138.631 22.1977 137.7C21.6979 136.752 21.4481 135.667 21.4481 134.443C21.4481 133.254 21.6979 132.195 22.1977 131.264C22.6974 130.316 23.4125 129.567 24.343 129.015C25.2907 128.464 26.4108 128.188 27.7031 128.188C28.9783 128.188 30.0552 128.473 30.9341 129.041C31.8129 129.61 32.4763 130.368 32.9243 131.316C33.3895 132.246 33.6222 133.263 33.6222 134.366C33.6222 135.417 33.4326 136.339 33.0535 137.132C32.6917 137.924 32.2092 138.588 31.6061 139.122C31.003 139.639 30.3309 140.026 29.59 140.285C28.8663 140.543 28.1339 140.673 27.393 140.673ZM27.4447 139.096C27.8927 139.096 28.3579 139.01 28.8404 138.837C29.3401 138.648 29.8054 138.364 30.2362 137.985C30.6842 137.588 31.0461 137.088 31.3218 136.485C31.5975 135.882 31.7353 135.159 31.7353 134.314C31.7353 133.401 31.563 132.608 31.2184 131.936C30.8737 131.247 30.3913 130.713 29.7709 130.334C29.1678 129.937 28.4699 129.739 27.6773 129.739C26.9019 129.739 26.1868 129.929 25.532 130.308C24.8944 130.67 24.3775 131.204 23.9811 131.91C23.5848 132.6 23.3866 133.435 23.3866 134.418C23.3866 135.486 23.5934 136.365 24.007 137.054C24.4378 137.743 24.9633 138.26 25.5837 138.605C26.2212 138.932 26.8416 139.096 27.4447 139.096ZM46.0107 140.957C45.8212 140.957 45.6919 140.767 45.623 140.388C45.5885 140.199 45.5627 139.932 45.5454 139.587C45.5282 139.225 45.511 138.794 45.4938 138.295C45.3387 138.674 45.0888 139.07 44.7442 139.484C44.3996 139.88 43.9429 140.216 43.3743 140.492C42.8229 140.767 42.1422 140.905 41.3323 140.905C40.264 140.905 39.4196 140.647 38.7993 140.13C38.179 139.613 37.7396 138.949 37.4811 138.14C37.2226 137.312 37.0934 136.451 37.0934 135.555V130.515C37.0934 130.118 37.0503 129.86 36.9641 129.739C36.8952 129.601 36.6626 129.532 36.2663 129.532H34.8964C34.6379 129.532 34.3966 129.498 34.1726 129.429C33.9486 129.36 33.8366 129.205 33.8366 128.964C33.8366 128.688 34.1554 128.49 34.793 128.369C35.1031 128.3 35.4736 128.257 35.9044 128.24C36.3352 128.206 36.8177 128.188 37.3519 128.188C38.0411 128.188 38.4891 128.249 38.6959 128.369C38.9027 128.473 39.0061 128.8 39.0061 129.352C39.0061 129.679 38.9975 130.127 38.9802 130.696C38.963 131.247 38.9458 131.833 38.9285 132.453C38.9113 133.056 38.9027 133.608 38.9027 134.107C38.9027 134.642 38.9199 135.219 38.9544 135.839C38.9888 136.442 39.0836 137.011 39.2387 137.545C39.3938 138.079 39.6609 138.519 40.04 138.863C40.4191 139.191 40.9532 139.354 41.6425 139.354C42.3318 139.354 42.9607 139.191 43.5294 138.863C44.1152 138.519 44.5805 138.071 44.9251 137.519C45.287 136.968 45.4679 136.373 45.4679 135.736L45.5454 131.626C45.5454 130.92 45.3128 130.566 44.8476 130.566H42.8832C42.2973 130.566 42.0044 130.411 42.0044 130.101C42.0044 129.774 42.2801 129.541 42.8315 129.403C43.3312 129.283 44.2186 129.222 45.4938 129.222C46.2519 129.222 46.7517 129.283 46.9929 129.403C47.2514 129.524 47.3806 129.886 47.3806 130.489C47.3806 130.971 47.3634 131.712 47.3289 132.712C47.3117 133.711 47.3031 134.926 47.3031 136.356C47.3031 136.787 47.3031 137.157 47.3031 137.468C47.3031 137.76 47.3117 138.002 47.3289 138.191V138.837C47.3289 139.027 47.372 139.173 47.4581 139.277C47.5615 139.363 47.7597 139.406 48.0526 139.406C48.156 139.406 48.2422 139.397 48.3111 139.38H48.8539C49.4742 139.38 49.7844 139.587 49.7844 140.001C49.7844 140.345 49.5173 140.586 48.9831 140.724C48.4662 140.879 47.4754 140.957 46.0107 140.957ZM52.73 137.778C52.5404 137.778 52.3767 137.743 52.2389 137.674C52.1183 137.588 52.0321 137.399 51.9804 137.106C51.946 136.951 51.9115 136.537 51.877 135.865C51.8426 135.193 51.8167 134.314 51.7995 133.229C51.7995 132.143 51.7909 130.911 51.7736 129.532C51.7564 127.068 51.7392 125.052 51.7219 123.484C51.7219 121.899 51.7219 120.684 51.7219 119.84C51.7219 119.392 51.8081 119.107 51.9804 118.987C52.17 118.849 52.3767 118.78 52.6008 118.78C52.7903 118.78 52.9885 118.832 53.1952 118.935C53.4193 119.038 53.5313 119.34 53.5313 119.84V135.943C53.5313 136.546 53.4796 137.002 53.3762 137.312C53.29 137.623 53.0746 137.778 52.73 137.778ZM52.7558 141.577C52.2217 141.577 51.8426 141.422 51.6186 141.112C51.3945 140.819 51.2825 140.518 51.2825 140.207C51.2825 139.897 51.3945 139.587 51.6186 139.277C51.8598 138.949 52.2561 138.786 52.8075 138.786C53.3245 138.786 53.7036 138.932 53.9448 139.225C54.1861 139.518 54.3067 139.828 54.3067 140.156C54.3067 140.518 54.1688 140.845 53.8931 141.138C53.6346 141.431 53.2556 141.577 52.7558 141.577Z" fill="#FBB03B"/>
<path d="M7.32672 70.1115V43.5464H16.6141C18.4647 43.5464 19.9909 43.8664 21.1929 44.5063C22.3949 45.1376 23.2899 45.9893 23.878 47.0616C24.466 48.1253 24.76 49.3056 24.76 50.6028C24.76 51.7442 24.5568 52.6868 24.1504 53.4305C23.7526 54.1742 23.2251 54.7622 22.5679 55.1946C21.9193 55.6269 21.2146 55.9469 20.4536 56.1544V56.4139C21.2664 56.4657 22.0836 56.7511 22.9051 57.27C23.7266 57.7888 24.4141 58.5325 24.9676 59.501C25.521 60.4695 25.7977 61.6542 25.7977 63.0551C25.7977 64.3868 25.495 65.5845 24.8897 66.6481C24.2844 67.7118 23.3289 68.5549 22.0231 69.1775C20.7173 69.8001 19.0181 70.1115 16.9254 70.1115H7.32672ZM10.5436 67.2578H16.9254C19.0267 67.2578 20.5184 66.8514 21.4005 66.0385C22.2912 65.217 22.7365 64.2225 22.7365 63.0551C22.7365 62.1558 22.5074 61.3256 22.049 60.5646C21.5907 59.795 20.9378 59.1811 20.0904 58.7227C19.2429 58.2558 18.2398 58.0223 17.0811 58.0223H10.5436V67.2578ZM10.5436 55.2205H16.5103C17.4788 55.2205 18.3522 55.0303 19.1305 54.6498C19.9174 54.2693 20.5401 53.7331 20.9984 53.0413C21.4653 52.3496 21.6988 51.5367 21.6988 50.6028C21.6988 49.4354 21.2924 48.4452 20.4795 47.6324C19.6667 46.8108 18.3782 46.4001 16.6141 46.4001H10.5436V55.2205ZM30.6684 70.1115V50.1877H33.7296V70.1115H30.6684ZM32.2249 46.8671C31.6283 46.8671 31.1137 46.6638 30.6814 46.2574C30.2576 45.851 30.0458 45.3624 30.0458 44.7917C30.0458 44.2209 30.2576 43.7324 30.6814 43.3259C31.1137 42.9195 31.6283 42.7163 32.2249 42.7163C32.8216 42.7163 33.3318 42.9195 33.7555 43.3259C34.1879 43.7324 34.4041 44.2209 34.4041 44.7917C34.4041 45.3624 34.1879 45.851 33.7555 46.2574C33.3318 46.6638 32.8216 46.8671 32.2249 46.8671ZM39.3364 70.1115V50.1877H42.2938V53.197H42.5014C42.8646 52.2112 43.5218 51.4113 44.473 50.7973C45.4242 50.1834 46.4965 49.8764 47.6899 49.8764C47.9147 49.8764 48.1957 49.8807 48.533 49.8893C48.8702 49.898 49.1253 49.911 49.2983 49.9283V53.0413C49.1945 53.0154 48.9567 52.9765 48.5849 52.9246C48.2217 52.8641 47.8369 52.8338 47.4304 52.8338C46.4619 52.8338 45.5972 53.037 44.8362 53.4435C44.0839 53.8412 43.4872 54.3947 43.0462 55.1038C42.6138 55.8042 42.3976 56.6041 42.3976 57.5034V70.1115H39.3364ZM62.8402 50.1877V52.7819H52.5151V50.1877H62.8402ZM55.5245 45.4143H58.5857V64.4041C58.5857 65.2689 58.7111 65.9174 58.9618 66.3498C59.2213 66.7735 59.5499 67.0589 59.9476 67.2059C60.3541 67.3443 60.7821 67.4134 61.2318 67.4134C61.569 67.4134 61.8458 67.3961 62.0619 67.3616C62.2781 67.3183 62.4511 67.2837 62.5808 67.2578L63.2034 70.0077C62.9959 70.0855 62.7062 70.1633 62.3343 70.2412C61.9625 70.3276 61.4912 70.3709 60.9205 70.3709C60.0557 70.3709 59.2083 70.185 58.3781 69.8131C57.5566 69.4413 56.8735 68.8749 56.3287 68.1139C55.7925 67.3529 55.5245 66.393 55.5245 65.2343V45.4143ZM70.9342 58.1261V70.1115H67.873V43.5464H70.9342V53.3008H71.1937C71.6606 52.2717 72.3611 51.4545 73.295 50.8492C74.2376 50.2352 75.4915 49.9283 77.0567 49.9283C78.4143 49.9283 79.6033 50.2007 80.6237 50.7454C81.6441 51.2816 82.4354 52.1074 82.9975 53.2229C83.5682 54.3298 83.8536 55.7394 83.8536 57.4516V70.1115H80.7924V57.6591C80.7924 56.0766 80.3816 54.853 79.5601 53.9882C78.7472 53.1149 77.6187 52.6782 76.1746 52.6782C75.1715 52.6782 74.2722 52.89 73.4766 53.3137C72.6897 53.7375 72.0671 54.3558 71.6088 55.1686C71.1591 55.9815 70.9342 56.9673 70.9342 58.1261Z" fill="#9AE6D7"/>
<path d="M14.4349 100.194C12.7746 100.194 11.3089 99.7741 10.0377 98.9353C8.76652 98.0879 7.77207 96.8945 7.05433 95.3553C6.33659 93.8074 5.97772 91.9784 5.97772 89.8684C5.97772 87.7758 6.33659 85.9598 7.05433 84.4205C7.77207 82.8813 8.77085 81.6923 10.0507 80.8535C11.3305 80.0147 12.8092 79.5953 14.4868 79.5953C15.7839 79.5953 16.8087 79.8114 17.561 80.2438C18.322 80.6675 18.9014 81.1518 19.2991 81.6966C19.7056 82.2327 20.0212 82.6738 20.246 83.0197H20.5055V73.2134H23.5667V99.7784H20.6092V96.7172H20.246C20.0212 97.0804 19.7012 97.5387 19.2862 98.0922C18.8711 98.637 18.2787 99.1256 17.5091 99.5579C16.7395 99.9817 15.7148 100.194 14.4349 100.194ZM14.85 97.4436C16.078 97.4436 17.1157 97.1237 17.9631 96.4838C18.8106 95.8352 19.4548 94.9402 19.8958 93.7987C20.3368 92.6486 20.5573 91.3212 20.5573 89.8166C20.5573 88.3292 20.3412 87.0278 19.9088 85.9122C19.4764 84.7881 18.8365 83.9147 17.989 83.292C17.1416 82.6608 16.0953 82.3451 14.85 82.3451C13.5529 82.3451 12.472 82.6781 11.6072 83.3439C10.7511 84.0011 10.1069 84.8962 9.67451 86.029C9.25078 87.1531 9.03892 88.4157 9.03892 89.8166C9.03892 91.2347 9.25511 92.5232 9.68748 93.682C10.1285 94.8321 10.7771 95.7487 11.6332 96.4319C12.4979 97.1064 13.5702 97.4436 14.85 97.4436ZM35.4613 100.245C34.1987 100.245 33.0529 100.008 32.0239 99.532C30.9948 99.0477 30.1777 98.3516 29.5723 97.4436C28.967 96.527 28.6643 95.4201 28.6643 94.123C28.6643 92.9815 28.8892 92.0563 29.3388 91.3472C29.7885 90.6294 30.3895 90.0673 31.1418 89.6609C31.8942 89.2545 32.7243 88.9518 33.6323 88.7529C34.5489 88.5454 35.4699 88.3811 36.3952 88.26C37.6058 88.1044 38.5873 87.9876 39.3396 87.9098C40.1006 87.8233 40.6541 87.6806 41 87.4817C41.3545 87.2829 41.5318 86.937 41.5318 86.444V86.3403C41.5318 85.0605 41.1816 84.066 40.4811 83.3569C39.7893 82.6478 38.7386 82.2933 37.3291 82.2933C35.8677 82.2933 34.7219 82.6132 33.8917 83.2531C33.0616 83.893 32.4779 84.5762 32.1406 85.3026L29.2351 84.2649C29.7539 83.0542 30.4457 82.1117 31.3105 81.4372C32.1839 80.754 33.1351 80.2784 34.1641 80.0103C35.2018 79.7336 36.2222 79.5953 37.2253 79.5953C37.8653 79.5953 38.6003 79.6731 39.4304 79.8287C40.2692 79.9757 41.0778 80.2827 41.8561 80.7497C42.643 81.2167 43.2959 81.9214 43.8147 82.864C44.3336 83.8066 44.593 85.0691 44.593 86.6516V99.7784H41.5318V97.0804H41.3761C41.1686 97.5128 40.8227 97.9754 40.3384 98.4684C39.8542 98.9613 39.2099 99.3807 38.4057 99.7266C37.6015 100.072 36.62 100.245 35.4613 100.245ZM35.9282 97.4955C37.1389 97.4955 38.1593 97.2577 38.9894 96.7821C39.8282 96.3065 40.4595 95.6925 40.8832 94.9402C41.3156 94.1879 41.5318 93.3966 41.5318 92.5665V89.7647C41.4021 89.9203 41.1167 90.063 40.6757 90.1927C40.2433 90.3138 39.7418 90.4219 39.171 90.517C38.6089 90.6035 38.0598 90.6813 37.5237 90.7505C36.9962 90.811 36.5681 90.8629 36.2395 90.9061C35.444 91.0099 34.7003 91.1785 34.0085 91.412C33.3253 91.6369 32.7719 91.9784 32.3482 92.4367C31.9331 92.8864 31.7256 93.5004 31.7256 94.2787C31.7256 95.3423 32.119 96.1465 32.9059 96.6913C33.7015 97.2274 34.7089 97.4955 35.9282 97.4955ZM51.4385 107.25C50.9197 107.25 50.457 107.207 50.0506 107.12C49.6442 107.042 49.3631 106.964 49.2075 106.887L49.9858 104.189C50.7294 104.379 51.3866 104.448 51.9574 104.396C52.5281 104.344 53.034 104.089 53.475 103.631C53.9247 103.181 54.3354 102.451 54.7073 101.439L55.278 99.8822L47.9104 79.8547H51.231L56.7308 95.7314H56.9383L62.4381 79.8547H65.7587L57.3015 102.684C56.921 103.713 56.4497 104.565 55.8877 105.239C55.3256 105.922 54.6727 106.428 53.929 106.757C53.194 107.086 52.3638 107.25 51.4385 107.25Z" fill="#FA679B"/>
<path d="M110.769 193.997L100.283 131.078H158.466L156.437 192.982L110.769 193.997Z" fill="#FA679B"/>
<path d="M91.6572 121.268L101.805 81.6898H156.352L157.113 125.328L91.6572 121.268Z" fill="#FBB03B"/>
<path d="M101.804 81.6929C112.132 82.7269 139.227 85.4959 139.227 85.4959L153.435 123.298L144.682 124.186L128.572 88.5409L118.17 87.6529L134.153 122.03L125.146 120.128L107.006 84.7349L100.765 85.7469L101.804 81.6929ZM115.251 121.902L99.6054 90.2709L96.8354 101.073C100.196 107.012 108.021 120.887 108.021 120.887L115.251 121.902Z" fill="#FFFAED"/>
<path d="M127.429 81.4358L121.594 18.7718L157.874 18.0098L157.366 84.2267L127.429 81.4358Z" fill="#FFFAED"/>
<path d="M157.555 59.6068L154.829 63.5498L145.315 49.9758C145.315 49.9758 134.152 62.2808 133.518 62.2808C133.091 62.2808 128.403 57.6168 124.885 54.1078L125.961 65.6708L131.996 72.9378L145.062 58.6038L152.673 74.5858L157.49 68.0778L157.555 59.6068Z" fill="#9AE6D7"/>
<path d="M123.83 42.7848L131.488 52.0058L144.554 37.6718L152.165 53.6558L157.657 46.2358L157.722 37.6988L154.321 42.6188L144.807 29.0458C144.807 29.0458 133.644 41.3508 133.01 41.3508C132.513 41.3508 126.27 35.0598 122.787 31.5938L123.83 42.7848Z" fill="#9AE6D7"/>
<path d="M97.1683 46.7618C92.5583 49.7658 86.5713 58.1708 86.5713 58.1708C89.8533 66.0778 102.905 74.2539 111.841 77.5449C105.531 64.3969 97.1683 46.7618 97.1683 46.7618Z" fill="#FBB03B"/>
<path d="M111.84 77.5449C110.916 65.3009 103.875 45.0978 97.1672 46.7618C94.8682 48.4208 101.415 68.0129 111.84 77.5449Z" fill="#FA679B"/>
<path d="M130.522 46.8969C134.989 50.1129 140.576 58.7888 140.576 58.7888C136.929 66.5338 123.51 74.0929 114.43 76.9629C121.345 64.1239 130.522 46.8969 130.522 46.8969Z" fill="#FBB03B"/>
<path d="M114.429 76.9629C115.924 64.7749 123.9 44.9219 130.521 46.8979C132.742 48.6619 125.288 67.9279 114.429 76.9629Z" fill="#FA679B"/>
<path d="M117.119 78.8298C117.098 72.5618 109.744 71.1449 108.118 77.9569C113.813 79.6759 117.119 78.8298 117.119 78.8298Z" fill="#FBB03B"/>
<path d="M97.2385 75.8549L93.6865 89.5548L157.875 95.3908L157.621 82.1968L97.2385 75.8549Z" fill="#FA679B"/>
<path d="M157.62 11.4138L114.236 12.4278L116.139 23.4648L159.142 24.3528L157.62 11.4138Z" fill="#FBB03B"/>
<path d="M111.572 140.804C106.775 138.597 102.946 144.737 107.006 148.541C112.307 153.512 117.915 143.721 111.572 140.804Z" fill="#FFFAED"/>
<path d="M132.884 147.654C128.206 145.203 122.573 152.977 129.332 155.645C134.152 157.548 138.212 150.444 132.884 147.654Z" fill="#FFFAED"/>
<path d="M127.519 181.889C122.067 179.034 115.501 188.095 123.379 191.204C128.998 193.422 133.73 185.142 127.519 181.889Z" fill="#FFFAED"/>
<path d="M121.341 163.383C116.663 160.934 110.257 169.751 117.028 172.39C124.511 175.308 126.668 166.174 121.341 163.383Z" fill="#FFFAED"/>
<path d="M87.3442 118.478L91.4032 136.236L158.382 134.715L156.859 120.507L87.3442 118.478Z" fill="#9AE6D7"/>
</g>
</g>
<defs>
<clipPath id="clip0_16_29328">
<rect x="0.666504" y="0.899902" width="134" height="187" rx="8" fill="white"/>
</clipPath>
</defs>
</svg>
