<svg width="135" height="187" viewBox="0 0 135 187" fill="none" xmlns="http://www.w3.org/2000/svg">
<g clip-path="url(#clip0_16_29330)">
<path d="M134.225 0H0.226074V186.999H134.225V0Z" fill="#FFFAED"/>
<mask id="mask0_16_29330" style="mask-type:luminance" maskUnits="userSpaceOnUse" x="0" y="0" width="135" height="187">
<path d="M134.225 0H0.226074V186.999H134.225V0Z" fill="white"/>
</mask>
<g mask="url(#mask0_16_29330)">
<path d="M134.225 138.733C120.845 138.432 22.2611 138.114 0.226074 137.291V187H134.225V138.733Z" fill="#FA679B"/>
<path d="M-2.05618 86.097C12.9438 84.431 45.2768 94.764 73.2778 91.097C101.278 87.431 135.612 86.431 135.612 86.431L135.944 44.0969C135.944 44.0969 85.9438 38.4299 63.2778 43.7629C40.6118 49.0969 4.94482 48.4299 -2.38818 43.4299C-1.38918 62.4299 -2.05618 86.097 -2.05618 86.097Z" fill="#FBB03B"/>
<path d="M134.225 0H0.226074V44.036C11.8831 49.623 34.8181 48.588 47.2771 46.097C60.6111 43.43 91.6111 38.764 105.277 41.43C115.543 43.433 128.439 45.248 134.224 46.027V0H134.225Z" fill="#9AE6D7"/>
<path d="M42.1646 76.9381C41.9509 76.9381 41.7372 76.9076 41.5236 76.8465C41.3251 76.8007 41.2259 76.6557 41.2259 76.4115C41.2259 76.1825 41.3022 76.0299 41.4549 75.9536C41.6075 75.8773 41.7525 75.8391 41.8899 75.8391C42.0273 75.8391 42.1723 75.8238 42.3249 75.7933C42.4775 75.778 42.6073 75.6941 42.7141 75.5415C42.8362 75.3888 42.8973 75.137 42.8973 74.7859V66.8412C42.6531 66.8412 42.4088 66.8412 42.1646 66.8412C41.9357 66.8412 41.6991 66.8335 41.4549 66.8183C41.2564 66.8183 41.0504 66.8183 40.8367 66.8183C40.623 66.8183 40.4093 66.8106 40.1956 66.7954H39.0051C38.2266 66.7954 37.4482 66.803 36.6697 66.8183C35.8913 66.8183 35.1128 66.8259 34.3344 66.8412V74.5112H36.5323C36.8223 74.5112 37.0284 74.5646 37.1505 74.6714C37.2726 74.7783 37.3337 74.908 37.3337 75.0607C37.3337 75.3201 37.2726 75.488 37.1505 75.5644C37.0437 75.6407 36.9139 75.6788 36.7613 75.6788H31.6785C31.4648 75.6788 31.2511 75.6407 31.0374 75.5644C30.839 75.488 30.7398 75.3201 30.7398 75.0607C30.7398 74.847 30.8161 74.7172 30.9687 74.6714C31.1214 74.6104 31.2664 74.5798 31.4037 74.5798C31.5716 74.5798 31.7472 74.5646 31.9303 74.5341C32.1135 74.5035 32.2738 74.4196 32.4111 74.2822C32.5485 74.1296 32.6172 73.8777 32.6172 73.5267C32.6172 72.9466 32.6172 72.3666 32.6172 71.7866C32.6325 71.2066 32.6477 70.6342 32.663 70.0694C32.6783 69.5047 32.6859 68.9247 32.6859 68.3294C32.7012 67.7341 32.7088 67.1235 32.7088 66.4977C32.7088 65.8719 32.7012 65.2309 32.6859 64.5745C32.6859 63.9029 32.6783 63.216 32.663 62.5139C32.6477 61.8118 32.6325 61.1326 32.6172 60.4762C32.6172 59.8199 32.6172 59.1788 32.6172 58.553C32.6172 58.3851 32.5333 58.263 32.3654 58.1867C32.2127 58.1104 32.0296 58.0646 31.8159 58.0493C31.6022 58.034 31.4114 58.0264 31.2435 58.0264C31.0756 58.0264 30.8924 57.9882 30.694 57.9119C30.4956 57.8356 30.3963 57.683 30.3963 57.454C30.3963 57.1793 30.5032 57.019 30.7169 56.9732C30.9306 56.9122 31.1061 56.8816 31.2435 56.8816H35.6394C36.1126 56.8816 36.4484 56.9198 36.6468 56.9961C36.83 57.0877 36.9216 57.2403 36.9216 57.454C36.9216 57.6982 36.8071 57.8585 36.5781 57.9348C36.3492 57.9959 36.1431 58.0264 35.9599 58.0264C35.8226 58.0264 35.6241 58.034 35.3647 58.0493C35.1052 58.0646 34.8686 58.118 34.6549 58.2096C34.4412 58.2859 34.3344 58.4156 34.3344 58.5988V65.2843C34.7312 65.2995 35.1204 65.3148 35.502 65.3301C35.8989 65.3301 36.2881 65.3301 36.6697 65.3301H39.0051C40.3635 65.3301 41.3633 65.3224 42.0044 65.3072C42.6454 65.2919 42.9202 65.2843 42.8286 65.2843V58.8735C42.8286 58.6141 42.6912 58.4614 42.4165 58.4156C42.1417 58.3698 41.8975 58.3469 41.6838 58.3469C41.5159 58.3469 41.3328 58.3088 41.1343 58.2325C40.9359 58.1409 40.8367 57.9882 40.8367 57.7746C40.8367 57.5456 40.9435 57.393 41.1572 57.3166C41.3709 57.2403 41.5465 57.2022 41.6838 57.2022H46.0798C46.5529 57.2022 46.8887 57.2403 47.0872 57.3166C47.2703 57.3777 47.3619 57.5303 47.3619 57.7746C47.3619 58.034 47.2474 58.1943 47.0185 58.2554C46.7895 58.3164 46.5835 58.3469 46.4003 58.3469C46.2629 58.3469 46.0416 58.3546 45.7363 58.3698C45.4463 58.3851 45.1716 58.4385 44.9121 58.5301C44.6679 58.6064 44.5458 58.7362 44.5458 58.9193C44.5458 59.6062 44.5381 60.3923 44.5229 61.2776C44.5229 62.1476 44.5152 63.0405 44.5 63.9563C44.5 64.8569 44.5 65.704 44.5 66.4977C44.5 67.902 44.5152 69.2528 44.5458 70.5502C44.5916 71.8324 44.6297 72.939 44.6602 73.8701C44.706 74.8012 44.7289 75.4346 44.7289 75.7704H46.9269C47.0948 75.7704 47.2703 75.8086 47.4535 75.8849C47.6367 75.9765 47.7282 76.152 47.7282 76.4115C47.7282 76.6252 47.6672 76.7626 47.5451 76.8236C47.4382 76.8999 47.3085 76.9381 47.1558 76.9381H42.1646ZM51.7566 75.9307C50.6881 75.9307 49.8334 75.6865 49.1923 75.198C48.5665 74.7096 48.2536 74.0533 48.2536 73.229C48.2536 72.3437 48.597 71.6034 49.2839 71.0082C49.986 70.4129 50.9171 70.1152 52.0771 70.1152C53.2677 70.1152 54.3362 70.4663 55.2825 71.1684V70.5502C55.2825 70.4739 55.2825 70.39 55.2825 70.2984C55.2825 70.2068 55.2901 70.1229 55.3054 70.0465V69.7031C55.3054 68.6957 55.0917 67.9096 54.6643 67.3449C54.2522 66.7649 53.5882 66.4748 52.6724 66.4748C52.3824 66.4748 52.039 66.5206 51.6421 66.6122C51.2605 66.6885 50.9247 66.8183 50.6347 67.0014C50.36 67.1693 50.2226 67.383 50.2226 67.6425C50.2226 67.7646 50.2608 67.8486 50.3371 67.8944C50.4134 67.9249 50.5279 67.9554 50.6805 67.9859C50.7873 68.0012 50.9095 68.0623 51.0468 68.1691C51.1842 68.276 51.2529 68.4515 51.2529 68.6957C51.2529 68.9552 51.1613 69.1612 50.9781 69.3139C50.795 69.4513 50.5508 69.5199 50.2455 69.5199C49.7723 69.5199 49.4365 69.352 49.2381 69.0162C49.0397 68.6804 48.9404 68.3141 48.9404 67.9173C48.9404 67.093 49.2915 66.4214 49.9936 65.9025C50.6958 65.3682 51.6497 65.1011 52.8556 65.1011C55.5572 65.1011 56.9081 66.5893 56.9081 69.5657C56.9081 69.581 56.9004 69.7871 56.8852 70.1839C56.8852 70.5655 56.8776 71.0082 56.8623 71.5119C56.847 72.0156 56.8394 72.4658 56.8394 72.8627C56.8394 73.5953 56.8699 74.0533 56.931 74.2364C57.0073 74.4501 57.1447 74.557 57.3431 74.557C57.511 74.557 57.6178 74.5035 57.6636 74.3967C57.7247 74.2898 57.7705 74.1372 57.801 73.9388C57.8163 73.8472 57.8697 73.7403 57.9613 73.6182C58.0529 73.4961 58.2055 73.4351 58.4192 73.4351C58.6176 73.4351 58.7474 73.5114 58.8084 73.664C58.8695 73.8167 58.9 73.9922 58.9 74.1906C58.9 74.8012 58.7168 75.2438 58.3505 75.5186C57.9994 75.7933 57.5949 75.9307 57.137 75.9307C56.7249 75.9307 56.351 75.8315 56.0152 75.633C55.6946 75.4194 55.4657 75.0683 55.3283 74.5798C54.8399 75.0225 54.298 75.3583 53.7027 75.5873C53.1227 75.8162 52.474 75.9307 51.7566 75.9307ZM52.2832 74.557C53.0922 74.557 53.7943 74.4043 54.3896 74.099C54.9849 73.7938 55.2825 73.4198 55.2825 72.9772C55.2825 72.5345 55.023 72.1758 54.5041 71.9011C53.9851 71.6263 53.3669 71.489 52.6495 71.489C51.8863 71.489 51.23 71.6492 50.6805 71.9698C50.1463 72.2903 49.8792 72.7024 49.8792 73.2061C49.8792 73.664 50.1157 74.0075 50.5889 74.2364C51.0621 74.4501 51.6269 74.557 52.2832 74.557ZM59.4672 80.3037C59.3756 80.3037 59.2459 80.2808 59.078 80.235C58.9101 80.1892 58.8261 80.0442 58.8261 79.8C58.8261 79.5711 58.9406 79.3879 59.1695 79.2505C59.3985 79.1284 59.7114 79.0445 60.1083 78.9987C60.383 78.9682 60.5662 78.9224 60.6578 78.8613C60.7646 78.8003 60.818 78.6781 60.818 78.495C60.8333 78.3118 60.8409 78.0294 60.8409 77.6478C60.8409 77.022 60.8485 76.2665 60.8638 75.3812C60.8943 74.4806 60.9096 73.6335 60.9096 72.8398C60.9096 72.0308 60.902 71.3516 60.8867 70.8021C60.8867 70.2526 60.8791 69.7794 60.8638 69.3826C60.8485 68.9857 60.8333 68.6118 60.818 68.2607C60.818 67.9096 60.818 67.5204 60.818 67.093C60.818 66.8488 60.7646 66.7038 60.6578 66.658C60.5662 66.6122 60.3601 66.5893 60.0396 66.5893H59.078C58.9711 66.5893 58.8261 66.5817 58.6429 66.5664C58.4598 66.5359 58.2995 66.4901 58.1621 66.4291C58.0095 66.3527 57.9332 66.2459 57.9332 66.1085C57.9332 65.8032 58.2995 65.6124 59.0322 65.5361C59.7648 65.4445 60.7112 65.3988 61.8712 65.3988C62.0849 65.3988 62.2299 65.4522 62.3062 65.559C62.3978 65.6506 62.4436 65.8719 62.4436 66.223V67.757C62.8405 66.8259 63.3976 66.1161 64.115 65.6277C64.8324 65.1393 65.5727 64.8951 66.3358 64.8951C67.1906 64.8951 67.8927 65.063 68.4422 65.3988C68.9917 65.7346 69.4191 66.1772 69.7244 66.7267C70.0296 67.2609 70.2433 67.8409 70.3654 68.4667C70.4876 69.0773 70.5486 69.6649 70.5486 70.2297C70.5486 71.3287 70.3807 72.2445 70.0449 72.9772C69.7091 73.7098 69.2817 74.2975 68.7628 74.7401C68.2591 75.1675 67.7401 75.4728 67.2059 75.6559C66.6869 75.8391 66.229 75.9307 65.8321 75.9307C65.1453 75.9307 64.5729 75.8315 64.115 75.633C63.6723 75.4346 63.3136 75.198 63.0389 74.9233C62.7794 74.6333 62.581 74.3662 62.4436 74.1219V78.9758H63.9318C64.3287 78.9758 64.6568 79.0445 64.9163 79.1818C65.1758 79.3192 65.3055 79.5176 65.3055 79.7771C65.3055 79.9908 65.2216 80.1282 65.0537 80.1892C64.8858 80.2656 64.7408 80.3037 64.6187 80.3037H59.4672ZM65.7634 74.557C66.0535 74.557 66.374 74.4883 66.7251 74.3509C67.0761 74.2135 67.4119 73.9846 67.7325 73.664C68.0683 73.3435 68.3354 72.9008 68.5338 72.3361C68.7475 71.7713 68.8543 71.0539 68.8543 70.1839C68.8543 69.8176 68.8238 69.4131 68.7628 68.9705C68.7017 68.5125 68.5796 68.0852 68.3964 67.6883C68.2133 67.2762 67.9462 66.9404 67.5951 66.6809C67.2593 66.4214 66.809 66.2917 66.2443 66.2917C65.6795 66.2917 65.0995 66.4596 64.5042 66.7954C63.9242 67.1159 63.4281 67.6044 63.016 68.2607C62.6191 68.9018 62.4207 69.7031 62.4207 70.6647C62.4207 71.3516 62.5123 71.9927 62.6955 72.5879C62.8939 73.168 63.2373 73.6411 63.7257 74.0075C64.2142 74.3738 64.8934 74.557 65.7634 74.557ZM72.3235 80.3037C72.232 80.3037 72.1022 80.2808 71.9343 80.235C71.7664 80.1892 71.6825 80.0442 71.6825 79.8C71.6825 79.5711 71.797 79.3879 72.0259 79.2505C72.2549 79.1284 72.5678 79.0445 72.9646 78.9987C73.2394 78.9682 73.4225 78.9224 73.5141 78.8613C73.621 78.8003 73.6744 78.6781 73.6744 78.495C73.6896 78.3118 73.6973 78.0294 73.6973 77.6478C73.6973 77.022 73.7049 76.2665 73.7202 75.3812C73.7507 74.4806 73.766 73.6335 73.766 72.8398C73.766 72.0308 73.7583 71.3516 73.7431 70.8021C73.7431 70.2526 73.7354 69.7794 73.7202 69.3826C73.7049 68.9857 73.6896 68.6118 73.6744 68.2607C73.6744 67.9096 73.6744 67.5204 73.6744 67.093C73.6744 66.8488 73.621 66.7038 73.5141 66.658C73.4225 66.6122 73.2165 66.5893 72.8959 66.5893H71.9343C71.8275 66.5893 71.6825 66.5817 71.4993 66.5664C71.3161 66.5359 71.1559 66.4901 71.0185 66.4291C70.8659 66.3527 70.7895 66.2459 70.7895 66.1085C70.7895 65.8032 71.1559 65.6124 71.8885 65.5361C72.6212 65.4445 73.5675 65.3988 74.7276 65.3988C74.9413 65.3988 75.0863 65.4522 75.1626 65.559C75.2542 65.6506 75.3 65.8719 75.3 66.223V67.757C75.6968 66.8259 76.2539 66.1161 76.9713 65.6277C77.6887 65.1393 78.429 64.8951 79.1922 64.8951C80.047 64.8951 80.7491 65.063 81.2986 65.3988C81.8481 65.7346 82.2755 66.1772 82.5807 66.7267C82.886 67.2609 83.0997 67.8409 83.2218 68.4667C83.3439 69.0773 83.405 69.6649 83.405 70.2297C83.405 71.3287 83.2371 72.2445 82.9013 72.9772C82.5655 73.7098 82.1381 74.2975 81.6191 74.7401C81.1154 75.1675 80.5965 75.4728 80.0622 75.6559C79.5433 75.8391 79.0854 75.9307 78.6885 75.9307C78.0016 75.9307 77.4292 75.8315 76.9713 75.633C76.5287 75.4346 76.17 75.198 75.8952 74.9233C75.6358 74.6333 75.4373 74.3662 75.3 74.1219V78.9758H76.7882C77.185 78.9758 77.5132 79.0445 77.7727 79.1818C78.0322 79.3192 78.1619 79.5176 78.1619 79.7771C78.1619 79.9908 78.078 80.1282 77.9101 80.1892C77.7421 80.2656 77.5971 80.3037 77.475 80.3037H72.3235ZM78.6198 74.557C78.9098 74.557 79.2304 74.4883 79.5814 74.3509C79.9325 74.2135 80.2683 73.9846 80.5888 73.664C80.9246 73.3435 81.1917 72.9008 81.3902 72.3361C81.6039 71.7713 81.7107 71.0539 81.7107 70.1839C81.7107 69.8176 81.6802 69.4131 81.6191 68.9705C81.5581 68.5125 81.436 68.0852 81.2528 67.6883C81.0696 67.2762 80.8025 66.9404 80.4515 66.6809C80.1157 66.4214 79.6654 66.2917 79.1006 66.2917C78.5359 66.2917 77.9558 66.4596 77.3606 66.7954C76.7805 67.1159 76.2845 67.6044 75.8724 68.2607C75.4755 68.9018 75.2771 69.7031 75.2771 70.6647C75.2771 71.3516 75.3686 71.9927 75.5518 72.5879C75.7502 73.168 76.0937 73.6411 76.5821 74.0075C77.0705 74.3738 77.7498 74.557 78.6198 74.557ZM88.2048 79.8687C87.7927 79.8687 87.3958 79.7848 87.0142 79.6169C86.6479 79.449 86.3426 79.1895 86.0984 78.8384C85.8542 78.5026 85.7321 78.0905 85.7321 77.6021C85.7321 76.9762 85.9076 76.4878 86.2587 76.1367C86.6097 75.8009 86.999 75.633 87.4264 75.633C87.6248 75.633 87.8079 75.6865 87.9758 75.7933C88.159 75.9154 88.2506 76.091 88.2506 76.3199C88.2506 76.6099 88.1514 76.8083 87.9529 76.9152C87.7545 77.022 87.5561 77.0755 87.3577 77.0755C87.2203 77.0907 87.1134 77.1518 87.0371 77.2586C86.9761 77.3807 86.9455 77.4952 86.9455 77.6021C86.9455 77.8615 87.0829 78.0905 87.3577 78.2889C87.6477 78.5026 88.014 78.6095 88.4566 78.6095C88.7161 78.6095 88.9756 78.5408 89.2351 78.4034C89.4946 78.2813 89.7235 78.1287 89.922 77.9455C90.1662 77.7318 90.3799 77.4571 90.563 77.1212C90.7615 76.7854 90.9599 76.3962 91.1583 75.9536L86.6937 67.8257C86.5411 67.5509 86.3884 67.383 86.2358 67.322C86.0831 67.2457 85.8237 67.2075 85.4573 67.2075C85.1673 67.1922 84.9078 67.177 84.6789 67.1617C84.4652 67.1464 84.282 67.1235 84.1294 67.093C83.8241 67.0472 83.6715 66.8946 83.6715 66.6351C83.6715 66.3604 83.8089 66.1696 84.0836 66.0627C84.3736 65.9406 84.7018 65.8796 85.0681 65.8796H88.5253C88.9222 65.8796 89.174 65.9406 89.2809 66.0627C89.403 66.1696 89.4641 66.3146 89.4641 66.4977C89.4641 66.6656 89.4106 66.8183 89.3038 66.9556C89.1969 67.093 88.9909 67.1617 88.6856 67.1617C88.6093 67.1617 88.5406 67.177 88.4795 67.2075C88.4338 67.2228 88.4109 67.3067 88.4109 67.4593C88.4109 67.5051 88.4261 67.6044 88.4566 67.757C88.4872 67.8944 88.5406 68.0394 88.6169 68.192L91.7765 74.1219L93.4937 68.8102C93.6158 68.4439 93.6768 68.1538 93.6768 67.9402C93.6768 67.8028 93.631 67.7036 93.5395 67.6425C93.4326 67.5815 93.196 67.5509 92.8297 67.5509C92.4634 67.5509 92.1962 67.4899 92.0283 67.3678C91.8757 67.2304 91.7994 67.0778 91.7994 66.9099C91.7994 66.6504 91.8452 66.4825 91.9368 66.4062C92.0436 66.3146 92.2726 66.2688 92.6236 66.2688H96.4701C96.8059 66.2688 97.0959 66.3146 97.3401 66.4062C97.5996 66.4977 97.7293 66.6656 97.7293 66.9099C97.7293 67.1693 97.592 67.3372 97.3172 67.4136C97.0577 67.4899 96.7753 67.5357 96.4701 67.5509C96.1037 67.5662 95.8595 67.6044 95.7374 67.6654C95.6153 67.7112 95.5085 67.8562 95.4169 68.1004L93.0815 74.6714C92.7915 75.4957 92.5015 76.2131 92.2115 76.8236C91.9368 77.4342 91.6162 77.9531 91.2499 78.3805C90.3951 79.3726 89.3801 79.8687 88.2048 79.8687Z" fill="#FFFAED"/>
<path d="M16.4389 120.9V102.618H22.8304C24.1039 102.618 25.1543 102.838 25.9815 103.279C26.8087 103.713 27.4247 104.299 27.8293 105.037C28.234 105.769 28.4364 106.582 28.4364 107.474C28.4364 108.26 28.2965 108.909 28.0168 109.42C27.7431 109.932 27.38 110.337 26.9278 110.634C26.4814 110.932 25.9964 111.152 25.4727 111.295V111.473C26.0321 111.509 26.5945 111.706 27.1598 112.063C27.7252 112.42 28.1983 112.931 28.5792 113.598C28.9601 114.265 29.1505 115.08 29.1505 116.044C29.1505 116.96 28.9422 117.785 28.5256 118.517C28.1091 119.249 27.4515 119.829 26.5528 120.257C25.6542 120.686 24.4848 120.9 23.0447 120.9H16.4389ZM18.6527 118.936H23.0447C24.4908 118.936 25.5173 118.656 26.1244 118.097C26.7373 117.532 27.0438 116.847 27.0438 116.044C27.0438 115.425 26.8861 114.854 26.5707 114.33C26.2553 113.8 25.806 113.378 25.2228 113.062C24.6396 112.741 23.9492 112.58 23.1518 112.58H18.6527V118.936ZM18.6527 110.652H22.759C23.4255 110.652 24.0266 110.521 24.5622 110.259C25.1037 109.998 25.5322 109.629 25.8476 109.153C26.169 108.676 26.3297 108.117 26.3297 107.474C26.3297 106.671 26.05 105.99 25.4906 105.43C24.9312 104.865 24.0444 104.582 22.8304 104.582H18.6527V110.652ZM32.5025 120.9V107.189H34.6092V120.9H32.5025ZM33.5737 104.903C33.163 104.903 32.8089 104.764 32.5114 104.484C32.2198 104.204 32.074 103.868 32.074 103.475C32.074 103.082 32.2198 102.746 32.5114 102.466C32.8089 102.187 33.163 102.047 33.5737 102.047C33.9843 102.047 34.3354 102.187 34.627 102.466C34.9246 102.746 35.0733 103.082 35.0733 103.475C35.0733 103.868 34.9246 104.204 34.627 104.484C34.3354 104.764 33.9843 104.903 33.5737 104.903ZM38.4677 120.9V107.189H40.503V109.26H40.6458C40.8958 108.581 41.3481 108.031 42.0027 107.608C42.6573 107.186 43.3952 106.974 44.2165 106.974C44.3712 106.974 44.5646 106.977 44.7967 106.983C45.0288 106.989 45.2044 106.998 45.3234 107.01V109.153C45.252 109.135 45.0883 109.108 44.8324 109.072C44.5825 109.031 44.3177 109.01 44.038 109.01C43.3714 109.01 42.7763 109.15 42.2526 109.429C41.7349 109.703 41.3242 110.084 41.0207 110.572C40.7232 111.054 40.5744 111.604 40.5744 112.223V120.9H38.4677ZM54.6428 107.189V108.974H47.5372V107.189H54.6428ZM49.6082 103.904H51.7149V116.972C51.7149 117.567 51.8012 118.014 51.9738 118.311C52.1523 118.603 52.3784 118.799 52.6522 118.9C52.9319 118.996 53.2265 119.043 53.5359 119.043C53.768 119.043 53.9585 119.031 54.1072 119.008C54.256 118.978 54.375 118.954 54.4643 118.936L54.8928 120.829C54.75 120.882 54.5506 120.936 54.2947 120.989C54.0388 121.049 53.7145 121.079 53.3217 121.079C52.7266 121.079 52.1434 120.951 51.5721 120.695C51.0067 120.439 50.5366 120.049 50.1617 119.525C49.7927 119.002 49.6082 118.341 49.6082 117.544V103.904ZM60.2131 112.652V120.9H58.1064V102.618H60.2131V109.331H60.3916C60.713 108.623 61.195 108.06 61.8377 107.644C62.4864 107.221 63.3493 107.01 64.4265 107.01C65.3608 107.01 66.1791 107.198 66.8813 107.573C67.5835 107.941 68.1281 108.51 68.5149 109.277C68.9077 110.039 69.1041 111.009 69.1041 112.188V120.9H66.9974V112.33C66.9974 111.241 66.7147 110.399 66.1493 109.804C65.5899 109.203 64.8133 108.903 63.8195 108.903C63.1291 108.903 62.5102 109.048 61.9627 109.34C61.4212 109.632 60.9927 110.057 60.6773 110.616C60.3678 111.176 60.2131 111.854 60.2131 112.652ZM78.1356 121.186C76.993 121.186 75.9843 120.897 75.1095 120.32C74.2347 119.737 73.5503 118.915 73.0563 117.856C72.5624 116.791 72.3154 115.532 72.3154 114.08C72.3154 112.64 72.5624 111.39 73.0563 110.331C73.5503 109.272 74.2376 108.453 75.1184 107.876C75.9992 107.299 77.0168 107.01 78.1713 107.01C79.064 107.01 79.7692 107.159 80.2869 107.456C80.8106 107.748 81.2094 108.081 81.4831 108.456C81.7628 108.825 81.98 109.129 82.1348 109.367H82.3133V102.618H84.42V120.9H82.3847V118.793H82.1348C81.98 119.043 81.7598 119.359 81.4742 119.74C81.1885 120.114 80.7809 120.451 80.2512 120.748C79.7216 121.04 79.0164 121.186 78.1356 121.186ZM78.4213 119.293C79.2663 119.293 79.9805 119.073 80.5637 118.633C81.1469 118.186 81.5902 117.57 81.8937 116.785C82.1973 115.993 82.349 115.08 82.349 114.044C82.349 113.021 82.2002 112.125 81.9027 111.357C81.6051 110.584 81.1647 109.983 80.5815 109.554C79.9983 109.12 79.2782 108.903 78.4213 108.903C77.5286 108.903 76.7847 109.132 76.1896 109.59C75.6004 110.042 75.1571 110.658 74.8595 111.438C74.5679 112.211 74.4221 113.08 74.4221 114.044C74.4221 115.02 74.5709 115.907 74.8685 116.704C75.172 117.496 75.6183 118.127 76.2075 118.597C76.8026 119.061 77.5405 119.293 78.4213 119.293ZM92.6058 121.221C91.7369 121.221 90.9484 121.058 90.2402 120.73C89.532 120.397 88.9696 119.918 88.553 119.293C88.1365 118.662 87.9282 117.901 87.9282 117.008C87.9282 116.222 88.0829 115.586 88.3924 115.098C88.7018 114.604 89.1154 114.217 89.6332 113.937C90.1509 113.658 90.7222 113.449 91.3471 113.312C91.9779 113.17 92.6117 113.056 93.2485 112.973C94.0816 112.866 94.7571 112.786 95.2748 112.732C95.7985 112.673 96.1794 112.574 96.4174 112.438C96.6614 112.301 96.7834 112.063 96.7834 111.723V111.652C96.7834 110.771 96.5424 110.087 96.0604 109.599C95.5843 109.111 94.8612 108.867 93.8912 108.867C92.8855 108.867 92.0969 109.087 91.5256 109.527C90.9543 109.968 90.5526 110.438 90.3205 110.938L88.321 110.224C88.678 109.391 89.1541 108.742 89.7492 108.278C90.3503 107.808 91.0049 107.48 91.7131 107.296C92.4272 107.105 93.1295 107.01 93.8198 107.01C94.2602 107.01 94.766 107.064 95.3373 107.171C95.9146 107.272 96.471 107.483 97.0066 107.805C97.5482 108.126 97.9975 108.611 98.3545 109.26C98.7116 109.908 98.8901 110.777 98.8901 111.866V120.9H96.7834V119.043H96.6763C96.5335 119.341 96.2954 119.659 95.9622 119.998C95.6289 120.338 95.1856 120.626 94.6321 120.864C94.0787 121.102 93.4032 121.221 92.6058 121.221ZM92.9271 119.329C93.7603 119.329 94.4625 119.165 95.0338 118.838C95.6111 118.511 96.0455 118.088 96.3371 117.57C96.6347 117.053 96.7834 116.508 96.7834 115.937V114.009C96.6942 114.116 96.4978 114.214 96.1943 114.303C95.8967 114.387 95.5516 114.461 95.1588 114.526C94.772 114.586 94.3941 114.639 94.0251 114.687C93.6621 114.729 93.3675 114.764 93.1414 114.794C92.5939 114.866 92.0821 114.982 91.606 115.142C91.1358 115.297 90.755 115.532 90.4634 115.848C90.1777 116.157 90.0349 116.58 90.0349 117.115C90.0349 117.847 90.3057 118.401 90.8472 118.775C91.3947 119.144 92.088 119.329 92.9271 119.329ZM103.601 126.042C103.244 126.042 102.926 126.012 102.646 125.953C102.366 125.899 102.173 125.845 102.066 125.792L102.601 123.935C103.113 124.066 103.565 124.114 103.958 124.078C104.351 124.042 104.699 123.867 105.003 123.551C105.312 123.242 105.595 122.739 105.851 122.043L106.243 120.971L101.173 107.189H103.458L107.243 118.115H107.386L111.171 107.189H113.456L107.636 122.9C107.374 123.608 107.05 124.194 106.663 124.658C106.276 125.128 105.827 125.476 105.315 125.703C104.809 125.929 104.238 126.042 103.601 126.042ZM119.022 102.618L118.843 115.758H116.772L116.594 102.618H119.022ZM117.808 121.043C117.368 121.043 116.99 120.885 116.674 120.57C116.359 120.254 116.201 119.876 116.201 119.436C116.201 118.996 116.359 118.618 116.674 118.302C116.99 117.987 117.368 117.829 117.808 117.829C118.248 117.829 118.626 117.987 118.942 118.302C119.257 118.618 119.415 118.996 119.415 119.436C119.415 119.728 119.34 119.995 119.192 120.239C119.049 120.483 118.855 120.68 118.611 120.829C118.373 120.971 118.106 121.043 117.808 121.043Z" fill="#FA679B"/>
<path d="M-3.05594 41.0969C13.6111 45.7629 39.9441 48.0959 61.9441 41.7629C83.9441 35.4299 131.61 40.4299 136.944 41.4299C136.944 44.7629 136.612 49.0969 136.612 49.0969C122.278 43.4299 80.2781 41.4299 62.2781 45.7629C44.2781 50.0969 15.9451 56.4299 -3.72195 44.7629C-5.05595 44.4299 -3.05594 41.0969 -3.05594 41.0969Z" fill="#452424"/>
<path d="M31.6106 19.43C21.9436 6.76297 23.4436 20.013 31.4436 32.013C45.1936 13.513 37.2776 9.76297 31.6106 19.43Z" fill="#FA679B"/>
<path d="M17.987 161.552C10.552 151.81 7.73197 158.475 19.012 173.601C25.164 157.707 22.345 154.117 17.987 161.552Z" fill="#452424"/>
<path d="M95.987 151.552C88.552 141.81 85.732 148.475 97.012 163.601C103.164 147.707 100.345 144.117 95.987 151.552Z" fill="#452424"/>
<path d="M70.3617 16.7629C66.0277 7.09694 56.3617 14.0959 72.0277 30.7629C80.6937 13.7629 75.3617 9.09594 70.3617 16.7629Z" fill="#FFFAED"/>
<path d="M66.6107 162.763C62.2767 153.096 52.6107 160.096 68.2767 176.763C76.9437 159.763 71.6117 155.096 66.6107 162.763Z" fill="#9AE6D7"/>
<path d="M101.612 21.097C97.6118 11.43 91.9448 18.764 103.612 32.43C111.278 18.43 106.945 12.43 101.612 21.097Z" fill="#452424"/>
<path d="M39.2779 149.763C35.2779 140.096 27.6109 146.764 39.2769 160.43C46.9439 146.43 44.6119 141.097 39.2779 149.763Z" fill="#FFFAED"/>
<path d="M119.612 163.097C115.612 153.431 107.945 160.098 119.612 173.764C127.278 159.764 124.946 154.43 119.612 163.097Z" fill="#FBB03B"/>
<path d="M-4.38916 83.097C6.27684 82.764 42.9438 89.43 56.6108 89.764C70.2768 90.097 132.278 82.097 136.278 83.764C135.612 87.431 135.278 89.431 135.278 89.431C111.612 90.097 74.9448 92.097 57.6108 93.097C40.2768 94.097 4.61084 88.764 -1.72316 90.097C-3.72216 88.097 -4.38916 83.097 -4.38916 83.097Z" fill="#452424"/>
<path d="M-3.55615 134.347C8.94385 133.847 57.4438 133.097 66.4438 135.097C75.4438 137.097 135.444 136.347 135.444 136.347L135.194 140.847C125.444 141.347 81.4438 140.097 67.1938 138.847C52.9438 137.597 -1.30615 139.597 -1.30615 139.597L-3.55615 134.347Z" fill="#452424"/>
</g>
</g>
<defs>
<clipPath id="clip0_16_29330">
<rect x="0.226074" width="133.999" height="186.999" rx="8" fill="white"/>
</clipPath>
</defs>
</svg>
