<svg width="135" height="187" viewBox="0 0 135 187" fill="none" xmlns="http://www.w3.org/2000/svg">
<g clip-path="url(#clip0_16_29331)">
<path d="M134.944 0H0.946289V186.999H134.944V0Z" fill="#FFFAED"/>
<mask id="mask0_16_29331" style="mask-type:luminance" maskUnits="userSpaceOnUse" x="0" y="0" width="135" height="187">
<path d="M134.944 0H0.946289V186.999H134.944V0Z" fill="white"/>
</mask>
<g mask="url(#mask0_16_29331)">
<path d="M14.2641 159.334L12.4141 138.056C12.4141 138.056 83.1131 133.14 90.2511 132.825C87.3111 146.897 85.3971 171.221 85.3971 171.221L14.2641 159.334Z" fill="#452424"/>
<path d="M9.91406 191.04L3.31006 156.311C18.0741 154.275 74.3901 172.115 100.187 165.556C98.3541 180.89 95.3921 191.264 95.3921 191.264L9.91406 191.04Z" fill="#452424"/>
<path d="M1.52822 155.41C-1.10978 178.194 15.1962 188.993 23.0412 167.971C27.1532 175.206 33.6232 174.824 35.4032 168.655C36.9512 182.487 52.7132 185.811 55.1882 177.606C58.8952 184.775 62.7802 177.821 62.7802 177.821C71.8222 186.326 76.6932 175.359 76.6932 175.359C78.1732 186.988 87.0332 178.115 89.1132 172.487C94.8802 185.794 99.3702 176.173 99.3702 176.173C101.657 170.196 101.836 163.888 101.836 163.888C79.3962 167.348 17.7762 152.472 1.52822 155.41Z" fill="#FA679B"/>
<path d="M18.3382 139.11L18.0952 124.097L20.2992 122.825L22.0362 138.046L18.3382 139.11Z" fill="#9AE6D7"/>
<path d="M18.2204 107.927C12.9874 116.115 15.8114 121.399 19.1994 120.46C23.5684 119.25 23.5814 112.914 18.2204 107.927Z" fill="#FBB03B"/>
<path d="M33.9701 105.205C28.2321 113.546 31.8901 118.853 35.2781 117.914C39.6461 116.703 39.0121 109.683 33.9701 105.205Z" fill="#FBB03B"/>
<path d="M49.8481 102.82C43.4451 113.292 47.5191 116.304 51.0581 115.556C55.6211 114.592 54.5561 109.099 49.8481 102.82Z" fill="#FBB03B"/>
<path d="M79.8704 105.53C72.3084 115.198 76.0104 118.658 79.6124 118.32C84.2554 117.888 83.8274 112.308 79.8704 105.53Z" fill="#FBB03B"/>
<path d="M63.7093 103.045C59.0363 109.082 60.1083 115.719 63.7203 115.914C69.0063 116.2 68.4173 109.324 63.7093 103.045Z" fill="#FBB03B"/>
<path d="M32.7832 135.35L32.8742 120.346L35.7252 119.76L37.4622 134.982L32.7832 135.35Z" fill="#9AE6D7"/>
<path d="M50.2573 118.838L50.1753 133.508L54.6553 134.301L52.4523 117.899L50.2573 118.838Z" fill="#9AE6D7"/>
<path d="M62.9523 118.029C62.9383 118.529 61.5093 133.661 61.5093 133.661L66.0073 133.789L65.1223 117.924L62.9523 118.029Z" fill="#9AE6D7"/>
<path d="M77.7332 120.545L74.7202 135.603L78.9162 135.703L79.8082 120.171L77.7332 120.545Z" fill="#9AE6D7"/>
<path d="M9.474 135.908C9.091 138.847 9.803 148.409 9.803 148.409C13.618 151.904 23.787 146.85 25.865 144.157C30.13 152.531 40.625 150.716 44.043 145.867C47.064 159.513 58.955 161.607 62.457 147.072C66.879 153.071 71.852 149.898 72.388 146.318C75.84 154.575 86.337 156.623 88.467 151.181C89.845 145.801 92.262 131.532 92.262 131.532C77.012 130.849 9.474 135.908 9.474 135.908Z" fill="#FA679B"/>
<path d="M15.6801 9.36824H19.8039L29.5002 33.0519H29.8346L39.5309 9.36824H43.6546V37.9H40.4225V16.2226H40.1439L31.2277 37.9H28.107L19.1909 16.2226H18.9122V37.9H15.6801V9.36824ZM51.7523 37.9H48.1301L58.6067 9.36824H62.1731L72.6496 37.9H69.0274L60.5013 13.8821H60.2784L51.7523 37.9ZM53.0898 26.7548H67.69V29.8197H53.0898V26.7548ZM77.0938 37.9V9.36824H80.5488V23.5227H80.8832L93.7002 9.36824H98.214L86.2329 22.241L98.214 37.9H94.0346L84.1153 24.6372L80.5488 28.6495V37.9H77.0938ZM102.686 37.9V9.36824H119.905V12.4332H106.141V22.0738H119.014V25.1387H106.141V34.8351H120.128V37.9H102.686Z" fill="#FA679B"/>
<path d="M25.1083 95.9271L17.3066 67.3953H20.8173L26.78 90.6331H27.0587L33.1328 67.3953H37.0336L43.1078 90.6331H43.3864L49.3491 67.3953H52.8599L45.0582 95.9271H41.4917L35.1947 73.1909H34.9718L28.6747 95.9271H25.1083ZM60.6197 67.3953V95.9271H57.1647V67.3953H60.6197ZM83.1505 74.5283C82.9833 73.1166 82.3053 72.0206 81.1165 71.2404C79.9277 70.4603 78.4695 70.0702 76.742 70.0702C75.4789 70.0702 74.3736 70.2745 73.4263 70.6832C72.4882 71.0918 71.7545 71.6537 71.2251 72.3689C70.705 73.0841 70.445 73.8967 70.445 74.8069C70.445 75.5685 70.6261 76.2233 70.9883 76.7713C71.3598 77.3099 71.8335 77.7604 72.4093 78.1226C72.9851 78.4756 73.5888 78.7681 74.2204 79.0003C74.852 79.2232 75.4324 79.4043 75.9618 79.5436L78.8596 80.3238C79.6026 80.5188 80.4292 80.7882 81.3394 81.1318C82.2589 81.4755 83.1366 81.9445 83.9725 82.5389C84.8177 83.124 85.5142 83.8763 86.0622 84.7958C86.6102 85.7153 86.8842 86.8438 86.8842 88.1812C86.8842 89.7229 86.4801 91.1161 85.6721 92.3607C84.8734 93.6052 83.7031 94.5943 82.1614 95.3281C80.6289 96.0618 78.7667 96.4287 76.5748 96.4287C74.5315 96.4287 72.7622 96.0989 71.2669 95.4395C69.7809 94.7801 68.6106 93.8606 67.7562 92.6811C66.911 91.5015 66.4327 90.1316 66.3212 88.5713H69.8877C69.9806 89.6486 70.3428 90.5403 70.9743 91.2461C71.6152 91.9427 72.4232 92.4628 73.3984 92.8065C74.3829 93.1408 75.4417 93.308 76.5748 93.308C77.8937 93.308 79.0779 93.0944 80.1274 92.6671C81.1769 92.2306 82.0081 91.6269 82.6211 90.856C83.2341 90.0759 83.5406 89.1657 83.5406 88.1255C83.5406 87.1781 83.2759 86.4072 82.7465 85.8128C82.2171 85.2184 81.5205 84.7355 80.6568 84.364C79.793 83.9924 78.8596 83.6674 77.8565 83.3887L74.3458 82.3857C72.1167 81.7448 70.3521 80.83 69.0518 79.6412C67.7515 78.4523 67.1014 76.8966 67.1014 74.9741C67.1014 73.3766 67.5333 71.9835 68.397 70.7946C69.2701 69.5965 70.4403 68.6678 71.9078 68.0083C73.3845 67.3396 75.0331 67.0053 76.8535 67.0053C78.6924 67.0053 80.3271 67.335 81.7574 67.9944C83.1877 68.6445 84.3208 69.5362 85.1567 70.6693C86.0018 71.8023 86.4476 73.0887 86.4941 74.5283H83.1505ZM92.5647 95.9271V67.3953H96.0198V80.1009H111.233V67.3953H114.688V95.9271H111.233V83.1658H96.0198V95.9271H92.5647Z" fill="#452424"/>
<path d="M65.6672 60.9371C64.0806 60.9371 62.8112 60.5744 61.8592 59.8491C60.9299 59.1238 60.4652 58.1491 60.4652 56.9251C60.4652 55.6104 60.9752 54.5111 61.9952 53.6271C63.0379 52.7431 64.4206 52.3011 66.1432 52.3011C67.9112 52.3011 69.4979 52.8224 70.9032 53.8651V52.9471C70.9032 52.8338 70.9032 52.7091 70.9032 52.5731C70.9032 52.4371 70.9146 52.3124 70.9372 52.1991V51.6891C70.9372 50.1931 70.6199 49.0258 69.9852 48.1871C69.3732 47.3258 68.3872 46.8951 67.0272 46.8951C66.5966 46.8951 66.0866 46.9631 65.4972 47.0991C64.9306 47.2124 64.4319 47.4051 64.0012 47.6771C63.5932 47.9264 63.3892 48.2438 63.3892 48.6291C63.3892 48.8104 63.4459 48.9351 63.5592 49.0031C63.6726 49.0484 63.8426 49.0938 64.0692 49.1391C64.2279 49.1618 64.4092 49.2524 64.6132 49.4111C64.8172 49.5698 64.9192 49.8304 64.9192 50.1931C64.9192 50.5784 64.7832 50.8844 64.5112 51.1111C64.2392 51.3151 63.8766 51.4171 63.4232 51.4171C62.7206 51.4171 62.2219 51.1678 61.9272 50.6691C61.6326 50.1704 61.4852 49.6264 61.4852 49.0371C61.4852 47.8131 62.0066 46.8158 63.0492 46.0451C64.0919 45.2518 65.5086 44.8551 67.2992 44.8551C71.3112 44.8551 73.3172 47.0651 73.3172 51.4851C73.3172 51.5078 73.3059 51.8138 73.2832 52.4031C73.2832 52.9698 73.2719 53.6271 73.2492 54.3751C73.2266 55.1231 73.2152 55.7918 73.2152 56.3811C73.2152 57.4691 73.2606 58.1491 73.3512 58.4211C73.4646 58.7384 73.6686 58.8971 73.9632 58.8971C74.2126 58.8971 74.3712 58.8178 74.4392 58.6591C74.5299 58.5004 74.5979 58.2738 74.6432 57.9791C74.6659 57.8431 74.7452 57.6844 74.8812 57.5031C75.0172 57.3218 75.2439 57.2311 75.5612 57.2311C75.8559 57.2311 76.0486 57.3444 76.1392 57.5711C76.2299 57.7978 76.2752 58.0584 76.2752 58.3531C76.2752 59.2598 76.0032 59.9171 75.4592 60.3251C74.9379 60.7331 74.3372 60.9371 73.6572 60.9371C73.0452 60.9371 72.4899 60.7898 71.9912 60.4951C71.5152 60.1778 71.1752 59.6564 70.9712 58.9311C70.2459 59.5884 69.4412 60.0871 68.5572 60.4271C67.6959 60.7671 66.7326 60.9371 65.6672 60.9371ZM66.4492 58.8971C67.6506 58.8971 68.6932 58.6704 69.5772 58.2171C70.4612 57.7638 70.9032 57.2084 70.9032 56.5511C70.9032 55.8938 70.5179 55.3611 69.7472 54.9531C68.9766 54.5451 68.0586 54.3411 66.9932 54.3411C65.8599 54.3411 64.8852 54.5791 64.0692 55.0551C63.2759 55.5311 62.8792 56.1431 62.8792 56.8911C62.8792 57.5711 63.2306 58.0811 63.9332 58.4211C64.6359 58.7384 65.4746 58.8971 66.4492 58.8971Z" fill="#9AE6D7"/>
</g>
</g>
<defs>
<clipPath id="clip0_16_29331">
<rect x="0.946289" width="133.998" height="186.999" rx="8" fill="white"/>
</clipPath>
</defs>
</svg>
