<svg width="65" height="64" viewBox="0 0 65 64" fill="none" xmlns="http://www.w3.org/2000/svg">
<path d="M40.25 21.3334H40.2767" stroke="#F8FCFF" stroke-width="4" stroke-linecap="round" stroke-linejoin="round"/>
<path d="M8.25 16C8.25 13.8783 9.09286 11.8434 10.5931 10.3431C12.0934 8.84286 14.1283 8 16.25 8H48.25C50.3717 8 52.4066 8.84286 53.9069 10.3431C55.4071 11.8434 56.25 13.8783 56.25 16V48C56.25 50.1217 55.4071 52.1566 53.9069 53.6569C52.4066 55.1571 50.3717 56 48.25 56H16.25C14.1283 56 12.0934 55.1571 10.5931 53.6569C9.09286 52.1566 8.25 50.1217 8.25 48V16Z" stroke="#F8FCFF" stroke-width="4" stroke-linecap="round" stroke-linejoin="round"/>
<path d="M8.25 42.6666L21.5833 29.3332C24.058 26.9519 27.1087 26.9519 29.5833 29.3332L42.9167 42.6666" stroke="#F8FCFF" stroke-width="4" stroke-linecap="round" stroke-linejoin="round"/>
<path d="M37.5834 37.3332L40.25 34.6665C42.7247 32.2852 45.7754 32.2852 48.25 34.6665L56.25 42.6665" stroke="#F8FCFF" stroke-width="4" stroke-linecap="round" stroke-linejoin="round"/>
</svg>
