<svg width="65" height="64" viewBox="0 0 65 64" fill="none" xmlns="http://www.w3.org/2000/svg">
<path d="M8.25 32C8.25 35.1517 8.87078 38.2726 10.0769 41.1844C11.283 44.0962 13.0508 46.742 15.2794 48.9706C17.508 51.1992 20.1538 52.967 23.0656 54.1731C25.9774 55.3792 29.0983 56 32.25 56C35.4017 56 38.5226 55.3792 41.4344 54.1731C44.3462 52.967 46.992 51.1992 49.2206 48.9706C51.4492 46.742 53.217 44.0962 54.4231 41.1844C55.6292 38.2726 56.25 35.1517 56.25 32C56.25 28.8483 55.6292 25.7274 54.4231 22.8156C53.217 19.9038 51.4492 17.258 49.2206 15.0294C46.992 12.8008 44.3462 11.033 41.4344 9.82689C38.5226 8.62078 35.4017 8 32.25 8C29.0983 8 25.9774 8.62078 23.0656 9.82689C20.1538 11.033 17.508 12.8008 15.2794 15.0294C13.0508 17.258 11.283 19.9038 10.0769 22.8156C8.87078 25.7274 8.25 28.8483 8.25 32Z" stroke="#F8FCFF" stroke-width="4" stroke-linecap="round" stroke-linejoin="round"/>
<path d="M21.5834 32C21.5834 38.3652 22.7072 44.4697 24.7076 48.9706C26.708 53.4714 29.4211 56 32.25 56C35.079 56 37.7921 53.4714 39.7925 48.9706C41.7929 44.4697 42.9167 38.3652 42.9167 32C42.9167 25.6348 41.7929 19.5303 39.7925 15.0294C37.7921 10.5286 35.079 8 32.25 8C29.4211 8 26.708 10.5286 24.7076 15.0294C22.7072 19.5303 21.5834 25.6348 21.5834 32Z" stroke="#F8FCFF" stroke-width="4" stroke-linecap="round" stroke-linejoin="round"/>
<path d="M8.25 32C8.25 37.8934 18.9967 42.6667 32.25 42.6667C45.5033 42.6667 56.25 37.8934 56.25 32C56.25 26.1067 45.5033 21.3334 32.25 21.3334C18.9967 21.3334 8.25 26.1067 8.25 32Z" stroke="#F8FCFF" stroke-width="4" stroke-linecap="round" stroke-linejoin="round"/>
</svg>
