<svg width="65" height="64" viewBox="0 0 65 64" fill="none" xmlns="http://www.w3.org/2000/svg">
<g clip-path="url(#clip0_225_29215)">
<path d="M14.0833 18.6666H16.75C18.1645 18.6666 19.521 18.1047 20.5212 17.1045C21.5214 16.1043 22.0833 14.7478 22.0833 13.3333C22.0833 12.626 22.3643 11.9478 22.8644 11.4477C23.3645 10.9476 24.0428 10.6666 24.75 10.6666H40.75C41.4572 10.6666 42.1355 10.9476 42.6356 11.4477C43.1357 11.9478 43.4167 12.626 43.4167 13.3333C43.4167 14.7478 43.9786 16.1043 44.9788 17.1045C45.979 18.1047 47.3355 18.6666 48.75 18.6666H51.4167C52.8312 18.6666 54.1877 19.2285 55.1879 20.2287C56.1881 21.2289 56.75 22.5855 56.75 24V48C56.75 49.4144 56.1881 50.771 55.1879 51.7712C54.1877 52.7714 52.8312 53.3333 51.4167 53.3333H14.0833C12.6688 53.3333 11.3123 52.7714 10.3121 51.7712C9.3119 50.771 8.75 49.4144 8.75 48V24C8.75 22.5855 9.3119 21.2289 10.3121 20.2287C11.3123 19.2285 12.6688 18.6666 14.0833 18.6666Z" stroke="#F8FCFF" stroke-width="5.33333" stroke-linecap="round" stroke-linejoin="round"/>
<path d="M24.75 34.6666C24.75 36.7884 25.5929 38.8232 27.0931 40.3235C28.5934 41.8238 30.6283 42.6666 32.75 42.6666C34.8717 42.6666 36.9066 41.8238 38.4069 40.3235C39.9071 38.8232 40.75 36.7884 40.75 34.6666C40.75 32.5449 39.9071 30.5101 38.4069 29.0098C36.9066 27.5095 34.8717 26.6666 32.75 26.6666C30.6283 26.6666 28.5934 27.5095 27.0931 29.0098C25.5929 30.5101 24.75 32.5449 24.75 34.6666Z" stroke="#F8FCFF" stroke-width="5.33333" stroke-linecap="round" stroke-linejoin="round"/>
</g>
<defs>
<clipPath id="clip0_225_29215">
<rect width="64" height="64" fill="white" transform="translate(0.75)"/>
</clipPath>
</defs>
</svg>
