<svg width="65" height="64" viewBox="0 0 65 64" fill="none" xmlns="http://www.w3.org/2000/svg">
<path d="M24.25 13.3334H18.9167C17.5022 13.3334 16.1457 13.8953 15.1455 14.8955C14.1453 15.8957 13.5834 17.2522 13.5834 18.6667V50.6667C13.5834 52.0812 14.1453 53.4377 15.1455 54.4379C16.1457 55.4381 17.5022 56 18.9167 56H45.5834C46.9979 56 48.3544 55.4381 49.3546 54.4379C50.3548 53.4377 50.9167 52.0812 50.9167 50.6667V18.6667C50.9167 17.2522 50.3548 15.8957 49.3546 14.8955C48.3544 13.8953 46.9979 13.3334 45.5834 13.3334H40.25" stroke="#F8FCFF" stroke-width="4" stroke-linecap="round" stroke-linejoin="round"/>
<path d="M24.25 13.3333C24.25 11.9188 24.8119 10.5623 25.8121 9.5621C26.8123 8.5619 28.1688 8 29.5833 8H34.9167C36.3312 8 37.6877 8.5619 38.6879 9.5621C39.6881 10.5623 40.25 11.9188 40.25 13.3333C40.25 14.7478 39.6881 16.1044 38.6879 17.1046C37.6877 18.1048 36.3312 18.6667 34.9167 18.6667H29.5833C28.1688 18.6667 26.8123 18.1048 25.8121 17.1046C24.8119 16.1044 24.25 14.7478 24.25 13.3333Z" stroke="#F8FCFF" stroke-width="4" stroke-linecap="round" stroke-linejoin="round"/>
<path d="M24.25 32H40.25" stroke="#F8FCFF" stroke-width="4" stroke-linecap="round" stroke-linejoin="round"/>
<path d="M24.25 42.6666H40.25" stroke="#F8FCFF" stroke-width="4" stroke-linecap="round" stroke-linejoin="round"/>
</svg>
