<svg width="65" height="64" viewBox="0 0 65 64" fill="none" xmlns="http://www.w3.org/2000/svg">
<path d="M38.0834 8V18.6667C38.0834 19.3739 38.3643 20.0522 38.8644 20.5523C39.3645 21.0524 40.0428 21.3333 40.75 21.3333H51.4167" stroke="#F8FCFF" stroke-width="4" stroke-linecap="round" stroke-linejoin="round"/>
<path d="M46.0834 56H19.4167C18.0022 56 16.6457 55.4381 15.6455 54.4379C14.6453 53.4377 14.0834 52.0812 14.0834 50.6667V13.3333C14.0834 11.9188 14.6453 10.5623 15.6455 9.5621C16.6457 8.5619 18.0022 8 19.4167 8H38.0834L51.4167 21.3333V50.6667C51.4167 52.0812 50.8548 53.4377 49.8546 54.4379C48.8544 55.4381 47.4979 56 46.0834 56Z" stroke="#F8FCFF" stroke-width="4" stroke-linecap="round" stroke-linejoin="round"/>
<path d="M32.2167 44.8453L26.4247 47.88C26.2528 47.9694 26.0594 48.0094 25.8662 47.9953C25.6729 47.9812 25.4874 47.9137 25.3303 47.8003C25.1732 47.6869 25.0507 47.532 24.9764 47.353C24.9022 47.1741 24.8792 46.978 24.91 46.7866L26.0167 40.3573L21.3314 35.8053C21.1915 35.6701 21.0925 35.4983 21.0456 35.3095C20.9987 35.1208 21.0058 34.9226 21.0662 34.7377C21.1265 34.5528 21.2376 34.3886 21.3869 34.2638C21.5361 34.139 21.7174 34.0587 21.91 34.032L28.3847 33.0933L31.2807 27.2453C31.3673 27.0711 31.5008 26.9246 31.6661 26.8221C31.8315 26.7197 32.0222 26.6654 32.2167 26.6654C32.4112 26.6654 32.6019 26.7197 32.7672 26.8221C32.9326 26.9246 33.0661 27.0711 33.1527 27.2453L36.0487 33.0933L42.5234 34.032C42.7155 34.0596 42.896 34.1405 43.0446 34.2654C43.1931 34.3903 43.3038 34.5542 43.364 34.7388C43.4242 34.9233 43.4315 35.1209 43.3853 35.3094C43.339 35.4979 43.2409 35.6697 43.102 35.8053L38.4167 40.3573L39.5207 46.784C39.5538 46.9756 39.5326 47.1727 39.4593 47.3529C39.386 47.533 39.2637 47.6891 39.1063 47.8032C38.9488 47.9173 38.7625 47.985 38.5685 47.9986C38.3744 48.0122 38.1805 47.9711 38.0087 47.88L32.2167 44.8453Z" stroke="#F8FCFF" stroke-width="4" stroke-linecap="round" stroke-linejoin="round"/>
</svg>
