<svg width="65" height="64" viewBox="0 0 65 64" fill="none" xmlns="http://www.w3.org/2000/svg">
<g clip-path="url(#clip0_225_29262)">
<path d="M37.5834 8V18.6667C37.5834 19.3739 37.8643 20.0522 38.3644 20.5523C38.8645 21.0524 39.5428 21.3333 40.25 21.3333H50.9167" stroke="#F8FCFF" stroke-width="5.33333" stroke-linecap="round" stroke-linejoin="round"/>
<path d="M50.9167 32V50.6667C51.0428 51.673 50.8432 52.6934 50.3472 53.5781C49.8512 54.4627 49.0849 55.1653 48.1605 55.5827C47.2361 56.0002 46.2024 56.1106 45.2107 55.8977C44.219 55.6849 43.3216 55.16 42.65 54.4C42.2385 53.8735 41.7124 53.4476 41.1117 53.1548C40.5111 52.8619 39.8516 52.7097 39.1833 52.7097C38.5151 52.7097 37.8556 52.8619 37.2549 53.1548C36.6543 53.4476 36.1282 53.8735 35.7167 54.4C35.3051 54.9265 34.7791 55.3524 34.1784 55.6452C33.5778 55.9381 32.9183 56.0903 32.25 56.0903C31.5817 56.0903 30.9223 55.9381 30.3216 55.6452C29.7209 55.3524 29.1949 54.9265 28.7833 54.4C28.3718 53.8735 27.8457 53.4476 27.2451 53.1548C26.6444 52.8619 25.9849 52.7097 25.3167 52.7097C24.6484 52.7097 23.9889 52.8619 23.3883 53.1548C22.7876 53.4476 22.2615 53.8735 21.85 54.4C21.1784 55.16 20.281 55.6849 19.2893 55.8977C18.2976 56.1106 17.2639 56.0002 16.3395 55.5827C15.4152 55.1653 14.6488 54.4627 14.1528 53.5781C13.6568 52.6934 13.4572 51.673 13.5833 50.6667V13.3333C13.5833 11.9188 14.1452 10.5623 15.1454 9.5621C16.1456 8.5619 17.5022 8 18.9167 8H37.5833L50.9167 21.3333V32.6667" stroke="#F8FCFF" stroke-width="5.33333" stroke-linecap="round" stroke-linejoin="round"/>
</g>
<defs>
<clipPath id="clip0_225_29262">
<rect width="64" height="64" fill="white" transform="translate(0.25)"/>
</clipPath>
</defs>
</svg>
