<svg width="25" height="24" viewBox="0 0 25 24" fill="none" xmlns="http://www.w3.org/2000/svg">
<path d="M14.247 13.79C14.517 14.47 14.667 15.22 14.667 16C14.667 17.77 13.897 19.37 12.667 20.46C11.5723 21.4541 10.1457 22.0034 8.66699 22C5.35699 22 2.66699 19.31 2.66699 16C2.66699 13.24 4.54699 10.9 7.08699 10.21" stroke="#097AF1" stroke-width="1.5" stroke-linecap="round" stroke-linejoin="round"/>
<path d="M18.247 10.21C20.787 10.9 22.667 13.24 22.667 16C22.667 19.31 19.977 22 16.667 22C15.1883 22.0034 13.7617 21.4541 12.667 20.46" stroke="#097AF1" stroke-width="1.5" stroke-linecap="round" stroke-linejoin="round"/>
<path d="M6.66699 8C6.66699 9.5913 7.29913 11.1174 8.42435 12.2426C9.54957 13.3679 11.0757 14 12.667 14C14.2583 14 15.7844 13.3679 16.9096 12.2426C18.0349 11.1174 18.667 9.5913 18.667 8C18.667 6.4087 18.0349 4.88258 16.9096 3.75736C15.7844 2.63214 14.2583 2 12.667 2C11.0757 2 9.54957 2.63214 8.42435 3.75736C7.29913 4.88258 6.66699 6.4087 6.66699 8Z" stroke="#097AF1" stroke-width="1.5" stroke-linecap="round" stroke-linejoin="round"/>
</svg>
