<svg width="187" height="179" viewBox="0 0 187 179" fill="none" xmlns="http://www.w3.org/2000/svg">
<path d="M24.9747 78.3417L76.2767 84.0147L83.5507 79.8147C87.0277 77.8067 92.2877 77.5887 95.2987 79.3277L109.845 87.7257L186.814 96.2367V127.225L186.78 127.221C186.757 128.54 185.817 129.923 183.938 131.007L128.223 163.174C124.746 165.182 119.486 165.4 116.475 163.661L26.9927 111.998C25.4627 111.115 24.8167 109.896 24.9987 108.648L24.9747 78.3417Z" fill="url(#paint0_linear_30_29410)"/>
<path d="M24.9746 72.0007L29.4136 73.4607L83.5506 42.2047C87.0276 40.1977 92.2876 39.9787 95.2986 41.7177L108.518 49.3497V51.7807L169.457 86.9637L171.534 85.7317L182.253 91.9207L186.814 90.1077V99.8967H186.773C186.829 101.263 185.892 102.694 183.937 103.822L128.222 135.989C124.745 137.996 119.485 138.214 116.474 136.476L26.9916 84.8127C25.6796 84.0557 25.0496 83.0577 24.9996 81.9997H24.9746V72.0007Z" fill="url(#paint1_linear_30_29410)"/>
<path d="M183.938 102.554L128.223 134.721C124.746 136.728 119.486 136.946 116.475 135.208L26.9926 83.5447C25.6816 82.7877 25.0506 81.7897 25.0006 80.7317H24.9756V81.9997H25.0006C25.0506 83.0567 25.6806 84.0557 26.9926 84.8127L116.475 136.476C119.486 138.214 124.746 137.996 128.223 135.989L183.938 103.822C185.893 102.693 186.83 101.262 186.774 99.8967H186.814V98.6287H186.774C186.83 99.9937 185.893 101.425 183.938 102.554Z" fill="black"/>
<path d="M183.938 126.217L128.223 158.384C124.746 160.391 119.486 160.609 116.475 158.871L26.9926 107.208C25.6816 106.451 25.0506 105.453 25.0006 104.395H24.9756V105.663H25.0006C25.0506 106.72 25.6806 107.719 26.9926 108.476L116.475 160.139C119.486 161.877 124.746 161.659 128.223 159.652L183.938 127.485C185.893 126.356 186.83 124.925 186.774 123.56H186.814V122.292H186.774C186.83 123.657 185.893 125.088 183.938 126.217Z" fill="url(#paint2_linear_30_29410)"/>
<path d="M125.469 0.947662L174.046 28.9937C178.041 31.3007 180.589 37.0897 179.736 41.9237L172.83 81.0887L109.786 44.6897L116.692 5.52466C117.545 0.690661 121.474 -1.35934 125.469 0.947662Z" fill="url(#paint3_linear_30_29410)"/>
<path d="M124.201 1.85963L172.778 29.9056C176.773 32.2126 179.321 38.0016 178.468 42.8356L171.562 82.0006L108.518 45.6016L115.424 6.43663C116.276 1.60163 120.206 -0.447366 124.201 1.85963Z" fill="url(#paint4_linear_30_29410)"/>
<path d="M26.9932 74.9756L116.475 126.639C119.486 128.378 124.746 128.159 128.223 126.152L183.938 93.9846C187.415 91.9776 187.793 88.9406 184.782 87.2016L171.535 79.5536L169.458 80.7856L108.519 45.6026V43.1716L95.3002 35.5396C92.2892 33.8006 87.0293 34.0186 83.5523 36.0266L27.8373 68.1936C24.3593 70.2006 23.9812 73.2376 26.9932 74.9756Z" fill="url(#paint5_linear_30_29410)"/>
<path d="M72.9055 67.4947L129.432 100.13C131.232 101.169 134.376 101.039 136.455 99.8387L169.457 80.7847L108.518 45.6017V43.1707L73.4095 63.4397C71.3315 64.6407 71.1055 66.4557 72.9055 67.4947Z" fill="url(#paint6_linear_30_29410)"/>
<path d="M129.432 100.13L72.9059 67.4947C72.5859 67.3097 72.4078 67.0787 72.2148 66.8527C72.4998 66.5017 72.8959 66.1667 73.4099 65.8707L108.518 45.6017L169.457 80.7847L136.455 99.8387C134.376 101.039 131.232 101.17 129.432 100.13Z" fill="url(#paint7_linear_30_29410)"/>
<path d="M162.541 82.5317L106.396 50.1157C105.643 49.6807 105.737 48.9207 106.607 48.4187C107.477 47.9167 108.793 47.8617 109.546 48.2967L165.692 80.7127C166.445 81.1477 166.351 81.9077 165.481 82.4097C164.611 82.9127 163.295 82.9667 162.541 82.5317Z" fill="black"/>
<path d="M115.553 49.6636L116.543 44.0466C116.552 43.9936 116.583 43.9636 116.594 43.9116L115.806 43.3396L117.702 42.1936L117.701 42.2146C118.318 41.8566 119.094 41.8456 119.887 42.3026L163.35 67.3956C164.872 68.2746 165.843 70.4796 165.518 72.3216L164.527 77.9386L162.765 79.0006L162.038 76.5016L115.553 49.6636Z" fill="url(#paint8_linear_30_29410)"/>
<path d="M118.125 43.3647L161.588 68.4577C163.11 69.3367 164.08 71.5417 163.756 73.3837L162.766 79.0007L113.791 50.7257L114.781 45.1087C115.106 43.2667 116.603 42.4857 118.125 43.3647Z" fill="url(#paint9_linear_30_29410)"/>
<path d="M44.1169 102.637L99.8309 134.804C101.924 136.012 103.213 138.245 103.213 140.662V156.132L40.1689 119.733V104.916C40.1689 102.89 42.3619 101.624 44.1169 102.637Z" fill="black"/>
<path d="M44.1114 102.672L99.8314 134.842C101.924 136.05 103.213 138.283 103.213 140.7V147.57L44.1104 113.447V102.672H44.1114Z" fill="url(#paint10_linear_30_29410)"/>
<path d="M40.1686 119.734L103.213 154.165V156.132L79.8536 169.802L16.8086 133.403V131.436L40.1686 119.734Z" fill="url(#paint11_linear_30_29410)"/>
<path d="M40.1686 117.766L103.213 154.165L79.8536 167.835L16.8086 131.436L40.1686 117.766Z" fill="url(#paint12_linear_30_29410)"/>
<path d="M5.97501 147.899L51.896 121.496L94.068 145.844L99.266 145.116V148.846L47.37 178.65L0 151.301V147.571L5.97501 147.899Z" fill="url(#paint13_linear_30_29410)"/>
<path d="M47.37 174.92L99.266 145.116L51.896 117.766L0 147.571L47.37 174.92Z" fill="url(#paint14_linear_30_29410)"/>
<path d="M36.6115 80.5286L26.9935 74.9756C23.9825 73.2366 24.3605 70.2006 27.8375 68.1926L83.5525 36.0256C87.0295 34.0186 92.2895 33.7996 95.3005 35.5386L104.918 41.0916L36.6115 80.5286Z" fill="url(#paint15_linear_30_29410)"/>
<path d="M37.8053 81.2176L36.6113 80.5286L104.917 41.0916L106.111 41.7816L37.8053 81.2176Z" fill="black"/>
<path d="M39.8413 69.8147L34.9463 66.9887C34.6453 66.8147 34.6833 66.5107 35.0303 66.3107L36.2293 65.6187C36.5773 65.4177 37.1033 65.3957 37.4043 65.5697L42.2993 68.3957C42.6003 68.5697 42.5623 68.8737 42.2153 69.0737L41.0163 69.7657C40.6683 69.9667 40.1423 69.9887 39.8413 69.8147Z" fill="url(#paint16_linear_30_29410)"/>
<path d="M44.5409 72.5277L43.1739 71.7387C42.8729 71.5647 42.9108 71.2607 43.2578 71.0607L44.4568 70.3687C44.8048 70.1677 45.3308 70.1457 45.6318 70.3197L46.9988 71.1097C47.2998 71.2837 47.2619 71.5877 46.9149 71.7877L45.7159 72.4797C45.3679 72.6797 44.8419 72.7017 44.5409 72.5277Z" fill="url(#paint17_linear_30_29410)"/>
<path d="M44.6021 67.0656L39.7071 64.2396C39.4061 64.0656 39.444 63.7616 39.791 63.5616L40.9901 62.8696C41.3381 62.6686 41.8641 62.6466 42.1651 62.8206L47.0601 65.6466C47.3611 65.8206 47.323 66.1246 46.976 66.3246L45.7771 67.0166C45.4291 67.2176 44.9031 67.2396 44.6021 67.0656Z" fill="url(#paint18_linear_30_29410)"/>
<path d="M74.3442 52.6066L69.4493 49.7806C69.1483 49.6066 69.1862 49.3026 69.5332 49.1026L70.7322 48.4106C71.0802 48.2096 71.6062 48.1886 71.9072 48.3616L76.8022 51.1876C77.1032 51.3616 77.0652 51.6656 76.7182 51.8656L75.5192 52.5576C75.1712 52.7596 74.6452 52.7806 74.3442 52.6066Z" fill="url(#paint19_linear_30_29410)"/>
<path d="M78.3726 50.2816L73.4776 47.4556C73.1766 47.2816 73.2146 46.9776 73.5616 46.7776L74.7605 46.0856C75.1085 45.8846 75.6346 45.8626 75.9356 46.0366L80.8306 48.8626C81.1316 49.0366 81.0936 49.3406 80.7466 49.5406L79.5476 50.2326C79.1996 50.4336 78.6736 50.4556 78.3726 50.2816Z" fill="url(#paint20_linear_30_29410)"/>
<path d="M82.4009 47.9556L77.5059 45.1296C77.2049 44.9556 77.2429 44.6516 77.5899 44.4516L78.7889 43.7596C79.1369 43.5586 79.6629 43.5366 79.9639 43.7106L84.8589 46.5366C85.1599 46.7106 85.1219 47.0146 84.7749 47.2146L83.5759 47.9066C83.2289 48.1076 82.7029 48.1296 82.4009 47.9556Z" fill="url(#paint21_linear_30_29410)"/>
<path d="M88.7782 46.9866L81.5342 42.8046C81.2332 42.6306 81.2712 42.3266 81.6182 42.1266L82.8172 41.4346C83.1652 41.2336 83.6912 41.2116 83.9922 41.3856L91.2362 45.5676C91.5372 45.7416 91.4992 46.0456 91.1522 46.2456L89.9532 46.9376C89.6052 47.1386 89.0792 47.1596 88.7782 46.9866Z" fill="url(#paint22_linear_30_29410)"/>
<path d="M49.3016 69.7787L47.9346 68.9887C47.6336 68.8147 47.6716 68.5117 48.0186 68.3107L49.2176 67.6187C49.5656 67.4177 50.0916 67.3957 50.3926 67.5697L51.7596 68.3587C52.0606 68.5327 52.0226 68.8367 51.6756 69.0367L50.4766 69.7287C50.1286 69.9307 49.6026 69.9527 49.3016 69.7787Z" fill="url(#paint23_linear_30_29410)"/>
<path d="M57.1135 65.2676L47.5205 59.7286C47.2195 59.5546 47.2575 59.2506 47.6045 59.0506L57.0315 53.6076C57.3795 53.4066 57.9055 53.3856 58.2065 53.5586L67.7995 59.0976C68.1005 59.2716 68.0625 59.5756 67.7155 59.7756L58.2885 65.2176C57.9405 65.4196 57.4145 65.4416 57.1135 65.2676Z" fill="url(#paint24_linear_30_29410)"/>
<path d="M30.8093 73.6456C30.2313 73.9786 29.2953 73.9796 28.7173 73.6456C28.1393 73.3116 28.1403 72.7716 28.7173 72.4376C29.2953 72.1036 30.2313 72.1036 30.8093 72.4376C31.3863 72.7716 31.3863 73.3126 30.8093 73.6456Z" fill="url(#paint25_linear_30_29410)"/>
<path d="M36.9333 77.1816C36.3553 77.5156 35.4193 77.5156 34.8413 77.1816C34.2633 76.8486 34.2643 76.3076 34.8413 75.9736C35.4193 75.6396 36.3553 75.6396 36.9333 75.9736C37.5113 76.3076 37.5113 76.8486 36.9333 77.1816Z" fill="url(#paint26_linear_30_29410)"/>
<path d="M87.0235 98.3207L81.1575 94.9337C80.9735 94.8277 80.9965 94.6417 81.2085 94.5187L86.9725 91.1907C87.1855 91.0677 87.5065 91.0547 87.6905 91.1607L93.5565 94.5477C93.7405 94.6537 93.7175 94.8397 93.5045 94.9627L87.7405 98.2907C87.5295 98.4127 87.2085 98.4267 87.0235 98.3207Z" fill="url(#paint27_linear_30_29410)"/>
<defs>
<linearGradient id="paint0_linear_30_29410" x1="186.814" y1="121.496" x2="24.9684" y2="121.496" gradientUnits="userSpaceOnUse">
<stop stop-color="#E6EAF2"/>
<stop offset="0.1958" stop-color="#E4E8F0"/>
<stop offset="0.2663" stop-color="#DEE2E9"/>
<stop offset="0.3166" stop-color="#D2D6DE"/>
<stop offset="0.3572" stop-color="#C2C6CD"/>
<stop offset="0.3917" stop-color="#ADB0B7"/>
<stop offset="0.412" stop-color="#9DA0A6"/>
</linearGradient>
<linearGradient id="paint1_linear_30_29410" x1="25.3238" y1="89.0968" x2="186.679" y2="89.0968" gradientUnits="userSpaceOnUse">
<stop offset="0.5657" stop-color="#0B0C0D"/>
<stop offset="0.5838" stop-color="#131416"/>
<stop offset="0.6308" stop-color="#222327"/>
<stop offset="0.6895" stop-color="#2C2E32"/>
<stop offset="0.7717" stop-color="#323439"/>
<stop offset="1" stop-color="#34363B"/>
</linearGradient>
<linearGradient id="paint2_linear_30_29410" x1="24.9749" y1="132.854" x2="186.814" y2="132.854" gradientUnits="userSpaceOnUse">
<stop stop-color="#0B0C0D"/>
<stop offset="0.2626" stop-color="#0E0F10"/>
<stop offset="0.4886" stop-color="#17191B"/>
<stop offset="0.701" stop-color="#27292D"/>
<stop offset="0.9041" stop-color="#3D4045"/>
<stop offset="1" stop-color="#4A4D54"/>
</linearGradient>
<linearGradient id="paint3_linear_30_29410" x1="179.901" y1="40.5444" x2="109.786" y2="40.5444" gradientUnits="userSpaceOnUse">
<stop stop-color="#E6EAF2"/>
<stop offset="0.3424" stop-color="#E0E4EC"/>
<stop offset="1" stop-color="#D9DDE6"/>
</linearGradient>
<linearGradient id="paint4_linear_30_29410" x1="108.518" y1="41.4561" x2="178.632" y2="41.4561" gradientUnits="userSpaceOnUse">
<stop stop-color="#CBD0D9"/>
<stop offset="0.4117" stop-color="#C5CAD2"/>
<stop offset="1" stop-color="#B5B8BF"/>
</linearGradient>
<linearGradient id="paint5_linear_30_29410" x1="56.0724" y1="51.0848" x2="153.875" y2="109.992" gradientUnits="userSpaceOnUse">
<stop stop-color="#494B4D"/>
<stop offset="1" stop-color="#66666B"/>
</linearGradient>
<linearGradient id="paint6_linear_30_29410" x1="101.169" y1="83.8133" x2="120.605" y2="50.1499" gradientUnits="userSpaceOnUse">
<stop stop-color="#0B0C0D"/>
<stop offset="0.1256" stop-color="#121314"/>
<stop offset="0.6795" stop-color="#2B2C30"/>
<stop offset="1" stop-color="#34363B"/>
</linearGradient>
<linearGradient id="paint7_linear_30_29410" x1="132.604" y1="111.386" x2="123.242" y2="60.0128" gradientUnits="userSpaceOnUse">
<stop stop-color="#4E4F52"/>
<stop offset="0.2754" stop-color="#444547"/>
<stop offset="0.7511" stop-color="#292A2B"/>
<stop offset="1" stop-color="#18191A"/>
</linearGradient>
<linearGradient id="paint8_linear_30_29410" x1="150.439" y1="91.7603" x2="137.523" y2="50.5339" gradientUnits="userSpaceOnUse">
<stop stop-color="#494B4D"/>
<stop offset="1" stop-color="#66666B"/>
</linearGradient>
<linearGradient id="paint9_linear_30_29410" x1="113.791" y1="61.0021" x2="163.818" y2="61.0021" gradientUnits="userSpaceOnUse">
<stop stop-color="#0B0C0D"/>
<stop offset="0.1138" stop-color="#141517"/>
<stop offset="0.4097" stop-color="#26272B"/>
<stop offset="0.7056" stop-color="#303237"/>
<stop offset="1" stop-color="#34363B"/>
</linearGradient>
<linearGradient id="paint10_linear_30_29410" x1="73.6624" y1="130.51" x2="78.3289" y2="122.427" gradientUnits="userSpaceOnUse">
<stop stop-color="#0B0C0D"/>
<stop offset="0.1138" stop-color="#141517"/>
<stop offset="0.4097" stop-color="#26272B"/>
<stop offset="0.7056" stop-color="#303237"/>
<stop offset="1" stop-color="#34363B"/>
</linearGradient>
<linearGradient id="paint11_linear_30_29410" x1="16.809" y1="144.768" x2="103.213" y2="144.768" gradientUnits="userSpaceOnUse">
<stop offset="0.5721" stop-color="#0B0C0D"/>
<stop offset="0.5899" stop-color="#131416"/>
<stop offset="0.6363" stop-color="#222327"/>
<stop offset="0.6941" stop-color="#2C2E32"/>
<stop offset="0.7751" stop-color="#323439"/>
<stop offset="1" stop-color="#34363B"/>
</linearGradient>
<linearGradient id="paint12_linear_30_29410" x1="16.809" y1="142.8" x2="103.213" y2="142.8" gradientUnits="userSpaceOnUse">
<stop stop-color="#494B4D"/>
<stop offset="1" stop-color="#66666B"/>
</linearGradient>
<linearGradient id="paint13_linear_30_29410" x1="0.7998" y1="149.657" x2="100.07" y2="150.502" gradientUnits="userSpaceOnUse">
<stop offset="0.4616" stop-color="#C3CBD9"/>
<stop offset="0.4625" stop-color="#C4CCDA"/>
<stop offset="0.482" stop-color="#DADFE7"/>
<stop offset="0.5048" stop-color="#EBEDF2"/>
<stop offset="0.5332" stop-color="#F6F7FA"/>
<stop offset="0.5731" stop-color="#FDFDFE"/>
<stop offset="0.6839" stop-color="white"/>
</linearGradient>
<linearGradient id="paint14_linear_30_29410" x1="47.0569" y1="173.325" x2="52.4121" y2="117.236" gradientUnits="userSpaceOnUse">
<stop stop-color="#E6EAF2"/>
<stop offset="1" stop-color="white"/>
</linearGradient>
<linearGradient id="paint15_linear_30_29410" x1="55.5171" y1="48.4378" x2="67.3549" y2="59.43" gradientUnits="userSpaceOnUse">
<stop stop-color="#4E4F52"/>
<stop offset="0.2754" stop-color="#444547"/>
<stop offset="0.7511" stop-color="#292A2B"/>
<stop offset="1" stop-color="#18191A"/>
</linearGradient>
<linearGradient id="paint16_linear_30_29410" x1="35.6307" y1="65.964" x2="38.6235" y2="71.1472" gradientUnits="userSpaceOnUse">
<stop stop-color="#5C5E61"/>
<stop offset="1" stop-color="#7D7D82"/>
</linearGradient>
<linearGradient id="paint17_linear_30_29410" x1="43.8572" y1="70.7133" x2="45.0862" y2="72.8419" gradientUnits="userSpaceOnUse">
<stop stop-color="#5C5E61"/>
<stop offset="1" stop-color="#7D7D82"/>
</linearGradient>
<linearGradient id="paint18_linear_30_29410" x1="40.3912" y1="63.2154" x2="43.384" y2="68.3987" gradientUnits="userSpaceOnUse">
<stop stop-color="#5C5E61"/>
<stop offset="1" stop-color="#7D7D82"/>
</linearGradient>
<linearGradient id="paint19_linear_30_29410" x1="70.1335" y1="48.7567" x2="73.1263" y2="53.9399" gradientUnits="userSpaceOnUse">
<stop stop-color="#5C5E61"/>
<stop offset="1" stop-color="#7D7D82"/>
</linearGradient>
<linearGradient id="paint20_linear_30_29410" x1="74.1621" y1="46.4309" x2="77.1549" y2="51.6141" gradientUnits="userSpaceOnUse">
<stop stop-color="#5C5E61"/>
<stop offset="1" stop-color="#7D7D82"/>
</linearGradient>
<linearGradient id="paint21_linear_30_29410" x1="78.1907" y1="44.1052" x2="81.1835" y2="49.2885" gradientUnits="userSpaceOnUse">
<stop stop-color="#5C5E61"/>
<stop offset="1" stop-color="#7D7D82"/>
</linearGradient>
<linearGradient id="paint22_linear_30_29410" x1="82.2184" y1="41.7794" x2="86.386" y2="48.9973" gradientUnits="userSpaceOnUse">
<stop stop-color="#5C5E61"/>
<stop offset="1" stop-color="#7D7D82"/>
</linearGradient>
<linearGradient id="paint23_linear_30_29410" x1="48.6177" y1="67.9647" x2="49.8467" y2="70.0933" gradientUnits="userSpaceOnUse">
<stop stop-color="#5C5E61"/>
<stop offset="1" stop-color="#7D7D82"/>
</linearGradient>
<linearGradient id="paint24_linear_30_29410" x1="52.318" y1="56.3296" x2="57.6605" y2="65.5824" gradientUnits="userSpaceOnUse">
<stop stop-color="#5C5E61"/>
<stop offset="1" stop-color="#7D7D82"/>
</linearGradient>
<linearGradient id="paint25_linear_30_29410" x1="28.7168" y1="73.646" x2="29.7629" y2="71.8341" gradientUnits="userSpaceOnUse">
<stop stop-color="#FF6E00"/>
<stop offset="1" stop-color="#FF668A"/>
</linearGradient>
<linearGradient id="paint26_linear_30_29410" x1="34.8413" y1="77.182" x2="35.8874" y2="75.3701" gradientUnits="userSpaceOnUse">
<stop stop-color="#00E8DD"/>
<stop offset="1" stop-color="#059C24"/>
</linearGradient>
<linearGradient id="paint27_linear_30_29410" x1="81.0333" y1="94.7405" x2="93.6826" y2="94.7405" gradientUnits="userSpaceOnUse">
<stop stop-color="#424345"/>
<stop offset="0.3376" stop-color="#38393A"/>
<stop offset="0.921" stop-color="#1C1D1E"/>
<stop offset="1" stop-color="#18191A"/>
</linearGradient>
</defs>
</svg>
