<svg width="138" height="140" viewBox="0 0 138 140" fill="none" xmlns="http://www.w3.org/2000/svg">
<path d="M105 105C124.33 85.67 124.33 54.3299 105 35C85.6701 15.67 54.33 15.6701 35 35.0001C15.6701 54.3301 15.67 85.6701 35 105C54.3299 124.33 85.67 124.33 105 105Z" fill="white"/>
<path d="M70.655 120.15C97.9918 120.15 120.153 97.9891 120.153 70.6523C120.153 43.3154 97.9918 21.1545 70.655 21.1545C43.3181 21.1545 21.1572 43.3154 21.1572 70.6523C21.1572 97.9891 43.3181 120.15 70.655 120.15Z" fill="url(#paint0_linear_30_29636)"/>
<path d="M70.404 106.684C90.3028 106.684 106.434 90.5525 106.434 70.6537C106.434 50.7549 90.3028 34.6238 70.404 34.6238C50.5052 34.6238 34.374 50.7549 34.374 70.6537C34.374 90.5525 50.5052 106.684 70.404 106.684Z" fill="url(#paint1_linear_30_29636)"/>
<path d="M46 64.1243L49.8508 67.9751C60.9793 56.8467 79.0232 56.8472 90.1502 67.9742L94 64.1243C80.7466 50.8707 59.2549 50.8693 46 64.1243Z" fill="url(#paint2_linear_30_29636)"/>
<path d="M54.2324 72.3564L58.4815 76.6055C64.843 70.2441 75.1583 70.2445 81.5193 76.6056L85.7686 72.3564C77.061 63.6491 62.9412 63.6475 54.2324 72.3564Z" fill="url(#paint3_linear_30_29636)"/>
<path d="M65.5859 84.926C63.484 82.824 63.4846 79.4159 65.5866 77.3136C67.6882 75.2121 71.096 75.2119 73.198 77.3139C75.3008 79.4167 75.3003 82.8244 73.1989 84.9258C71.0966 87.028 67.6886 87.0287 65.5859 84.926Z" fill="url(#paint4_linear_30_29636)"/>
<defs>
<linearGradient id="paint0_linear_30_29636" x1="100.21" y1="107.148" x2="37.9066" y2="30.2126" gradientUnits="userSpaceOnUse">
<stop stop-color="#E6E6E6"/>
<stop offset="1" stop-color="white"/>
</linearGradient>
<linearGradient id="paint1_linear_30_29636" x1="65.5181" y1="46.4373" x2="78.7953" y2="112.244" gradientUnits="userSpaceOnUse">
<stop stop-color="#E6E6E6"/>
<stop offset="1" stop-color="white"/>
</linearGradient>
<linearGradient id="paint2_linear_30_29636" x1="70" y1="54.1836" x2="70" y2="67.9751" gradientUnits="userSpaceOnUse">
<stop stop-color="#097AF1"/>
<stop offset="1" stop-color="#003C7C"/>
</linearGradient>
<linearGradient id="paint3_linear_30_29636" x1="70.0005" y1="65.8253" x2="70.0005" y2="76.6056" gradientUnits="userSpaceOnUse">
<stop stop-color="#097AF1"/>
<stop offset="1" stop-color="#003C7C"/>
</linearGradient>
<linearGradient id="paint4_linear_30_29636" x1="69.3924" y1="75.7374" x2="69.3924" y2="86.5028" gradientUnits="userSpaceOnUse">
<stop stop-color="#097AF1"/>
<stop offset="1" stop-color="#003C7C"/>
</linearGradient>
</defs>
</svg>
