<svg width="117" height="116" viewBox="0 0 117 116" fill="none" xmlns="http://www.w3.org/2000/svg">
<path d="M80.1537 85.6757L79.9895 85.6754C79.2875 81.7438 76.3204 77.9145 71.0893 74.8943C59.0564 67.9472 39.6079 67.9117 27.6501 74.8158C22.5004 77.7891 19.582 81.5642 18.8866 85.4543L18.7217 85.4536V87.2901L18.7224 87.2905C18.7253 91.8452 21.7482 96.4095 27.7861 99.8957C39.819 106.843 59.2675 106.878 71.2253 99.9741C77.1804 96.536 80.1537 92.0256 80.153 87.5053L80.1541 87.5049V85.6757H80.1537Z" fill="#E6E8EA"/>
<path d="M80.1534 85.0514H80.1314C79.8605 80.7097 76.8462 76.4057 71.0887 73.0815C59.0557 66.1341 39.6073 66.0989 27.6495 73.0031C22.0078 76.2601 19.0429 80.4802 18.7467 84.7589H18.7207V85.4796L18.7214 85.48C18.7255 90.034 21.7479 94.5975 27.7851 98.083C39.818 105.03 59.2665 105.066 71.2243 98.1614C77.1182 94.7585 80.09 90.3053 80.1502 85.8315L80.1531 85.8308L80.1534 85.0514Z" fill="#6596E0"/>
<path d="M80.1542 85.1279C80.2071 75.3339 66.4976 67.32 49.5333 67.2284C32.5689 67.1368 18.7736 75.0022 18.7208 84.7962C18.6679 94.5902 32.3774 102.604 49.3417 102.696C66.3061 102.787 80.1013 94.9219 80.1542 85.1279Z" fill="#6596E0"/>
<path d="M79.5746 84.7906C79.6265 75.1812 66.1755 67.3184 49.531 67.2285C32.8865 67.1387 19.3514 74.8557 19.2995 84.4651C19.2476 94.0745 32.6986 101.937 49.3431 102.027C65.9876 102.117 79.5227 94.3999 79.5746 84.7906Z" fill="#94BDFF"/>
<path d="M28.1855 90.388L27.0411 89.7229C26.4129 89.3578 26.0219 88.584 26.0186 87.4865L27.163 88.1516C27.1663 89.2486 27.5573 90.0229 28.1855 90.388Z" fill="#E8EFEF"/>
<path d="M58.5073 14.9719L59.6518 15.6371C59.0153 15.2676 58.1356 15.3166 57.1693 15.8748L56.0249 15.2096C56.9917 14.6515 57.8714 14.6024 58.5073 14.9719Z" fill="#E8EFEF"/>
<path d="M27.1639 88.1516L26.0194 87.4864L25.8755 36.6371L27.0194 37.3022L27.1639 88.1516Z" fill="#E8EFEF"/>
<path d="M30.5028 31.2707L29.3584 30.6056L56.0248 15.2097L57.1693 15.8748L30.5028 31.2707Z" fill="#E8EFEF"/>
<path d="M27.019 37.3023L25.8745 36.6371C25.8685 34.4299 27.4359 31.7153 29.3574 30.6056L30.5019 31.2707C28.5803 32.3799 27.0129 35.095 27.019 37.3023Z" fill="#E8EFEF"/>
<path d="M57.1694 15.8747C59.0898 14.7656 60.6677 15.6652 60.6738 17.8718L60.8178 68.7212C60.8238 70.9295 59.2564 73.6447 57.3359 74.7538L30.6701 90.1492C28.748 91.2589 27.1706 90.3599 27.164 88.151L27.02 37.3017C27.014 35.095 28.5814 32.3798 30.5029 31.2701L57.1694 15.8747Z" fill="#FAFCFC"/>
<path d="M31.7353 82.7675L30.94 82.3053C30.7641 82.2033 30.6554 81.986 30.6543 81.6777L31.4496 82.1399C31.4507 82.4482 31.5599 82.6655 31.7353 82.7675Z" fill="#C0D5EB"/>
<path d="M37.158 71.5512L37.9533 72.0134C37.7752 71.9097 37.5286 71.9246 37.2567 72.0818L36.4614 71.6196C36.7339 71.4624 36.9804 71.4481 37.158 71.5512Z" fill="#C0D5EB"/>
<path d="M31.4499 82.1399L30.6546 81.6777L30.6392 76.1073L31.4345 76.5695L31.4499 82.1399Z" fill="#C0D5EB"/>
<path d="M32.4101 74.8802L31.6143 74.418L36.4617 71.6196L37.2575 72.0817L32.4101 74.8802Z" fill="#C0D5EB"/>
<path d="M31.4345 76.5695L30.6392 76.1073C30.6375 75.4863 31.0743 74.7296 31.6148 74.418L32.4101 74.8801C31.8691 75.1923 31.4328 75.9485 31.4345 76.5695Z" fill="#C0D5EB"/>
<path d="M37.2581 72.0817C37.7986 71.7695 38.2382 72.0199 38.2398 72.6409L38.2558 78.2108C38.2575 78.8318 37.8207 79.5885 37.2802 79.9007L32.4328 82.6992C31.8923 83.0113 31.4527 82.7609 31.4511 82.1394L31.4351 76.5695C31.4334 75.9484 31.8702 75.1923 32.4107 74.8801L37.2581 72.0817Z" fill="#D4E8FF"/>
<path d="M31.7016 70.6897L30.9063 70.2276C30.7309 70.1255 30.6217 69.9082 30.6206 69.5999L31.4159 70.0621C31.417 70.3704 31.5257 70.5877 31.7016 70.6897Z" fill="#C0D5EB"/>
<path d="M37.1253 59.4733L37.9206 59.9355C37.7425 59.8318 37.4959 59.8467 37.224 60.0039L36.4287 59.5417C36.7012 59.3845 36.9471 59.3696 37.1253 59.4733Z" fill="#C0D5EB"/>
<path d="M31.4162 70.0622L30.6209 69.6L30.6055 64.0295L31.4008 64.4923L31.4162 70.0622Z" fill="#C0D5EB"/>
<path d="M32.3763 62.8023L31.5815 62.3401L36.4284 59.5411L37.2237 60.0039L32.3763 62.8023Z" fill="#C0D5EB"/>
<path d="M31.4008 64.4922L30.6055 64.03C30.6038 63.409 31.0406 62.6523 31.5811 62.3401L32.3764 62.8023C31.8354 63.1144 31.3991 63.8711 31.4008 64.4922Z" fill="#C0D5EB"/>
<path d="M37.2234 60.0038C37.7639 59.6917 38.2035 59.9421 38.2052 60.5636L38.2212 66.1335C38.2228 66.7546 37.786 67.5113 37.2455 67.8234L32.3981 70.6219C31.8576 70.934 31.418 70.6837 31.4164 70.0621L31.4004 64.4922C31.3987 63.8712 31.8356 63.1145 32.3761 62.8023L37.2234 60.0038Z" fill="#D4E8FF"/>
<path d="M31.6669 58.6101L30.8716 58.148C30.6957 58.0459 30.587 57.8286 30.5859 57.5203L31.3812 57.9825C31.3823 58.2908 31.491 58.5081 31.6669 58.6101Z" fill="#C0D5EB"/>
<path d="M37.0896 47.3938L37.885 47.856C37.7068 47.7523 37.4603 47.7672 37.1884 47.9244L36.3931 47.4622C36.665 47.305 36.9115 47.2906 37.0896 47.3938Z" fill="#C0D5EB"/>
<path d="M31.3815 57.9825L30.5862 57.5203L30.5708 51.9504L31.3661 52.4126L31.3815 57.9825Z" fill="#C0D5EB"/>
<path d="M32.3412 50.7228L31.5459 50.2606L36.3933 47.4622L37.1886 47.9243L32.3412 50.7228Z" fill="#C0D5EB"/>
<path d="M31.3661 52.4126L30.5708 51.9504C30.5692 51.3294 31.006 50.5727 31.5465 50.2606L32.3418 50.7227C31.8007 51.0349 31.3639 51.7916 31.3661 52.4126Z" fill="#C0D5EB"/>
<path d="M37.1888 47.9243C37.7293 47.6121 38.1688 47.8625 38.1705 48.4841L38.1865 54.054C38.1881 54.675 37.7513 55.4317 37.2108 55.7439L32.3634 58.5423C31.8229 58.8545 31.3834 58.6036 31.3817 57.9825L31.3657 52.4126C31.3641 51.7916 31.8009 51.0349 32.3414 50.7228L37.1888 47.9243Z" fill="#D4E8FF"/>
<path d="M31.6332 46.5321L30.8379 46.07C30.662 45.9679 30.5533 45.7506 30.5522 45.4423L31.3476 45.9045C31.3487 46.2128 31.4573 46.4301 31.6332 46.5321Z" fill="#C0D5EB"/>
<path d="M37.056 35.3157L37.8513 35.7779C37.6731 35.6742 37.4266 35.6891 37.1547 35.8463L36.3594 35.3841C36.6313 35.2269 36.8778 35.2126 37.056 35.3157Z" fill="#C0D5EB"/>
<path d="M31.3479 45.9046L30.5526 45.4424L30.5366 39.8725L31.3319 40.3347L31.3479 45.9046Z" fill="#C0D5EB"/>
<path d="M32.3075 38.6449L31.5122 38.1827L36.3596 35.3842L37.1549 35.8464L32.3075 38.6449Z" fill="#C0D5EB"/>
<path d="M31.3319 40.3347L30.5366 39.8725C30.535 39.2515 30.9718 38.4948 31.5123 38.1826L32.3076 38.6448C31.7671 38.957 31.3303 39.7137 31.3319 40.3347Z" fill="#C0D5EB"/>
<path d="M37.1551 35.8463C37.6956 35.5341 38.1352 35.7845 38.1368 36.4061L38.1528 41.976C38.1545 42.597 37.7176 43.3537 37.1771 43.6653L32.3298 46.4638C31.7893 46.776 31.3497 46.5256 31.348 45.9045L31.332 40.3346C31.3304 39.7136 31.7672 38.9569 32.3077 38.6448L37.1551 35.8463Z" fill="#D4E8FF"/>
<path d="M52.1918 66.7099L52.9871 67.1721C52.8183 67.0739 52.585 67.0877 52.328 67.2361L51.5327 66.7739C51.7903 66.6255 52.0236 66.6118 52.1918 66.7099Z" fill="#C0D5EB"/>
<path d="M42.2426 73.0591L41.4473 72.597L51.5325 66.7745L52.3278 67.2367L42.2426 73.0591Z" fill="#C0D5EB"/>
<path d="M41.5885 75.2537L40.7932 74.7915C40.6266 74.695 40.5235 74.4893 40.523 74.197C40.5213 73.6101 40.9349 72.8926 41.4468 72.597L42.2421 73.0592C41.7303 73.3548 41.3166 74.0723 41.3183 74.6592C41.3194 74.9515 41.4225 75.1572 41.5885 75.2537Z" fill="#C0D5EB"/>
<path d="M52.3274 67.2366C52.8393 66.941 53.2557 67.1798 53.2573 67.7666C53.259 68.3545 52.8453 69.0715 52.3335 69.3666L42.2482 75.1891C41.7364 75.4847 41.32 75.2475 41.3184 74.6591C41.3167 74.0722 41.7304 73.3547 42.2422 73.0591L52.3274 67.2366Z" fill="#D4E8FF"/>
<path d="M58.3213 59.3154L59.1166 59.7776C58.9478 59.6794 58.7145 59.6938 58.4569 59.8421L57.6616 59.3799C57.9192 59.231 58.1525 59.2172 58.3213 59.3154Z" fill="#C0D5EB"/>
<path d="M42.2324 69.2099L41.4365 68.7472L57.662 59.38L58.4573 59.8422L42.2324 69.2099Z" fill="#C0D5EB"/>
<path d="M41.5787 71.4044L40.7834 70.9422C40.6169 70.8457 40.5137 70.64 40.5132 70.3477C40.5115 69.7597 40.9252 69.0433 41.437 68.7477L42.2323 69.2099C41.7205 69.5055 41.3068 70.2219 41.3085 70.8098C41.309 71.1022 41.4122 71.3073 41.5787 71.4044Z" fill="#C0D5EB"/>
<path d="M58.4573 59.8421C58.9691 59.5465 59.3855 59.7836 59.3872 60.3721C59.3888 60.9606 58.9752 61.677 58.4634 61.9721L42.2385 71.3398C41.7267 71.6355 41.3103 71.3983 41.3086 70.8098C41.3069 70.2213 41.7206 69.5055 42.2324 69.2098L58.4573 59.8421Z" fill="#D4E8FF"/>
<path d="M52.1577 54.6314L52.953 55.0936C52.7848 54.9954 52.5509 55.0092 52.2934 55.1581L51.498 54.6959C51.7556 54.5476 51.9889 54.5338 52.1577 54.6314Z" fill="#C0D5EB"/>
<path d="M42.2079 60.9811L41.4126 60.519L51.4979 54.6959L52.2932 55.1581L42.2079 60.9811Z" fill="#C0D5EB"/>
<path d="M41.5548 63.1758L40.7595 62.7136C40.5929 62.6171 40.4898 62.4113 40.4893 62.119C40.4876 61.5311 40.9013 60.8141 41.4131 60.519L42.2084 60.9812C41.6966 61.2768 41.2829 61.9933 41.2846 62.5812C41.2851 62.8735 41.3883 63.0792 41.5548 63.1758Z" fill="#C0D5EB"/>
<path d="M52.2928 55.1581C52.8046 54.8625 53.221 55.0997 53.2227 55.6882C53.2243 56.2761 52.8107 56.9931 52.2988 57.2882L42.2136 63.1106C41.7018 63.4063 41.2854 63.1686 41.2837 62.5806C41.282 61.9921 41.6957 61.2757 42.2075 60.9806L52.2928 55.1581Z" fill="#D4E8FF"/>
<path d="M58.2866 47.2376L59.0819 47.6998C58.9131 47.6016 58.6798 47.6154 58.4223 47.7643L57.627 47.3021C57.8845 47.1532 58.1178 47.1394 58.2866 47.2376Z" fill="#C0D5EB"/>
<path d="M42.1981 57.1315L41.4028 56.6693L57.6277 47.3021L58.423 47.7643L42.1981 57.1315Z" fill="#C0D5EB"/>
<path d="M41.5441 59.3266L40.7488 58.8645C40.5822 58.7679 40.4791 58.5622 40.4785 58.2699C40.4769 57.6814 40.8905 56.965 41.4023 56.6694L42.1976 57.1316C41.6858 57.4272 41.2722 58.1436 41.2738 58.7315C41.2744 59.0244 41.3775 59.2301 41.5441 59.3266Z" fill="#C0D5EB"/>
<path d="M58.4226 47.7643C58.9345 47.4687 59.3509 47.7059 59.3525 48.2944C59.3542 48.8823 58.9405 49.5993 58.4287 49.8944L42.2038 59.2621C41.692 59.5577 41.2756 59.32 41.2739 58.7321C41.2723 58.1441 41.6859 57.4271 42.1977 57.1321L58.4226 47.7643Z" fill="#D4E8FF"/>
<path d="M52.1245 42.5534L52.9198 43.0156C52.7511 42.9174 52.5178 42.9318 52.2597 43.0807L51.4644 42.6185C51.7219 42.4696 51.9558 42.4553 52.1245 42.5534Z" fill="#C0D5EB"/>
<path d="M42.1732 48.9032L41.3779 48.441L51.4632 42.618L52.2585 43.0802L42.1732 48.9032Z" fill="#C0D5EB"/>
<path d="M41.5201 51.0961L40.7248 50.6339C40.5583 50.5374 40.4551 50.3317 40.4546 50.0394C40.4529 49.4514 40.8666 48.7361 41.3784 48.4405L42.1737 48.9027C41.6619 49.1983 41.2482 49.9131 41.2499 50.5016C41.251 50.7939 41.3541 50.9996 41.5201 51.0961Z" fill="#C0D5EB"/>
<path d="M52.2591 43.0801C52.7709 42.7845 53.1873 43.0205 53.189 43.6084C53.1906 44.1964 52.777 44.9128 52.2652 45.2084L42.1799 51.0315C41.6681 51.3271 41.2517 51.0899 41.25 50.5015C41.2484 49.9135 41.662 49.1982 42.1738 48.9026L52.2591 43.0801Z" fill="#D4E8FF"/>
<path d="M58.2529 35.1579L59.0482 35.6201C58.8794 35.522 58.6461 35.5357 58.3886 35.6847L57.5933 35.2225C57.8508 35.0736 58.0841 35.0598 58.2529 35.1579Z" fill="#C0D5EB"/>
<path d="M42.1635 45.0523L41.3682 44.5901L57.5936 35.2224L58.3889 35.6846L42.1635 45.0523Z" fill="#C0D5EB"/>
<path d="M41.5104 47.2469L40.7151 46.7847C40.5485 46.6882 40.4454 46.4824 40.4448 46.1901C40.4432 45.6022 40.8568 44.8852 41.3686 44.5901L42.1639 45.0523C41.6521 45.3479 41.2385 46.0644 41.2401 46.6523C41.2407 46.9446 41.3438 47.1503 41.5104 47.2469Z" fill="#C0D5EB"/>
<path d="M58.389 35.6846C58.9008 35.389 59.3172 35.6262 59.3189 36.2147C59.3205 36.8031 58.9069 37.519 58.3951 37.8146L42.1696 47.1824C41.6578 47.478 41.2414 47.2408 41.2398 46.6524C41.2381 46.0644 41.6517 45.3474 42.1636 45.0524L58.389 35.6846Z" fill="#D4E8FF"/>
<path d="M52.0898 30.4744L52.8851 30.9365C52.7163 30.8384 52.483 30.8527 52.2255 31.0011L51.4302 30.5389C51.6877 30.39 51.921 30.3762 52.0898 30.4744Z" fill="#C0D5EB"/>
<path d="M42.1405 36.8236L41.3452 36.3614L51.4305 30.5389L52.2258 31.0011L42.1405 36.8236Z" fill="#C0D5EB"/>
<path d="M41.4865 39.0181L40.6912 38.5559C40.5246 38.4594 40.4215 38.2537 40.4209 37.9614C40.4192 37.3729 40.8329 36.657 41.3447 36.3614L42.14 36.8236C41.6282 37.1192 41.2146 37.8356 41.2162 38.4236C41.2173 38.7159 41.3204 38.9216 41.4865 39.0181Z" fill="#C0D5EB"/>
<path d="M52.2254 31.0011C52.7372 30.7055 53.1536 30.9426 53.1553 31.5311C53.1569 32.1196 52.7433 32.836 52.2315 33.1311L42.1462 38.9536C41.6344 39.2492 41.218 39.0121 41.2163 38.4236C41.2147 37.8351 41.6283 37.1192 42.1401 36.8236L52.2254 31.0011Z" fill="#D4E8FF"/>
<path d="M58.2182 23.0799L59.0135 23.5421C58.8448 23.4439 58.6115 23.4577 58.3539 23.6066L57.5586 23.1444C57.8162 22.9955 58.0495 22.9817 58.2182 23.0799Z" fill="#C0D5EB"/>
<path d="M42.1288 32.9743L41.3335 32.5121L57.5589 23.1444L58.3542 23.6066L42.1288 32.9743Z" fill="#C0D5EB"/>
<path d="M41.4752 35.1689L40.6799 34.7067C40.5134 34.6102 40.4102 34.4045 40.4097 34.1122C40.408 33.5243 40.8217 32.8078 41.3335 32.5122L42.1288 32.9744C41.617 33.27 41.2033 33.9864 41.205 34.5744C41.2061 34.8667 41.3092 35.0724 41.4752 35.1689Z" fill="#C0D5EB"/>
<path d="M58.3538 23.6066C58.8656 23.311 59.282 23.5482 59.2837 24.1367C59.2853 24.7251 58.8717 25.4416 58.3599 25.7372L42.135 35.1049C41.6231 35.4005 41.2067 35.1634 41.2051 34.5749C41.2034 33.9864 41.6171 33.2705 42.1289 32.9749L58.3538 23.6066Z" fill="#D4E8FF"/>
<path d="M95.6594 12.8547C95.9137 13.2049 95.6969 13.2419 95.1752 12.9374C94.6534 12.6324 94.0247 12.1013 93.7704 11.7511C93.5162 11.4008 93.7335 11.3639 94.2547 11.6683C94.7764 11.9733 95.4057 12.5039 95.6594 12.8547Z" fill="#D96428"/>
<path d="M96.1814 13.3235C96.048 13.1393 95.8737 12.9799 95.6592 12.8547C95.4049 12.5044 94.7761 11.9733 94.2544 11.6683C93.7327 11.3639 93.5159 11.4003 93.7702 11.7511C94.0244 12.1013 94.6532 12.6324 95.1749 12.9374C95.6967 13.2418 95.9134 13.2054 95.6592 12.8547C95.8737 12.9799 96.048 13.1393 96.1814 13.3235C96.2758 13.4564 96.4716 13.7332 96.6111 14.1215C96.7705 14.565 96.7738 14.9323 96.7738 14.9725C96.7727 15.2191 96.7727 15.2395 96.7523 15.3961C96.7208 15.6338 96.6635 15.8087 96.6635 15.8103C96.5791 16.0557 96.5614 16.1065 96.5068 16.208C96.3651 16.471 96.3651 16.471 96.1704 16.7258C96.016 16.9117 95.4137 16.7396 94.475 16.192C92.9434 15.2974 91.0969 13.7382 90.3507 12.7096C90.0672 12.3186 89.9834 12.0605 90.0727 11.9402C90.381 11.5266 90.7864 11.2232 91.2767 11.0396C91.9788 10.7771 92.6373 10.9045 92.7625 10.9331C92.9677 10.9795 93.2004 11.0324 93.5694 11.2067C93.8672 11.3473 94.1766 11.5288 94.4883 11.7466C94.753 11.932 94.9262 12.0715 95.0525 12.173C95.0729 12.1895 95.2565 12.3384 95.4749 12.5419C95.866 12.9054 96.0557 13.1569 96.1814 13.3235Z" fill="#D96428"/>
<path d="M96.1816 13.3235C96.3272 13.5348 96.5081 13.7979 96.6454 14.2225C96.6779 14.3235 96.7232 14.4895 96.7529 14.7057C96.7739 14.8596 96.7739 14.9279 96.7728 15.1541C96.7728 15.2197 96.7634 15.5688 96.5996 15.9957C96.5246 16.1915 96.4386 16.3371 96.4104 16.3851C96.3382 16.5075 96.3161 16.5368 96.17 16.7259C96.2676 16.6085 96.1865 16.3481 95.897 15.9494C96.6101 15.0835 96.6906 14.0251 96.1816 13.3235Z" fill="#D96428"/>
<path d="M93.9963 11.4306C94.6483 11.815 95.6118 12.5414 96.1821 13.3235C96.6911 14.025 96.6106 15.0834 95.8975 15.9487C95.1512 14.9201 93.3047 13.361 91.7731 12.4664C90.8239 11.9115 90.2178 11.7428 90.0728 11.9391C90.2564 11.7108 90.2801 11.6816 90.37 11.6016C90.4197 11.5575 90.4831 11.4951 90.5366 11.4554C90.637 11.381 90.7727 11.2839 90.8808 11.2216C91.0605 11.1179 91.2475 11.0479 91.2768 11.0385C91.5084 10.9635 91.622 10.9287 91.8901 10.894C92.2149 10.8521 92.5723 10.8796 92.9523 10.9762C93.2584 11.055 93.639 11.2199 93.9963 11.4306Z" fill="#D96428"/>
<path d="M90.0714 11.9408C89.9838 12.0616 90.0676 12.3197 90.3505 12.7091C91.0967 13.7377 92.9433 15.2969 94.4749 16.1914C95.4114 16.7386 96.0131 16.9106 96.1692 16.7264C90.6715 23.2069 83.0047 27.8464 79.6762 36.1667C79.5593 36.3046 79.107 36.1755 78.4044 35.7652C77.2545 35.0934 75.8685 33.9231 75.3081 33.151C75.0958 32.8587 75.0329 32.6651 75.0985 32.5741C80.0893 25.6965 85.0801 18.8189 90.0714 11.9408Z" fill="#D96428"/>
<path d="M96.1692 16.7264C90.6715 23.2069 85.1739 29.6868 79.6762 36.1668C79.7507 36.0791 79.69 35.8833 79.4722 35.5832L95.8973 15.9488C96.1874 16.3487 96.2684 16.6095 96.1692 16.7264Z" fill="#D96428"/>
<path d="M75.0986 32.574C80.09 25.6959 85.0802 18.8183 90.0715 11.9408C90.2155 11.7422 90.8216 11.911 91.773 12.4669C93.3046 13.3615 95.1511 14.9207 95.8974 15.9493L79.4723 35.5837C78.9119 34.8116 77.5259 33.6412 76.376 32.9695C75.6617 32.552 75.2067 32.4251 75.0986 32.574Z" fill="#D96428"/>
<path d="M75.101 32.5708C75.0309 32.6601 75.0927 32.8548 75.3078 33.151C75.8676 33.9231 77.2541 35.0935 78.4041 35.7653C79.1128 36.1795 79.5661 36.3069 79.6787 36.1635L75.7043 41.2248C75.5918 41.3682 75.1385 41.2403 74.4298 40.8266C73.2798 40.1549 71.8938 38.9845 71.3335 38.2124C71.1184 37.9162 71.0566 37.7215 71.1266 37.6322C72.3191 36.1138 73.9091 34.0892 75.101 32.5708Z" fill="#D96428"/>
<path d="M79.6787 36.164L75.7044 41.2254C75.7744 41.136 75.7127 40.9414 75.4976 40.6452L79.4719 35.5838C79.687 35.88 79.7493 36.0747 79.6787 36.164Z" fill="#D96428"/>
<path d="M71.1274 37.6322L75.1018 32.5708C75.2143 32.4274 75.6676 32.5554 76.3763 32.969C77.5263 33.6408 78.9123 34.8111 79.4726 35.5832L75.4983 40.6446C74.938 39.8725 73.552 38.7021 72.402 38.0304C71.6933 37.6167 71.24 37.4888 71.1274 37.6322Z" fill="#D96428"/>
<path d="M75.4977 40.6451C76.0581 41.4173 75.5799 41.4989 74.4299 40.8272C73.28 40.1554 71.894 38.985 71.3337 38.2129C70.7733 37.4408 71.2515 37.3591 72.4014 38.0309C73.5514 38.7021 74.9373 39.873 75.4977 40.6451Z" fill="#D96428"/>
<path d="M94.282 12.0876C93.7089 11.2741 91.7874 11.1257 91.3958 11.268C91.0037 11.4103 72.0112 37.5754 72.0112 37.5754L73.2588 38.2775C73.2588 38.2775 92.3935 12.4979 92.9638 12.1593C93.5336 11.8207 94.282 12.0876 94.282 12.0876Z" fill="#F7722E"/>
<path d="M72.355 41.7885L66.9676 38.6575C69.3546 40.0446 70.8349 42.9947 70.8471 47.188C70.8708 55.6269 64.9363 65.9058 57.5911 70.1465C53.8953 72.2804 50.5464 72.4784 48.1279 71.0731L53.5153 74.2041C55.9337 75.6094 59.2826 75.4114 62.9784 73.2775C70.3237 69.0368 76.2581 58.758 76.2344 50.319C76.2223 46.1257 74.742 43.1756 72.355 41.7885Z" fill="url(#paint0_linear_16_5588)"/>
<path opacity="0.64" d="M61.3656 72.346C68.7109 68.1053 74.6453 57.8264 74.6216 49.3874C74.5979 40.9474 68.6243 37.5434 61.279 41.7841C53.9349 46.0242 47.9993 56.3036 48.023 64.7442C48.0467 73.1826 54.0215 76.5861 61.3656 72.346Z" fill="#6792D1"/>
<path opacity="0.64" d="M69.6595 40.3604C71.4917 41.9229 72.5953 44.6094 72.6052 48.2236C72.629 56.6625 66.6945 66.9414 59.3492 71.1821C56.1763 73.0137 53.2609 73.4163 50.9688 72.605C53.4159 74.692 57.1657 74.7703 61.3651 72.3458C68.7103 68.1051 74.6448 57.8262 74.6211 49.3873C74.6078 44.5934 72.6731 41.4271 69.6595 40.3604Z" fill="#DEECFF"/>
<path d="M62.8845 40.4757C71.3058 35.614 78.1547 39.5166 78.1818 49.1932C78.2093 58.8681 71.4051 70.6537 62.9838 75.5155C54.5625 80.3777 47.7136 76.4746 47.6866 66.7996C47.659 57.1236 54.4632 45.338 62.8845 40.4757ZM62.9778 73.2768C70.323 69.0361 76.2575 58.7572 76.2338 50.3183C76.2101 41.8782 70.2364 38.4742 62.8912 42.7149C55.547 46.9551 49.6114 57.2345 49.6352 65.6745C49.6594 74.114 55.6336 77.517 62.9778 73.2768Z" fill="#D8E3E3"/>
<path d="M68.347 36.2825C65.5745 34.6715 61.7353 34.8982 57.4973 37.3448C49.076 42.2071 42.2718 53.9927 42.2994 63.6687C42.3132 68.4753 44.0102 71.8567 46.7469 73.4473L52.1343 76.5784C49.3976 74.9878 47.7005 71.6063 47.6867 66.7998C47.6592 57.1232 54.4634 45.3375 62.8847 40.4758C67.1226 38.0292 70.9618 37.8025 73.7344 39.4136L68.347 36.2825Z" fill="url(#paint1_linear_16_5588)"/>
<defs>
<linearGradient id="paint0_linear_16_5588" x1="55.5423" y1="75.3741" x2="74.2973" y2="42.8895" gradientUnits="userSpaceOnUse">
<stop stop-color="#CDE3E3"/>
<stop offset="0.000446474" stop-color="#CFE4E4"/>
<stop offset="0.0051" stop-color="#DAE8E8"/>
<stop offset="0.0116" stop-color="#E1EAEA"/>
<stop offset="0.0297" stop-color="#E3EBEB"/>
<stop offset="0.1362" stop-color="#E3EBEB"/>
<stop offset="0.2308" stop-color="#FEFFFF"/>
<stop offset="0.3243" stop-color="#FCFEFE"/>
<stop offset="0.3579" stop-color="#F5F9F9"/>
<stop offset="0.3818" stop-color="#EAF0F0"/>
<stop offset="0.3905" stop-color="#E3EBEB"/>
<stop offset="0.9346" stop-color="#E3EBEB"/>
<stop offset="0.9919" stop-color="#CAE3E3"/>
</linearGradient>
<linearGradient id="paint1_linear_16_5588" x1="44.1257" y1="71.9551" x2="65.6276" y2="34.7127" gradientUnits="userSpaceOnUse">
<stop offset="0.0081" stop-color="#CAE3E3"/>
<stop offset="0.0654" stop-color="#E3EBEB"/>
<stop offset="0.6095" stop-color="#E3EBEB"/>
<stop offset="0.6182" stop-color="#EAF0F0"/>
<stop offset="0.6421" stop-color="#F5F9F9"/>
<stop offset="0.6757" stop-color="#FCFEFE"/>
<stop offset="0.7692" stop-color="#FEFFFF"/>
<stop offset="0.8638" stop-color="#E3EBEB"/>
<stop offset="0.9703" stop-color="#E3EBEB"/>
<stop offset="0.9884" stop-color="#E1EAEA"/>
<stop offset="0.9949" stop-color="#DAE8E8"/>
<stop offset="0.9996" stop-color="#CFE4E4"/>
<stop offset="1" stop-color="#CDE3E3"/>
</linearGradient>
</defs>
</svg>
