<svg width="106" height="105" viewBox="0 0 106 105" fill="none" xmlns="http://www.w3.org/2000/svg">
<path d="M9.16658 91.5276L27.9754 102.597L26.5208 87.9473L9.16658 91.5276Z" fill="#258399"/>
<path d="M91.4944 84.2684L10.781 91.7555C8.83723 91.9358 7.11534 90.5063 6.93504 88.5626L3.62579 52.8881C3.44548 50.9444 4.87504 49.2225 6.81876 49.0422L87.5322 41.555C89.4759 41.3747 91.1978 42.8043 91.3781 44.748L94.6874 80.4225C94.8677 82.3662 93.4381 84.0881 91.4944 84.2684Z" fill="#21ADD8"/>
<path d="M23.913 82.5393C22.1684 82.7012 20.6625 82.4836 19.3963 81.8874C18.1295 81.2912 17.0397 80.3339 16.1273 79.0157L18.9536 76.4967C19.5435 77.36 20.1864 77.9698 20.8829 78.3258C21.5787 78.6821 22.3061 78.8249 23.0647 78.7545C24.2273 78.6467 25.0666 78.212 25.583 77.4499C26.0986 76.6884 26.2745 75.4224 26.1103 73.6524L24.566 57.0036L28.9652 56.5955L30.5447 73.6236C30.6503 74.7614 30.6101 75.8426 30.4248 76.867C30.2389 77.8919 29.8778 78.8052 29.3401 79.6069C28.8025 80.4092 28.0856 81.0685 27.1904 81.585C26.2948 82.1015 25.2024 82.4197 23.913 82.5393Z" fill="white"/>
<path d="M37.4472 80.8249L35.1465 56.0225L42.9588 55.2978C44.324 55.1711 45.6063 55.1801 46.8053 55.3235C48.0044 55.4675 49.0618 55.8026 49.9779 56.3297C50.8935 56.8568 51.6369 57.5851 52.2077 58.5134C52.7781 59.4425 53.1306 60.6272 53.2642 62.0683C53.3909 63.4335 53.2606 64.6445 52.8744 65.7001C52.4876 66.7562 51.9019 67.6585 51.1172 68.4068C50.3321 69.1556 49.3792 69.7412 48.2584 70.1637C47.1369 70.587 45.9067 70.8599 44.5668 70.9842L41.0019 71.3149L41.8462 80.4166L37.4472 80.8249ZM40.675 67.7881L43.8984 67.4891C47.5392 67.1514 49.22 65.4786 48.9408 62.4696C48.7954 60.9022 48.2212 59.8654 47.2178 59.359C46.2146 58.8531 44.7898 58.6854 42.9445 58.8565L39.8727 59.1415L40.675 67.7881Z" fill="white"/>
<path d="M69.9521 78.2687C68.2834 78.4235 66.7086 78.2887 65.2291 77.8654C63.7488 77.4421 62.4335 76.7351 61.2838 75.7451C60.1334 74.7556 59.1938 73.4908 58.4647 71.952C57.7351 70.4131 57.2758 68.6198 57.0858 66.5719C56.8982 64.5494 57.0335 62.7074 57.4911 61.0454C57.9491 59.3839 58.6508 57.9484 59.5969 56.7382C60.5426 55.5286 61.7032 54.567 63.0778 53.8526C64.452 53.1388 65.9609 52.7053 67.6048 52.5529C69.3742 52.3887 70.9021 52.5722 72.1885 53.103C73.4743 53.6341 74.5469 54.2678 75.4058 55.0039L73.3182 58.0664C72.6296 57.5182 71.8806 57.0713 71.0709 56.7256C70.2606 56.3801 69.2743 56.2612 68.1116 56.369C66.9988 56.4723 66.0132 56.7741 65.1547 57.2744C64.2956 57.7749 63.5799 58.4408 63.0066 59.2714C62.4336 60.1028 62.0213 61.0906 61.7707 62.2358C61.5196 63.3815 61.4591 64.6493 61.5881 66.0395C61.8508 68.8713 62.6948 71.0307 64.1206 72.5175C65.5459 74.0049 67.5107 74.6318 70.0135 74.3997C70.7211 74.334 71.3824 74.177 71.9971 73.9288C72.6113 73.6805 73.1045 73.3612 73.4764 72.9691L72.9803 67.6218L68.2778 68.058L67.9436 64.4552L76.5903 63.6531L77.6034 74.5751C76.8465 75.4868 75.8053 76.2911 74.4804 76.9877C73.1552 77.6847 71.6456 78.1116 69.9521 78.2687Z" fill="white"/>
</svg>
