<svg width="120" height="96" viewBox="0 0 120 96" fill="none" xmlns="http://www.w3.org/2000/svg">
<g filter="url(#filter0_d_420_36186)">
<path d="M10.7455 46.3579L17.5074 58.83L21.6103 50.1844L10.7455 46.3579Z" fill="#0D639E"/>
<path d="M59.0257 69.926L11.5679 47.0259C10.425 46.4745 9.94561 45.1009 10.4971 43.958L20.6187 22.9822C21.1701 21.8393 22.5437 21.3599 23.6866 21.9114L71.1443 44.8114C72.2872 45.3629 72.7666 46.7364 72.2152 47.8793L62.0936 68.8551C61.5421 69.998 60.1686 70.4774 59.0257 69.926Z" fill="#027BCB"/>
<path d="M18.779 44.4273L25.8159 29.844L29.7182 31.727C31.948 32.803 33.3968 34.2443 34.0644 36.051C34.7321 37.8577 34.485 39.9651 33.3229 42.3734C32.7418 43.5775 32.069 44.5634 31.3048 45.3307C30.54 46.0983 29.7082 46.6454 28.8086 46.9716C27.9088 47.2981 26.9562 47.4109 25.9508 47.3107C24.9452 47.2104 23.8998 46.8984 22.8149 46.3749L18.779 44.4273ZM22.3771 43.5794L23.5142 44.1281C25.0006 44.8453 26.3478 44.9688 27.5556 44.4976C28.7631 44.0266 29.8013 42.8918 30.6693 41.093C31.5301 39.3091 31.7562 37.8148 31.3482 36.6097C30.9399 35.4049 30 34.4472 28.5282 33.737L27.3911 33.1883L22.3771 43.5794Z" fill="white"/>
<path d="M38.2503 54.1533C37.2988 53.6941 36.5135 53.0995 35.8942 52.3704C35.2746 51.6409 34.8423 50.809 34.5968 49.8748C34.3507 48.941 34.298 47.9301 34.4378 46.8429C34.5775 45.7557 34.9343 44.6178 35.5083 43.4283C36.0748 42.2541 36.7385 41.2777 37.499 40.499C38.2594 39.7208 39.0762 39.148 39.9497 38.7814C40.8229 38.4149 41.7358 38.2508 42.6891 38.2889C43.6418 38.3272 44.594 38.5757 45.5454 39.0348C46.4966 39.4938 47.2837 40.0846 47.9069 40.8067C48.5296 41.529 48.9731 42.3477 49.2371 43.2629C49.5006 44.1783 49.5647 45.1761 49.4288 46.2555C49.2926 47.3355 48.941 48.4626 48.3745 49.6367C47.8005 50.8263 47.1316 51.8136 46.3676 52.5994C45.6034 53.3854 44.7753 53.9711 43.8841 54.3563C42.9924 54.7417 42.0683 54.9191 41.1121 54.8882C40.1555 54.8569 39.2014 54.6122 38.2503 54.1533ZM39.337 51.9011C39.9168 52.1808 40.4978 52.3058 41.0809 52.2752C41.6634 52.2448 42.2314 52.0743 42.7846 51.7639C43.3374 51.4533 43.8629 51.0107 44.3605 50.435C44.858 49.8599 45.3042 49.1633 45.6988 48.3455C46.4878 46.7104 46.7681 45.265 46.5402 44.0094C46.3119 42.7541 45.6184 41.8464 44.4589 41.2869C43.2994 40.7274 42.1569 40.7492 41.0325 41.3517C39.9075 41.9544 38.9508 43.0736 38.1618 44.7086C37.7673 45.5263 37.4995 46.309 37.3588 47.0565C37.2179 47.8043 37.198 48.4908 37.2992 49.117C37.4 49.743 37.6201 50.2938 37.9591 50.7688C38.2975 51.244 38.7572 51.6213 39.337 51.9011Z" fill="white"/>
<path d="M53.4351 61.4802C52.5132 61.0353 51.7303 60.4555 51.0853 59.7413C50.4402 59.0273 49.9783 58.2086 49.6998 57.2859C49.4207 56.3634 49.3365 55.3513 49.4467 54.2498C49.5564 53.1481 49.9022 51.9954 50.4832 50.7913C51.057 49.6022 51.7462 48.6199 52.5513 47.8443C53.3558 47.0689 54.2173 46.4996 55.1351 46.1359C56.0528 45.7723 56.9989 45.6152 57.9743 45.6641C58.9493 45.7131 59.8977 45.9598 60.8196 46.4047C61.7412 46.8494 62.4691 47.43 63.0034 48.1458C63.5376 48.8619 63.9167 49.5761 64.1409 50.2891L61.9514 51.2944C61.7511 50.7215 61.4839 50.2122 61.1492 49.7665C60.8143 49.3209 60.3644 48.9616 59.7997 48.6891C59.205 48.4022 58.5995 48.2612 57.9832 48.2662C57.3667 48.271 56.767 48.4126 56.1843 48.6902C55.601 48.9679 55.0515 49.3854 54.5353 49.9425C54.0189 50.5 53.5635 51.1875 53.1691 52.0048C52.3657 53.6698 52.0964 55.1481 52.3622 56.4401C52.6274 57.7321 53.3771 58.6755 54.6112 59.2709C55.2652 59.5865 55.9111 59.729 56.5496 59.6976C57.1874 59.6666 57.8223 59.5283 58.4538 59.2833L59.0509 61.5783C58.1261 61.9752 57.1932 62.1711 56.252 62.1658C55.3105 62.1603 54.3717 61.9321 53.4351 61.4802Z" fill="white"/>
</g>
<defs>
<filter id="filter0_d_420_36186" x="-2.80073" y="8.61382" width="93.5409" height="79.8373" filterUnits="userSpaceOnUse" color-interpolation-filters="sRGB">
<feFlood flood-opacity="0" result="BackgroundImageFix"/>
<feColorMatrix in="SourceAlpha" type="matrix" values="0 0 0 0 0 0 0 0 0 0 0 0 0 0 0 0 0 0 127 0" result="hardAlpha"/>
<feOffset dx="2.61376" dy="2.61376"/>
<feGaussianBlur stdDeviation="7.84128"/>
<feComposite in2="hardAlpha" operator="out"/>
<feColorMatrix type="matrix" values="0 0 0 0 0 0 0 0 0 0 0 0 0 0 0 0 0 0 0.15 0"/>
<feBlend mode="normal" in2="BackgroundImageFix" result="effect1_dropShadow_420_36186"/>
<feBlend mode="normal" in="SourceGraphic" in2="effect1_dropShadow_420_36186" result="shape"/>
</filter>
</defs>
</svg>
