<svg width="130" height="79" viewBox="0 0 130 79" fill="none" xmlns="http://www.w3.org/2000/svg">
<path d="M1.69141 67.9235L17.0627 79L16.9799 66.2202L1.69141 67.9235Z" fill="#3B2577"/>
<path d="M73.4392 68.25H3.06847C1.37382 68.25 0 66.8762 0 65.1816V34.0785C0 32.3838 1.37382 31.01 3.06847 31.01H73.4392C75.1338 31.01 76.5076 32.3838 76.5076 34.0785V65.1816C76.5076 66.8762 75.1338 68.25 73.4392 68.25Z" fill="#613AB5"/>
<path d="M12.3784 60.9394V39.3152H19.1897C20.3801 39.3152 21.4876 39.4257 22.5126 39.6459C23.5376 39.8665 24.4247 40.241 25.1743 40.77C25.9235 41.2991 26.5078 41.9882 26.9268 42.8365C27.3453 43.6853 27.555 44.7377 27.555 45.9942C27.555 47.1844 27.3453 48.2207 26.9268 49.1022C26.5078 49.9842 25.9291 50.7172 25.191 51.3011C24.4522 51.8854 23.5816 52.3152 22.5788 52.5906C21.5755 52.8665 20.49 53.0038 19.322 53.0038H16.2139V60.9392L12.3784 60.9394ZM16.2139 49.929H19.0243C22.1986 49.929 23.7856 48.6178 23.7856 45.9943C23.7856 44.6278 23.3723 43.6855 22.5456 43.1673C21.719 42.6496 20.5007 42.3903 18.892 42.3903H16.2138L16.2139 49.929Z" fill="white"/>
<path d="M31.6211 60.9394V39.3152H35.5558L42.301 51.483L44.5162 56.0789H44.6485C44.5602 54.9547 44.4553 53.7479 44.3343 52.4584C44.2129 51.1688 44.1524 49.9181 44.1524 48.7056V39.3153H47.8227V60.9396H43.888L37.1428 48.7718L34.9275 44.1758H34.7952C34.8831 45.3222 34.988 46.5233 35.1094 47.78C35.2304 49.0363 35.2913 50.2712 35.2913 51.4832V60.9396H31.6211V60.9394Z" fill="white"/>
<path d="M62.371 61.3362C60.9161 61.3362 59.5656 61.0934 58.3206 60.6089C57.075 60.1243 55.9947 59.4077 55.0802 58.4597C54.1652 57.5121 53.4544 56.3435 52.9476 54.9549C52.4403 53.5661 52.187 51.9791 52.187 50.1936C52.187 48.4303 52.4516 46.8488 52.9807 45.4489C53.5096 44.0494 54.2314 42.8647 55.1463 41.8945C56.0608 40.9247 57.1411 40.1865 58.3867 39.6792C59.6318 39.1724 60.9709 38.9187 62.4041 38.9187C63.9468 38.9187 65.2528 39.1998 66.3223 39.7618C67.3911 40.324 68.2675 40.9578 68.9509 41.663L66.9008 44.1428C66.3495 43.6138 65.7379 43.1674 65.0657 42.8036C64.393 42.44 63.5499 42.2581 62.5362 42.2581C61.566 42.2581 60.6898 42.44 59.9076 42.8036C59.1248 43.1674 58.4528 43.6856 57.8906 44.3577C57.3286 45.0304 56.893 45.8512 56.5845 46.821C56.2756 47.7913 56.1217 48.8824 56.1217 50.0944C56.1217 52.5633 56.6781 54.4976 57.7914 55.8971C58.9042 57.2972 60.5523 57.9967 62.7344 57.9967C63.3513 57.9967 63.9356 57.914 64.4869 57.7487C65.0377 57.5833 65.4896 57.3468 65.8425 57.0378V52.3757H61.7426V49.2345H69.2813V58.7569C68.5538 59.4844 67.5893 60.0961 66.3882 60.5921C65.1866 61.0883 63.8476 61.3362 62.371 61.3362Z" fill="white"/>
</svg>
