<svg width="111" height="85" viewBox="0 0 111 85" fill="none" xmlns="http://www.w3.org/2000/svg">
<g filter="url(#filter0_d_420_36218)">
<path d="M17.246 60.1132L29.2605 66.697L28.0662 57.5332L17.246 60.1132Z" fill="#933319"/>
<path d="M68.7635 53.976L18.263 60.2253C17.0469 60.3758 15.939 59.512 15.7885 58.2958L13.0264 35.9752C12.8759 34.7591 13.7398 33.6512 14.9559 33.5007L65.4564 27.2514C66.6725 27.1009 67.7804 27.9648 67.9309 29.1809L70.693 51.5015C70.8435 52.7176 69.9796 53.8255 68.7635 53.976Z" fill="#F15A29"/>
<path d="M24.603 54.1144L22.6826 38.5962L27.5706 37.9913C28.4248 37.8856 29.2295 37.8666 29.9847 37.9335C30.7399 38.0008 31.4098 38.1908 31.9947 38.5039C32.5793 38.817 33.0597 39.2597 33.4358 39.8312C33.8115 40.4032 34.0555 41.1398 34.1671 42.0415C34.2728 42.8956 34.2142 43.6581 33.9923 44.3277C33.7699 44.9978 33.4197 45.5753 32.9418 46.0597C32.4635 46.5446 31.877 46.9304 31.1819 47.217C30.4863 47.5042 29.7197 47.6991 28.8813 47.8028L26.6509 48.0788L27.3557 53.7736L24.6029 54.1142L24.603 54.1144ZM26.3777 45.8724L28.3945 45.6228C30.6723 45.3409 31.6949 44.259 31.4619 42.3763C31.3406 41.3956 30.9603 40.7561 30.3211 40.4577C29.6819 40.1596 28.7847 40.0817 27.6302 40.2245L25.7082 40.4624L26.3777 45.8724Z" fill="white"/>
<path d="M38.4116 52.4052L36.4912 36.887L41.3793 36.2821C42.2336 36.1764 43.0382 36.1573 43.7933 36.2243C44.5485 36.2916 45.2184 36.4816 45.8033 36.7946C46.3878 37.1078 46.8684 37.5505 47.2444 38.122C47.6202 38.694 47.8641 39.4305 47.9757 40.3322C48.0814 41.1864 48.0229 41.9488 47.8008 42.6185C47.5785 43.2886 47.2283 43.866 46.7504 44.3505C46.2722 44.8354 45.6856 45.2212 44.9904 45.5078C44.295 45.7949 43.5282 45.9899 42.69 46.0936L40.4594 46.3696L41.1641 52.0644L38.4115 52.405L38.4116 52.4052ZM40.1864 44.1632L42.2033 43.9136C44.4812 43.6317 45.5037 42.5498 45.2707 40.6671C45.1494 39.6864 44.7691 39.0469 44.1298 38.7484C43.4906 38.4503 42.5935 38.3724 41.4388 38.5153L39.5169 38.7531L40.1864 44.1632Z" fill="white"/>
<path d="M54.903 50.3647L53.2704 37.1718L48.7858 37.7268L48.498 35.4014L60.2197 33.9508L60.5075 36.2762L56.0228 36.8312L57.6554 50.024L54.903 50.3647Z" fill="white"/>
</g>
<defs>
<filter id="filter0_d_420_36218" x="0.235484" y="14.4606" width="88.3578" height="70.1198" filterUnits="userSpaceOnUse" color-interpolation-filters="sRGB">
<feFlood flood-opacity="0" result="BackgroundImageFix"/>
<feColorMatrix in="SourceAlpha" type="matrix" values="0 0 0 0 0 0 0 0 0 0 0 0 0 0 0 0 0 0 127 0" result="hardAlpha"/>
<feOffset dx="2.55476" dy="2.55476"/>
<feGaussianBlur stdDeviation="7.66428"/>
<feComposite in2="hardAlpha" operator="out"/>
<feColorMatrix type="matrix" values="0 0 0 0 0 0 0 0 0 0 0 0 0 0 0 0 0 0 0.15 0"/>
<feBlend mode="normal" in2="BackgroundImageFix" result="effect1_dropShadow_420_36218"/>
<feBlend mode="normal" in="SourceGraphic" in2="effect1_dropShadow_420_36218" result="shape"/>
</filter>
</defs>
</svg>
