<svg width="80" height="73" viewBox="0 0 80 73" fill="none" xmlns="http://www.w3.org/2000/svg">
<g filter="url(#filter0_d_420_36170)">
<path d="M12.7504 47.4914L22.7265 55.9197L23.3479 47.1323L12.7504 47.4914Z" fill="#BA1E2A"/>
<path d="M62.0419 51.5241L13.679 47.7889C12.5144 47.6989 11.6431 46.6818 11.7331 45.5172L13.384 24.1413C13.474 22.9766 14.491 22.1054 15.6557 22.1953L64.0186 25.9306C65.1832 26.0205 66.0545 27.0376 65.9645 28.2023L64.3136 49.5781C64.2237 50.7428 63.2066 51.614 62.0419 51.5241Z" fill="#ED1B24"/>
<path d="M20.7604 43.2816L21.9082 28.4202L26.5893 28.7817C27.4074 28.8449 28.1627 28.9796 28.8555 29.1853C29.5482 29.3914 30.138 29.6958 30.6251 30.0992C31.1119 30.5026 31.4768 31.0072 31.7198 31.6124C31.9623 32.218 32.0506 32.9524 31.9839 33.8159C31.9207 34.6339 31.7216 35.3351 31.3872 35.9186C31.0524 36.5025 30.6158 36.9756 30.0775 37.3376C29.5388 37.6999 28.9177 37.9491 28.2139 38.0851C27.5097 38.2215 26.7565 38.2582 25.9537 38.1962L23.8176 38.0313L23.3964 43.485L20.7604 43.2814L20.7604 43.2816ZM23.9808 35.9182L25.9123 36.0674C28.0938 36.2358 29.2541 35.4189 29.3933 33.6159C29.4659 32.6768 29.2319 32.0072 28.6912 31.6072C28.1506 31.2076 27.3271 30.9647 26.2215 30.8793L24.3808 30.7371L23.9807 35.9182L23.9808 35.9182Z" fill="white"/>
<path d="M33.985 44.3031L35.1328 29.4417L39.1095 29.7488C41.3819 29.9243 43.1069 30.6748 44.2847 32.0001C45.4624 33.3255 45.9565 35.2152 45.767 37.6694C45.6722 38.8965 45.4256 39.9672 45.0274 40.8811C44.6289 41.7954 44.099 42.5431 43.4369 43.1242C42.7749 43.7056 41.9958 44.1216 41.1003 44.3724C40.2044 44.6233 39.2036 44.7059 38.0979 44.6205L33.985 44.3029L33.985 44.3031ZM36.786 42.3706L37.9448 42.4601C39.4596 42.5771 40.656 42.2316 41.5338 41.4229C42.4113 40.6145 42.9213 39.2938 43.0629 37.4605C43.2033 35.6427 42.8965 34.2855 42.1429 33.3891C41.3892 32.4929 40.2624 31.9866 38.7627 31.8708L37.6038 31.7813L36.786 42.3706Z" fill="white"/>
<path d="M48.1877 45.3998L49.3354 30.5383L58.3114 31.2316L58.1394 33.4586L51.7994 32.9689L51.4747 37.1728L56.883 37.5905L56.711 39.8175L51.3028 39.3998L50.8236 45.6034L48.1877 45.3998Z" fill="white"/>
</g>
<defs>
<filter id="filter0_d_420_36170" x="0.178035" y="10.6404" width="81.9606" height="61.4472" filterUnits="userSpaceOnUse" color-interpolation-filters="sRGB">
<feFlood flood-opacity="0" result="BackgroundImageFix"/>
<feColorMatrix in="SourceAlpha" type="matrix" values="0 0 0 0 0 0 0 0 0 0 0 0 0 0 0 0 0 0 127 0" result="hardAlpha"/>
<feOffset dx="2.30971" dy="2.30971"/>
<feGaussianBlur stdDeviation="6.92912"/>
<feComposite in2="hardAlpha" operator="out"/>
<feColorMatrix type="matrix" values="0 0 0 0 0 0 0 0 0 0 0 0 0 0 0 0 0 0 0.15 0"/>
<feBlend mode="normal" in2="BackgroundImageFix" result="effect1_dropShadow_420_36170"/>
<feBlend mode="normal" in="SourceGraphic" in2="effect1_dropShadow_420_36170" result="shape"/>
</filter>
</defs>
</svg>
