<svg width="108" height="96" viewBox="0 0 108 96" fill="none" xmlns="http://www.w3.org/2000/svg">
<g filter="url(#filter0_d_420_36202)">
<path d="M15.4048 68.8487L28.0303 74.09L25.8618 65.1276L15.4048 68.8487Z" fill="#207720"/>
<path d="M65.8524 57.2298L16.4261 68.8509C15.2359 69.1307 14.0441 68.3927 13.7642 67.2024L8.62782 45.3566C8.34796 44.1663 9.08603 42.9745 10.2763 42.6947L59.7025 31.0736C60.8928 30.7937 62.0846 31.5318 62.3644 32.722L67.5008 54.5678C67.7807 55.7581 67.0427 56.9499 65.8524 57.2298Z" fill="#3AB63B"/>
<path d="M21.6379 62.2067L24.1175 53.3648L18.3457 46.953L21.3414 46.2487L23.8054 49.2229C24.0749 49.5355 24.3422 49.8564 24.6077 50.1861C24.8729 50.5159 25.1746 50.878 25.5126 51.2723L25.6055 51.2504C25.6857 50.7578 25.7634 50.3065 25.8386 49.8967C25.9138 49.4869 25.9945 49.0842 26.0812 48.6878L26.8919 44.9436L29.7483 44.272L27.4657 52.7001L33.5981 59.3946L30.6022 60.099L27.9034 56.9594C27.6074 56.6043 27.3164 56.2519 27.03 55.9025C26.7435 55.5533 26.4299 55.1737 26.0883 54.7638L25.9955 54.7856C25.9033 55.2975 25.8145 55.7718 25.7295 56.2083C25.6441 56.6451 25.5562 57.0866 25.465 57.5327L24.4945 61.5351L21.6379 62.2067Z" fill="white"/>
<path d="M35.8274 58.8705L32.2563 43.6824L34.9503 43.049L37.9862 55.9613L44.3029 54.4761L44.838 56.7521L35.8274 58.8705Z" fill="white"/>
<path d="M51.4065 55.5016C50.3847 55.7419 49.3521 55.7801 48.309 55.6172C47.2658 55.4542 46.2966 55.102 45.4016 54.5608L46.5493 52.3549C47.2113 52.7385 47.9282 53.0072 48.6993 53.1606C49.4707 53.3142 50.2047 53.3089 50.9014 53.1451C51.7683 52.9413 52.3843 52.6088 52.7497 52.1469C53.115 51.6853 53.2285 51.1604 53.0902 50.5719C53.0174 50.2624 52.8976 50.0129 52.7304 49.8233C52.5634 49.6339 52.3561 49.4824 52.1088 49.3689C51.8617 49.2556 51.5783 49.1628 51.2593 49.0908C50.9399 49.0188 50.5936 48.9532 50.2205 48.8938L47.9174 48.4796C47.5095 48.4123 47.096 48.3052 46.6777 48.1584C46.2591 48.0116 45.8646 47.8103 45.4941 47.5544C45.1233 47.2984 44.7981 46.9748 44.5183 46.583C44.2382 46.1916 44.0327 45.7168 43.9017 45.1594C43.7598 44.5557 43.7556 43.9646 43.8889 43.3857C44.0225 42.8071 44.2681 42.2716 44.6263 41.7788C44.9842 41.2863 45.4513 40.858 46.0272 40.4935C46.6033 40.1295 47.2628 39.8599 48.0061 39.6851C48.8887 39.4776 49.7809 39.4517 50.6836 39.6071C51.586 39.7625 52.4003 40.0653 53.1273 40.5151L52.1612 42.5558C51.5708 42.27 50.9852 42.0726 50.4044 41.9641C49.8234 41.8556 49.2079 41.8778 48.5576 42.0307C47.8297 42.2018 47.2865 42.4973 46.9279 42.9163C46.5688 43.3357 46.4551 43.8239 46.5862 44.3812C46.6553 44.6755 46.78 44.9116 46.9609 45.0896C47.1415 45.2678 47.3633 45.4117 47.6261 45.5215C47.8886 45.6312 48.1826 45.7176 48.5077 45.7797C48.8327 45.8423 49.1646 45.8991 49.5035 45.9499L51.7725 46.3232C52.2651 46.4035 52.7265 46.524 53.1562 46.684C53.586 46.8446 53.9744 47.0554 54.322 47.3168C54.6692 47.5783 54.9705 47.9038 55.2255 48.2929C55.4803 48.6826 55.6734 49.1556 55.8045 49.713C55.9501 50.3324 55.9626 50.9422 55.8425 51.542C55.7222 52.1425 55.4739 52.7032 55.0983 53.2242C54.7224 53.7456 54.2262 54.2055 53.6091 54.6037C52.992 55.002 52.2579 55.3014 51.4065 55.5016Z" fill="white"/>
</g>
<defs>
<filter id="filter0_d_420_36202" x="-6.62364" y="15.8224" width="95.4525" height="79.5365" filterUnits="userSpaceOnUse" color-interpolation-filters="sRGB">
<feFlood flood-opacity="0" result="BackgroundImageFix"/>
<feColorMatrix in="SourceAlpha" type="matrix" values="0 0 0 0 0 0 0 0 0 0 0 0 0 0 0 0 0 0 127 0" result="hardAlpha"/>
<feOffset dx="3.0384" dy="3.0384"/>
<feGaussianBlur stdDeviation="9.1152"/>
<feComposite in2="hardAlpha" operator="out"/>
<feColorMatrix type="matrix" values="0 0 0 0 0 0 0 0 0 0 0 0 0 0 0 0 0 0 0.15 0"/>
<feBlend mode="normal" in2="BackgroundImageFix" result="effect1_dropShadow_420_36202"/>
<feBlend mode="normal" in="SourceGraphic" in2="effect1_dropShadow_420_36202" result="shape"/>
</filter>
</defs>
</svg>
