<svg width="24" height="25" viewBox="0 0 24 25" fill="none" xmlns="http://www.w3.org/2000/svg">
<path d="M5 13.2953C5 12.7649 5.21071 12.2562 5.58579 11.8811C5.96086 11.5061 6.46957 11.2953 7 11.2953H17C17.5304 11.2953 18.0391 11.5061 18.4142 11.8811C18.7893 12.2562 19 12.7649 19 13.2953V19.2953C19 19.8258 18.7893 20.3345 18.4142 20.7096C18.0391 21.0846 17.5304 21.2953 17 21.2953H7C6.46957 21.2953 5.96086 21.0846 5.58579 20.7096C5.21071 20.3345 5 19.8258 5 19.2953V13.2953Z" stroke="black" stroke-width="1.5" stroke-linecap="round" stroke-linejoin="round"/>
<path d="M11 16.2953C11 16.5606 11.1054 16.8149 11.2929 17.0025C11.4804 17.19 11.7348 17.2953 12 17.2953C12.2652 17.2953 12.5196 17.19 12.7071 17.0025C12.8946 16.8149 13 16.5606 13 16.2953C13 16.0301 12.8946 15.7758 12.7071 15.5882C12.5196 15.4007 12.2652 15.2953 12 15.2953C11.7348 15.2953 11.4804 15.4007 11.2929 15.5882C11.1054 15.7758 11 16.0301 11 16.2953Z" stroke="black" stroke-width="1.5" stroke-linecap="round" stroke-linejoin="round"/>
<path d="M8 11.2953V7.29535C8 6.23448 8.42143 5.21707 9.17157 4.46692C9.92172 3.71678 10.9391 3.29535 12 3.29535C13.0609 3.29535 14.0783 3.71678 14.8284 4.46692C15.5786 5.21707 16 6.23448 16 7.29535V11.2953" stroke="black" stroke-width="1.5" stroke-linecap="round" stroke-linejoin="round"/>
</svg>
