<svg width="57" height="56" viewBox="0 0 57 56" fill="none" xmlns="http://www.w3.org/2000/svg">
<path d="M56.25 5.76054V50.2407C56.25 53.4215 53.6715 56 50.4907 56H41.7105H28.8586C28.1149 51.9916 28.4304 54.5382 28.4304 56H14.7895H6.01054C2.82866 56 0.25 53.4213 0.25 50.2407V5.76054C0.25 2.57988 2.82866 0 6.01054 0H50.4895C53.6709 0 56.25 2.57907 56.25 5.76054Z" fill="#2DA6F7"/>
<path d="M56.2502 5.76022V50.2404C56.2502 53.4212 53.6716 55.9998 50.4908 55.9998H41.7106H28.25C28.6107 55.9979 28.9175 55.9998 28.25 55.9998V-9.15527e-05H50.4894C53.6711 -9.15527e-05 56.2502 2.57898 56.2502 5.76022Z" fill="#2F89F4"/>
<path d="M7.68445 51.3495C6.14958 51.3495 4.90088 50.1008 4.90088 48.5659V7.43472C4.90088 5.89985 6.14958 4.65115 7.68445 4.65115H48.8156C50.3505 4.65115 51.5992 5.89985 51.5992 7.43472V48.5659C51.5992 50.1008 50.3505 51.3495 48.8156 51.3495H7.68445Z" fill="#2F89F4"/>
<path d="M48.5252 48.9284H7.97486C7.61432 48.9284 7.32202 48.6361 7.32202 48.2756V7.72516C7.32202 7.36462 7.61432 7.07233 7.97486 7.07233H48.5253C48.8858 7.07233 49.1781 7.36462 49.1781 7.72516V48.2756C49.1781 48.6361 48.8858 48.9284 48.5252 48.9284Z" fill="white"/>
<path d="M19.3491 31.7934L10.4121 43.6133C9.69678 44.5594 10.3717 45.9158 11.5578 45.9158H29.4318C30.6179 45.9158 31.2928 44.5594 30.5774 43.6133L21.6404 31.7934C21.0658 31.0333 19.9238 31.0333 19.3491 31.7934Z" fill="#2DA6F7"/>
<path d="M44.9421 45.9155H31.4641C31.5368 45.8127 31.6023 45.7032 31.6597 45.5879C32.083 44.7366 31.9902 43.737 31.4168 42.9785L26.4729 36.4396L32.423 28.5707C32.9974 27.8103 34.1395 27.8103 34.7144 28.5707L46.088 43.6132C46.803 44.5592 46.1282 45.9155 44.9421 45.9155Z" fill="#2DA6F7"/>
<path d="M17.6256 22.0643C19.9636 22.0643 21.859 20.1689 21.859 17.8309C21.859 15.4928 19.9636 13.5974 17.6256 13.5974C15.2875 13.5974 13.3921 15.4928 13.3921 17.8309C13.3921 20.1689 15.2875 22.0643 17.6256 22.0643Z" fill="#2DA6F7"/>
</svg>
