<svg width="25" height="24" viewBox="0 0 25 24" fill="none" xmlns="http://www.w3.org/2000/svg">
<path d="M17.5 17H19.5C20.0304 17 20.5391 16.7893 20.9142 16.4142C21.2893 16.0391 21.5 15.5304 21.5 15V11C21.5 10.4696 21.2893 9.96086 20.9142 9.58579C20.5391 9.21071 20.0304 9 19.5 9H5.5C4.96957 9 4.46086 9.21071 4.08579 9.58579C3.71071 9.96086 3.5 10.4696 3.5 11V15C3.5 15.5304 3.71071 16.0391 4.08579 16.4142C4.46086 16.7893 4.96957 17 5.5 17H7.5" stroke="#097AF1" stroke-width="1.5" stroke-linecap="round" stroke-linejoin="round"/>
<path d="M17.5 9V5C17.5 4.46957 17.2893 3.96086 16.9142 3.58579C16.5391 3.21071 16.0304 3 15.5 3H9.5C8.96957 3 8.46086 3.21071 8.08579 3.58579C7.71071 3.96086 7.5 4.46957 7.5 5V9" stroke="#097AF1" stroke-width="1.5" stroke-linecap="round" stroke-linejoin="round"/>
<path d="M7.5 15C7.5 14.4696 7.71071 13.9609 8.08579 13.5858C8.46086 13.2107 8.96957 13 9.5 13H15.5C16.0304 13 16.5391 13.2107 16.9142 13.5858C17.2893 13.9609 17.5 14.4696 17.5 15V19C17.5 19.5304 17.2893 20.0391 16.9142 20.4142C16.5391 20.7893 16.0304 21 15.5 21H9.5C8.96957 21 8.46086 20.7893 8.08579 20.4142C7.71071 20.0391 7.5 19.5304 7.5 19V15Z" stroke="#097AF1" stroke-width="1.5" stroke-linecap="round" stroke-linejoin="round"/>
</svg>
