<svg width="25" height="24" viewBox="0 0 25 24" fill="none" xmlns="http://www.w3.org/2000/svg">
<path d="M11.1585 4.317C11.5845 2.561 14.0825 2.561 14.5085 4.317C14.5724 4.5808 14.6977 4.82578 14.8742 5.032C15.0507 5.23822 15.2734 5.39985 15.5241 5.50375C15.7749 5.60764 16.0467 5.65085 16.3173 5.62987C16.5879 5.60889 16.8497 5.5243 17.0815 5.383C18.6245 4.443 20.3915 6.209 19.4515 7.753C19.3104 7.98466 19.2259 8.24634 19.205 8.51677C19.1841 8.78721 19.2273 9.05877 19.331 9.30938C19.4348 9.55999 19.5962 9.78258 19.8022 9.95905C20.0082 10.1355 20.2529 10.2609 20.5165 10.325C22.2725 10.751 22.2725 13.249 20.5165 13.675C20.2527 13.7389 20.0077 13.8642 19.8015 14.0407C19.5953 14.2172 19.4336 14.4399 19.3298 14.6907C19.2259 14.9414 19.1826 15.2132 19.2036 15.4838C19.2246 15.7544 19.3092 16.0162 19.4505 16.248C20.3905 17.791 18.6245 19.558 17.0805 18.618C16.8488 18.4769 16.5872 18.3924 16.3167 18.3715C16.0463 18.3506 15.7747 18.3938 15.5241 18.4975C15.2735 18.6013 15.0509 18.7627 14.8744 18.9687C14.698 19.1747 14.5726 19.4194 14.5085 19.683C14.0825 21.439 11.5845 21.439 11.1585 19.683C11.0946 19.4192 10.9693 19.1742 10.7928 18.968C10.6163 18.7618 10.3936 18.6001 10.1428 18.4963C9.89208 18.3924 9.62033 18.3491 9.34971 18.3701C9.07909 18.3911 8.81725 18.4757 8.5855 18.617C7.0425 19.557 5.2755 17.791 6.2155 16.247C6.3566 16.0153 6.44105 15.7537 6.46198 15.4832C6.48291 15.2128 6.43974 14.9412 6.33597 14.6906C6.2322 14.44 6.07076 14.2174 5.86477 14.0409C5.65878 13.8645 5.41406 13.7391 5.1505 13.675C3.3945 13.249 3.3945 10.751 5.1505 10.325C5.4143 10.2611 5.65928 10.1358 5.8655 9.95929C6.07172 9.7828 6.23335 9.56011 6.33724 9.30935C6.44113 9.05859 6.48435 8.78683 6.46337 8.51621C6.44238 8.24559 6.3578 7.98375 6.2165 7.752C5.2765 6.209 7.0425 4.442 8.5865 5.382C9.5865 5.99 10.8825 5.452 11.1585 4.317Z" stroke="#8091A4" stroke-width="1.5" stroke-linecap="round" stroke-linejoin="round"/>
<path d="M9.8335 12C9.8335 12.7956 10.1496 13.5587 10.7122 14.1213C11.2748 14.6839 12.0378 15 12.8335 15C13.6291 15 14.3922 14.6839 14.9548 14.1213C15.5174 13.5587 15.8335 12.7956 15.8335 12C15.8335 11.2044 15.5174 10.4413 14.9548 9.87868C14.3922 9.31607 13.6291 9 12.8335 9C12.0378 9 11.2748 9.31607 10.7122 9.87868C10.1496 10.4413 9.8335 11.2044 9.8335 12Z" stroke="#8091A4" stroke-width="1.5" stroke-linecap="round" stroke-linejoin="round"/>
</svg>
