<svg width="175" height="175" viewBox="0 0 175 175" fill="none" xmlns="http://www.w3.org/2000/svg">
<path d="M157.5 44.3516H143.336V26.8516C143.336 25.375 142.734 24.0078 141.75 22.9687L125.836 7.05469C124.797 6.01562 123.43 5.46875 121.953 5.46875H37.1328C34.125 5.46875 31.6641 7.92969 31.6641 10.9375V44.3516H17.5C10.8828 44.3516 5.46875 49.7656 5.46875 56.3828V110.633C5.46875 117.25 10.8828 122.664 17.5 122.664H31.6641V164.062C31.6641 167.07 34.125 169.531 37.1328 169.531H137.867C140.875 169.531 143.336 167.07 143.336 164.062V122.664H157.5C164.117 122.664 169.531 117.25 169.531 110.633V56.3828C169.531 49.7656 164.117 44.3516 157.5 44.3516ZM42.6016 16.4062H119.711L132.398 29.0938V44.3516H42.6016V16.4062ZM132.398 117.195V158.594H42.6016V103.25H132.398V117.195ZM158.594 110.633C158.594 111.234 158.102 111.727 157.5 111.727H143.336V97.7812C143.336 94.7734 140.875 92.3125 137.867 92.3125H37.1328C34.125 92.3125 31.6641 94.7734 31.6641 97.7812V111.727H17.5C16.8984 111.727 16.4062 111.234 16.4062 110.633V56.3828C16.4062 55.7813 16.8984 55.2891 17.5 55.2891H157.5C158.102 55.2891 158.594 55.7813 158.594 56.3828V110.633Z" fill="#F8FCFF"/>
<path d="M131.688 60.9219H131.633C128.625 60.9219 126.219 63.3829 126.219 66.3907C126.219 69.3985 128.68 71.8594 131.688 71.8594C134.696 71.8594 137.157 69.3985 137.157 66.3907C137.157 63.3829 134.696 60.9219 131.688 60.9219Z" fill="#F8FCFF"/>
<path d="M146.289 60.9219H146.234C143.227 60.9219 140.82 63.3829 140.82 66.3907C140.82 69.3985 143.281 71.8594 146.289 71.8594C149.297 71.8594 151.758 69.3985 151.758 66.3907C151.758 63.3829 149.297 60.9219 146.289 60.9219Z" fill="#F8FCFF"/>
<path d="M58.7344 126.711H116.211C119.219 126.711 121.68 124.25 121.68 121.242C121.68 118.235 119.219 115.774 116.211 115.774H58.7344C55.7266 115.774 53.2656 118.235 53.2656 121.242C53.2656 124.25 55.7266 126.711 58.7344 126.711Z" fill="#F8FCFF"/>
<path d="M58.7344 146.07H116.211C119.219 146.07 121.68 143.609 121.68 140.601C121.68 137.594 119.219 135.133 116.211 135.133H58.7344C55.7266 135.133 53.2656 137.594 53.2656 140.601C53.2656 143.609 55.7266 146.07 58.7344 146.07Z" fill="#F8FCFF"/>
</svg>
